G75*
%MOIN*%
%OFA0B0*%
%FSLAX25Y25*%
%IPPOS*%
%LPD*%
%AMOC8*
5,1,8,0,0,1.08239X$1,22.5*
%
%ADD10C,0.00000*%
D10*
X0001500Y0001500D02*
X0076500Y0001500D01*
X0076500Y0031500D01*
X0146500Y0031500D01*
X0146500Y0001500D01*
X0366500Y0001500D01*
X0366500Y0198350D01*
X0001500Y0198350D01*
X0001500Y0001500D01*
X0005988Y0011500D02*
X0005990Y0011648D01*
X0005996Y0011796D01*
X0006006Y0011944D01*
X0006020Y0012091D01*
X0006038Y0012238D01*
X0006059Y0012384D01*
X0006085Y0012530D01*
X0006115Y0012675D01*
X0006148Y0012819D01*
X0006186Y0012962D01*
X0006227Y0013104D01*
X0006272Y0013245D01*
X0006320Y0013385D01*
X0006373Y0013524D01*
X0006429Y0013661D01*
X0006489Y0013796D01*
X0006552Y0013930D01*
X0006619Y0014062D01*
X0006690Y0014192D01*
X0006764Y0014320D01*
X0006841Y0014446D01*
X0006922Y0014570D01*
X0007006Y0014692D01*
X0007093Y0014811D01*
X0007184Y0014928D01*
X0007278Y0015043D01*
X0007374Y0015155D01*
X0007474Y0015265D01*
X0007576Y0015371D01*
X0007682Y0015475D01*
X0007790Y0015576D01*
X0007901Y0015674D01*
X0008014Y0015770D01*
X0008130Y0015862D01*
X0008248Y0015951D01*
X0008369Y0016036D01*
X0008492Y0016119D01*
X0008617Y0016198D01*
X0008744Y0016274D01*
X0008873Y0016346D01*
X0009004Y0016415D01*
X0009137Y0016480D01*
X0009272Y0016541D01*
X0009408Y0016599D01*
X0009545Y0016654D01*
X0009684Y0016704D01*
X0009825Y0016751D01*
X0009966Y0016794D01*
X0010109Y0016834D01*
X0010253Y0016869D01*
X0010397Y0016901D01*
X0010543Y0016928D01*
X0010689Y0016952D01*
X0010836Y0016972D01*
X0010983Y0016988D01*
X0011130Y0017000D01*
X0011278Y0017008D01*
X0011426Y0017012D01*
X0011574Y0017012D01*
X0011722Y0017008D01*
X0011870Y0017000D01*
X0012017Y0016988D01*
X0012164Y0016972D01*
X0012311Y0016952D01*
X0012457Y0016928D01*
X0012603Y0016901D01*
X0012747Y0016869D01*
X0012891Y0016834D01*
X0013034Y0016794D01*
X0013175Y0016751D01*
X0013316Y0016704D01*
X0013455Y0016654D01*
X0013592Y0016599D01*
X0013728Y0016541D01*
X0013863Y0016480D01*
X0013996Y0016415D01*
X0014127Y0016346D01*
X0014256Y0016274D01*
X0014383Y0016198D01*
X0014508Y0016119D01*
X0014631Y0016036D01*
X0014752Y0015951D01*
X0014870Y0015862D01*
X0014986Y0015770D01*
X0015099Y0015674D01*
X0015210Y0015576D01*
X0015318Y0015475D01*
X0015424Y0015371D01*
X0015526Y0015265D01*
X0015626Y0015155D01*
X0015722Y0015043D01*
X0015816Y0014928D01*
X0015907Y0014811D01*
X0015994Y0014692D01*
X0016078Y0014570D01*
X0016159Y0014446D01*
X0016236Y0014320D01*
X0016310Y0014192D01*
X0016381Y0014062D01*
X0016448Y0013930D01*
X0016511Y0013796D01*
X0016571Y0013661D01*
X0016627Y0013524D01*
X0016680Y0013385D01*
X0016728Y0013245D01*
X0016773Y0013104D01*
X0016814Y0012962D01*
X0016852Y0012819D01*
X0016885Y0012675D01*
X0016915Y0012530D01*
X0016941Y0012384D01*
X0016962Y0012238D01*
X0016980Y0012091D01*
X0016994Y0011944D01*
X0017004Y0011796D01*
X0017010Y0011648D01*
X0017012Y0011500D01*
X0017010Y0011352D01*
X0017004Y0011204D01*
X0016994Y0011056D01*
X0016980Y0010909D01*
X0016962Y0010762D01*
X0016941Y0010616D01*
X0016915Y0010470D01*
X0016885Y0010325D01*
X0016852Y0010181D01*
X0016814Y0010038D01*
X0016773Y0009896D01*
X0016728Y0009755D01*
X0016680Y0009615D01*
X0016627Y0009476D01*
X0016571Y0009339D01*
X0016511Y0009204D01*
X0016448Y0009070D01*
X0016381Y0008938D01*
X0016310Y0008808D01*
X0016236Y0008680D01*
X0016159Y0008554D01*
X0016078Y0008430D01*
X0015994Y0008308D01*
X0015907Y0008189D01*
X0015816Y0008072D01*
X0015722Y0007957D01*
X0015626Y0007845D01*
X0015526Y0007735D01*
X0015424Y0007629D01*
X0015318Y0007525D01*
X0015210Y0007424D01*
X0015099Y0007326D01*
X0014986Y0007230D01*
X0014870Y0007138D01*
X0014752Y0007049D01*
X0014631Y0006964D01*
X0014508Y0006881D01*
X0014383Y0006802D01*
X0014256Y0006726D01*
X0014127Y0006654D01*
X0013996Y0006585D01*
X0013863Y0006520D01*
X0013728Y0006459D01*
X0013592Y0006401D01*
X0013455Y0006346D01*
X0013316Y0006296D01*
X0013175Y0006249D01*
X0013034Y0006206D01*
X0012891Y0006166D01*
X0012747Y0006131D01*
X0012603Y0006099D01*
X0012457Y0006072D01*
X0012311Y0006048D01*
X0012164Y0006028D01*
X0012017Y0006012D01*
X0011870Y0006000D01*
X0011722Y0005992D01*
X0011574Y0005988D01*
X0011426Y0005988D01*
X0011278Y0005992D01*
X0011130Y0006000D01*
X0010983Y0006012D01*
X0010836Y0006028D01*
X0010689Y0006048D01*
X0010543Y0006072D01*
X0010397Y0006099D01*
X0010253Y0006131D01*
X0010109Y0006166D01*
X0009966Y0006206D01*
X0009825Y0006249D01*
X0009684Y0006296D01*
X0009545Y0006346D01*
X0009408Y0006401D01*
X0009272Y0006459D01*
X0009137Y0006520D01*
X0009004Y0006585D01*
X0008873Y0006654D01*
X0008744Y0006726D01*
X0008617Y0006802D01*
X0008492Y0006881D01*
X0008369Y0006964D01*
X0008248Y0007049D01*
X0008130Y0007138D01*
X0008014Y0007230D01*
X0007901Y0007326D01*
X0007790Y0007424D01*
X0007682Y0007525D01*
X0007576Y0007629D01*
X0007474Y0007735D01*
X0007374Y0007845D01*
X0007278Y0007957D01*
X0007184Y0008072D01*
X0007093Y0008189D01*
X0007006Y0008308D01*
X0006922Y0008430D01*
X0006841Y0008554D01*
X0006764Y0008680D01*
X0006690Y0008808D01*
X0006619Y0008938D01*
X0006552Y0009070D01*
X0006489Y0009204D01*
X0006429Y0009339D01*
X0006373Y0009476D01*
X0006320Y0009615D01*
X0006272Y0009755D01*
X0006227Y0009896D01*
X0006186Y0010038D01*
X0006148Y0010181D01*
X0006115Y0010325D01*
X0006085Y0010470D01*
X0006059Y0010616D01*
X0006038Y0010762D01*
X0006020Y0010909D01*
X0006006Y0011056D01*
X0005996Y0011204D01*
X0005990Y0011352D01*
X0005988Y0011500D01*
X0005988Y0186500D02*
X0005990Y0186648D01*
X0005996Y0186796D01*
X0006006Y0186944D01*
X0006020Y0187091D01*
X0006038Y0187238D01*
X0006059Y0187384D01*
X0006085Y0187530D01*
X0006115Y0187675D01*
X0006148Y0187819D01*
X0006186Y0187962D01*
X0006227Y0188104D01*
X0006272Y0188245D01*
X0006320Y0188385D01*
X0006373Y0188524D01*
X0006429Y0188661D01*
X0006489Y0188796D01*
X0006552Y0188930D01*
X0006619Y0189062D01*
X0006690Y0189192D01*
X0006764Y0189320D01*
X0006841Y0189446D01*
X0006922Y0189570D01*
X0007006Y0189692D01*
X0007093Y0189811D01*
X0007184Y0189928D01*
X0007278Y0190043D01*
X0007374Y0190155D01*
X0007474Y0190265D01*
X0007576Y0190371D01*
X0007682Y0190475D01*
X0007790Y0190576D01*
X0007901Y0190674D01*
X0008014Y0190770D01*
X0008130Y0190862D01*
X0008248Y0190951D01*
X0008369Y0191036D01*
X0008492Y0191119D01*
X0008617Y0191198D01*
X0008744Y0191274D01*
X0008873Y0191346D01*
X0009004Y0191415D01*
X0009137Y0191480D01*
X0009272Y0191541D01*
X0009408Y0191599D01*
X0009545Y0191654D01*
X0009684Y0191704D01*
X0009825Y0191751D01*
X0009966Y0191794D01*
X0010109Y0191834D01*
X0010253Y0191869D01*
X0010397Y0191901D01*
X0010543Y0191928D01*
X0010689Y0191952D01*
X0010836Y0191972D01*
X0010983Y0191988D01*
X0011130Y0192000D01*
X0011278Y0192008D01*
X0011426Y0192012D01*
X0011574Y0192012D01*
X0011722Y0192008D01*
X0011870Y0192000D01*
X0012017Y0191988D01*
X0012164Y0191972D01*
X0012311Y0191952D01*
X0012457Y0191928D01*
X0012603Y0191901D01*
X0012747Y0191869D01*
X0012891Y0191834D01*
X0013034Y0191794D01*
X0013175Y0191751D01*
X0013316Y0191704D01*
X0013455Y0191654D01*
X0013592Y0191599D01*
X0013728Y0191541D01*
X0013863Y0191480D01*
X0013996Y0191415D01*
X0014127Y0191346D01*
X0014256Y0191274D01*
X0014383Y0191198D01*
X0014508Y0191119D01*
X0014631Y0191036D01*
X0014752Y0190951D01*
X0014870Y0190862D01*
X0014986Y0190770D01*
X0015099Y0190674D01*
X0015210Y0190576D01*
X0015318Y0190475D01*
X0015424Y0190371D01*
X0015526Y0190265D01*
X0015626Y0190155D01*
X0015722Y0190043D01*
X0015816Y0189928D01*
X0015907Y0189811D01*
X0015994Y0189692D01*
X0016078Y0189570D01*
X0016159Y0189446D01*
X0016236Y0189320D01*
X0016310Y0189192D01*
X0016381Y0189062D01*
X0016448Y0188930D01*
X0016511Y0188796D01*
X0016571Y0188661D01*
X0016627Y0188524D01*
X0016680Y0188385D01*
X0016728Y0188245D01*
X0016773Y0188104D01*
X0016814Y0187962D01*
X0016852Y0187819D01*
X0016885Y0187675D01*
X0016915Y0187530D01*
X0016941Y0187384D01*
X0016962Y0187238D01*
X0016980Y0187091D01*
X0016994Y0186944D01*
X0017004Y0186796D01*
X0017010Y0186648D01*
X0017012Y0186500D01*
X0017010Y0186352D01*
X0017004Y0186204D01*
X0016994Y0186056D01*
X0016980Y0185909D01*
X0016962Y0185762D01*
X0016941Y0185616D01*
X0016915Y0185470D01*
X0016885Y0185325D01*
X0016852Y0185181D01*
X0016814Y0185038D01*
X0016773Y0184896D01*
X0016728Y0184755D01*
X0016680Y0184615D01*
X0016627Y0184476D01*
X0016571Y0184339D01*
X0016511Y0184204D01*
X0016448Y0184070D01*
X0016381Y0183938D01*
X0016310Y0183808D01*
X0016236Y0183680D01*
X0016159Y0183554D01*
X0016078Y0183430D01*
X0015994Y0183308D01*
X0015907Y0183189D01*
X0015816Y0183072D01*
X0015722Y0182957D01*
X0015626Y0182845D01*
X0015526Y0182735D01*
X0015424Y0182629D01*
X0015318Y0182525D01*
X0015210Y0182424D01*
X0015099Y0182326D01*
X0014986Y0182230D01*
X0014870Y0182138D01*
X0014752Y0182049D01*
X0014631Y0181964D01*
X0014508Y0181881D01*
X0014383Y0181802D01*
X0014256Y0181726D01*
X0014127Y0181654D01*
X0013996Y0181585D01*
X0013863Y0181520D01*
X0013728Y0181459D01*
X0013592Y0181401D01*
X0013455Y0181346D01*
X0013316Y0181296D01*
X0013175Y0181249D01*
X0013034Y0181206D01*
X0012891Y0181166D01*
X0012747Y0181131D01*
X0012603Y0181099D01*
X0012457Y0181072D01*
X0012311Y0181048D01*
X0012164Y0181028D01*
X0012017Y0181012D01*
X0011870Y0181000D01*
X0011722Y0180992D01*
X0011574Y0180988D01*
X0011426Y0180988D01*
X0011278Y0180992D01*
X0011130Y0181000D01*
X0010983Y0181012D01*
X0010836Y0181028D01*
X0010689Y0181048D01*
X0010543Y0181072D01*
X0010397Y0181099D01*
X0010253Y0181131D01*
X0010109Y0181166D01*
X0009966Y0181206D01*
X0009825Y0181249D01*
X0009684Y0181296D01*
X0009545Y0181346D01*
X0009408Y0181401D01*
X0009272Y0181459D01*
X0009137Y0181520D01*
X0009004Y0181585D01*
X0008873Y0181654D01*
X0008744Y0181726D01*
X0008617Y0181802D01*
X0008492Y0181881D01*
X0008369Y0181964D01*
X0008248Y0182049D01*
X0008130Y0182138D01*
X0008014Y0182230D01*
X0007901Y0182326D01*
X0007790Y0182424D01*
X0007682Y0182525D01*
X0007576Y0182629D01*
X0007474Y0182735D01*
X0007374Y0182845D01*
X0007278Y0182957D01*
X0007184Y0183072D01*
X0007093Y0183189D01*
X0007006Y0183308D01*
X0006922Y0183430D01*
X0006841Y0183554D01*
X0006764Y0183680D01*
X0006690Y0183808D01*
X0006619Y0183938D01*
X0006552Y0184070D01*
X0006489Y0184204D01*
X0006429Y0184339D01*
X0006373Y0184476D01*
X0006320Y0184615D01*
X0006272Y0184755D01*
X0006227Y0184896D01*
X0006186Y0185038D01*
X0006148Y0185181D01*
X0006115Y0185325D01*
X0006085Y0185470D01*
X0006059Y0185616D01*
X0006038Y0185762D01*
X0006020Y0185909D01*
X0006006Y0186056D01*
X0005996Y0186204D01*
X0005990Y0186352D01*
X0005988Y0186500D01*
X0350988Y0011500D02*
X0350990Y0011648D01*
X0350996Y0011796D01*
X0351006Y0011944D01*
X0351020Y0012091D01*
X0351038Y0012238D01*
X0351059Y0012384D01*
X0351085Y0012530D01*
X0351115Y0012675D01*
X0351148Y0012819D01*
X0351186Y0012962D01*
X0351227Y0013104D01*
X0351272Y0013245D01*
X0351320Y0013385D01*
X0351373Y0013524D01*
X0351429Y0013661D01*
X0351489Y0013796D01*
X0351552Y0013930D01*
X0351619Y0014062D01*
X0351690Y0014192D01*
X0351764Y0014320D01*
X0351841Y0014446D01*
X0351922Y0014570D01*
X0352006Y0014692D01*
X0352093Y0014811D01*
X0352184Y0014928D01*
X0352278Y0015043D01*
X0352374Y0015155D01*
X0352474Y0015265D01*
X0352576Y0015371D01*
X0352682Y0015475D01*
X0352790Y0015576D01*
X0352901Y0015674D01*
X0353014Y0015770D01*
X0353130Y0015862D01*
X0353248Y0015951D01*
X0353369Y0016036D01*
X0353492Y0016119D01*
X0353617Y0016198D01*
X0353744Y0016274D01*
X0353873Y0016346D01*
X0354004Y0016415D01*
X0354137Y0016480D01*
X0354272Y0016541D01*
X0354408Y0016599D01*
X0354545Y0016654D01*
X0354684Y0016704D01*
X0354825Y0016751D01*
X0354966Y0016794D01*
X0355109Y0016834D01*
X0355253Y0016869D01*
X0355397Y0016901D01*
X0355543Y0016928D01*
X0355689Y0016952D01*
X0355836Y0016972D01*
X0355983Y0016988D01*
X0356130Y0017000D01*
X0356278Y0017008D01*
X0356426Y0017012D01*
X0356574Y0017012D01*
X0356722Y0017008D01*
X0356870Y0017000D01*
X0357017Y0016988D01*
X0357164Y0016972D01*
X0357311Y0016952D01*
X0357457Y0016928D01*
X0357603Y0016901D01*
X0357747Y0016869D01*
X0357891Y0016834D01*
X0358034Y0016794D01*
X0358175Y0016751D01*
X0358316Y0016704D01*
X0358455Y0016654D01*
X0358592Y0016599D01*
X0358728Y0016541D01*
X0358863Y0016480D01*
X0358996Y0016415D01*
X0359127Y0016346D01*
X0359256Y0016274D01*
X0359383Y0016198D01*
X0359508Y0016119D01*
X0359631Y0016036D01*
X0359752Y0015951D01*
X0359870Y0015862D01*
X0359986Y0015770D01*
X0360099Y0015674D01*
X0360210Y0015576D01*
X0360318Y0015475D01*
X0360424Y0015371D01*
X0360526Y0015265D01*
X0360626Y0015155D01*
X0360722Y0015043D01*
X0360816Y0014928D01*
X0360907Y0014811D01*
X0360994Y0014692D01*
X0361078Y0014570D01*
X0361159Y0014446D01*
X0361236Y0014320D01*
X0361310Y0014192D01*
X0361381Y0014062D01*
X0361448Y0013930D01*
X0361511Y0013796D01*
X0361571Y0013661D01*
X0361627Y0013524D01*
X0361680Y0013385D01*
X0361728Y0013245D01*
X0361773Y0013104D01*
X0361814Y0012962D01*
X0361852Y0012819D01*
X0361885Y0012675D01*
X0361915Y0012530D01*
X0361941Y0012384D01*
X0361962Y0012238D01*
X0361980Y0012091D01*
X0361994Y0011944D01*
X0362004Y0011796D01*
X0362010Y0011648D01*
X0362012Y0011500D01*
X0362010Y0011352D01*
X0362004Y0011204D01*
X0361994Y0011056D01*
X0361980Y0010909D01*
X0361962Y0010762D01*
X0361941Y0010616D01*
X0361915Y0010470D01*
X0361885Y0010325D01*
X0361852Y0010181D01*
X0361814Y0010038D01*
X0361773Y0009896D01*
X0361728Y0009755D01*
X0361680Y0009615D01*
X0361627Y0009476D01*
X0361571Y0009339D01*
X0361511Y0009204D01*
X0361448Y0009070D01*
X0361381Y0008938D01*
X0361310Y0008808D01*
X0361236Y0008680D01*
X0361159Y0008554D01*
X0361078Y0008430D01*
X0360994Y0008308D01*
X0360907Y0008189D01*
X0360816Y0008072D01*
X0360722Y0007957D01*
X0360626Y0007845D01*
X0360526Y0007735D01*
X0360424Y0007629D01*
X0360318Y0007525D01*
X0360210Y0007424D01*
X0360099Y0007326D01*
X0359986Y0007230D01*
X0359870Y0007138D01*
X0359752Y0007049D01*
X0359631Y0006964D01*
X0359508Y0006881D01*
X0359383Y0006802D01*
X0359256Y0006726D01*
X0359127Y0006654D01*
X0358996Y0006585D01*
X0358863Y0006520D01*
X0358728Y0006459D01*
X0358592Y0006401D01*
X0358455Y0006346D01*
X0358316Y0006296D01*
X0358175Y0006249D01*
X0358034Y0006206D01*
X0357891Y0006166D01*
X0357747Y0006131D01*
X0357603Y0006099D01*
X0357457Y0006072D01*
X0357311Y0006048D01*
X0357164Y0006028D01*
X0357017Y0006012D01*
X0356870Y0006000D01*
X0356722Y0005992D01*
X0356574Y0005988D01*
X0356426Y0005988D01*
X0356278Y0005992D01*
X0356130Y0006000D01*
X0355983Y0006012D01*
X0355836Y0006028D01*
X0355689Y0006048D01*
X0355543Y0006072D01*
X0355397Y0006099D01*
X0355253Y0006131D01*
X0355109Y0006166D01*
X0354966Y0006206D01*
X0354825Y0006249D01*
X0354684Y0006296D01*
X0354545Y0006346D01*
X0354408Y0006401D01*
X0354272Y0006459D01*
X0354137Y0006520D01*
X0354004Y0006585D01*
X0353873Y0006654D01*
X0353744Y0006726D01*
X0353617Y0006802D01*
X0353492Y0006881D01*
X0353369Y0006964D01*
X0353248Y0007049D01*
X0353130Y0007138D01*
X0353014Y0007230D01*
X0352901Y0007326D01*
X0352790Y0007424D01*
X0352682Y0007525D01*
X0352576Y0007629D01*
X0352474Y0007735D01*
X0352374Y0007845D01*
X0352278Y0007957D01*
X0352184Y0008072D01*
X0352093Y0008189D01*
X0352006Y0008308D01*
X0351922Y0008430D01*
X0351841Y0008554D01*
X0351764Y0008680D01*
X0351690Y0008808D01*
X0351619Y0008938D01*
X0351552Y0009070D01*
X0351489Y0009204D01*
X0351429Y0009339D01*
X0351373Y0009476D01*
X0351320Y0009615D01*
X0351272Y0009755D01*
X0351227Y0009896D01*
X0351186Y0010038D01*
X0351148Y0010181D01*
X0351115Y0010325D01*
X0351085Y0010470D01*
X0351059Y0010616D01*
X0351038Y0010762D01*
X0351020Y0010909D01*
X0351006Y0011056D01*
X0350996Y0011204D01*
X0350990Y0011352D01*
X0350988Y0011500D01*
M02*
