G75*
%MOIN*%
%OFA0B0*%
%FSLAX25Y25*%
%IPPOS*%
%LPD*%
%AMOC8*
5,1,8,0,0,1.08239X$1,22.5*
%
%ADD10C,0.00000*%
%ADD11C,0.06600*%
%ADD12OC8,0.05200*%
%ADD13C,0.05543*%
%ADD14R,0.09500X0.09500*%
%ADD15C,0.09500*%
%ADD16C,0.05200*%
%ADD17C,0.07400*%
%ADD18R,0.06000X0.06000*%
%ADD19R,0.08000X0.08000*%
%ADD20C,0.08000*%
%ADD21C,0.04356*%
%ADD22C,0.04000*%
%ADD23C,0.01600*%
%ADD24C,0.02400*%
%ADD25C,0.01000*%
%ADD26C,0.07000*%
%ADD27C,0.05000*%
D10*
X0001500Y0001500D02*
X0076500Y0001500D01*
X0076500Y0031500D01*
X0146500Y0031500D01*
X0146500Y0001500D01*
X0366500Y0001500D01*
X0366500Y0198350D01*
X0001500Y0198350D01*
X0001500Y0001500D01*
X0005988Y0011500D02*
X0005990Y0011648D01*
X0005996Y0011796D01*
X0006006Y0011944D01*
X0006020Y0012091D01*
X0006038Y0012238D01*
X0006059Y0012384D01*
X0006085Y0012530D01*
X0006115Y0012675D01*
X0006148Y0012819D01*
X0006186Y0012962D01*
X0006227Y0013104D01*
X0006272Y0013245D01*
X0006320Y0013385D01*
X0006373Y0013524D01*
X0006429Y0013661D01*
X0006489Y0013796D01*
X0006552Y0013930D01*
X0006619Y0014062D01*
X0006690Y0014192D01*
X0006764Y0014320D01*
X0006841Y0014446D01*
X0006922Y0014570D01*
X0007006Y0014692D01*
X0007093Y0014811D01*
X0007184Y0014928D01*
X0007278Y0015043D01*
X0007374Y0015155D01*
X0007474Y0015265D01*
X0007576Y0015371D01*
X0007682Y0015475D01*
X0007790Y0015576D01*
X0007901Y0015674D01*
X0008014Y0015770D01*
X0008130Y0015862D01*
X0008248Y0015951D01*
X0008369Y0016036D01*
X0008492Y0016119D01*
X0008617Y0016198D01*
X0008744Y0016274D01*
X0008873Y0016346D01*
X0009004Y0016415D01*
X0009137Y0016480D01*
X0009272Y0016541D01*
X0009408Y0016599D01*
X0009545Y0016654D01*
X0009684Y0016704D01*
X0009825Y0016751D01*
X0009966Y0016794D01*
X0010109Y0016834D01*
X0010253Y0016869D01*
X0010397Y0016901D01*
X0010543Y0016928D01*
X0010689Y0016952D01*
X0010836Y0016972D01*
X0010983Y0016988D01*
X0011130Y0017000D01*
X0011278Y0017008D01*
X0011426Y0017012D01*
X0011574Y0017012D01*
X0011722Y0017008D01*
X0011870Y0017000D01*
X0012017Y0016988D01*
X0012164Y0016972D01*
X0012311Y0016952D01*
X0012457Y0016928D01*
X0012603Y0016901D01*
X0012747Y0016869D01*
X0012891Y0016834D01*
X0013034Y0016794D01*
X0013175Y0016751D01*
X0013316Y0016704D01*
X0013455Y0016654D01*
X0013592Y0016599D01*
X0013728Y0016541D01*
X0013863Y0016480D01*
X0013996Y0016415D01*
X0014127Y0016346D01*
X0014256Y0016274D01*
X0014383Y0016198D01*
X0014508Y0016119D01*
X0014631Y0016036D01*
X0014752Y0015951D01*
X0014870Y0015862D01*
X0014986Y0015770D01*
X0015099Y0015674D01*
X0015210Y0015576D01*
X0015318Y0015475D01*
X0015424Y0015371D01*
X0015526Y0015265D01*
X0015626Y0015155D01*
X0015722Y0015043D01*
X0015816Y0014928D01*
X0015907Y0014811D01*
X0015994Y0014692D01*
X0016078Y0014570D01*
X0016159Y0014446D01*
X0016236Y0014320D01*
X0016310Y0014192D01*
X0016381Y0014062D01*
X0016448Y0013930D01*
X0016511Y0013796D01*
X0016571Y0013661D01*
X0016627Y0013524D01*
X0016680Y0013385D01*
X0016728Y0013245D01*
X0016773Y0013104D01*
X0016814Y0012962D01*
X0016852Y0012819D01*
X0016885Y0012675D01*
X0016915Y0012530D01*
X0016941Y0012384D01*
X0016962Y0012238D01*
X0016980Y0012091D01*
X0016994Y0011944D01*
X0017004Y0011796D01*
X0017010Y0011648D01*
X0017012Y0011500D01*
X0017010Y0011352D01*
X0017004Y0011204D01*
X0016994Y0011056D01*
X0016980Y0010909D01*
X0016962Y0010762D01*
X0016941Y0010616D01*
X0016915Y0010470D01*
X0016885Y0010325D01*
X0016852Y0010181D01*
X0016814Y0010038D01*
X0016773Y0009896D01*
X0016728Y0009755D01*
X0016680Y0009615D01*
X0016627Y0009476D01*
X0016571Y0009339D01*
X0016511Y0009204D01*
X0016448Y0009070D01*
X0016381Y0008938D01*
X0016310Y0008808D01*
X0016236Y0008680D01*
X0016159Y0008554D01*
X0016078Y0008430D01*
X0015994Y0008308D01*
X0015907Y0008189D01*
X0015816Y0008072D01*
X0015722Y0007957D01*
X0015626Y0007845D01*
X0015526Y0007735D01*
X0015424Y0007629D01*
X0015318Y0007525D01*
X0015210Y0007424D01*
X0015099Y0007326D01*
X0014986Y0007230D01*
X0014870Y0007138D01*
X0014752Y0007049D01*
X0014631Y0006964D01*
X0014508Y0006881D01*
X0014383Y0006802D01*
X0014256Y0006726D01*
X0014127Y0006654D01*
X0013996Y0006585D01*
X0013863Y0006520D01*
X0013728Y0006459D01*
X0013592Y0006401D01*
X0013455Y0006346D01*
X0013316Y0006296D01*
X0013175Y0006249D01*
X0013034Y0006206D01*
X0012891Y0006166D01*
X0012747Y0006131D01*
X0012603Y0006099D01*
X0012457Y0006072D01*
X0012311Y0006048D01*
X0012164Y0006028D01*
X0012017Y0006012D01*
X0011870Y0006000D01*
X0011722Y0005992D01*
X0011574Y0005988D01*
X0011426Y0005988D01*
X0011278Y0005992D01*
X0011130Y0006000D01*
X0010983Y0006012D01*
X0010836Y0006028D01*
X0010689Y0006048D01*
X0010543Y0006072D01*
X0010397Y0006099D01*
X0010253Y0006131D01*
X0010109Y0006166D01*
X0009966Y0006206D01*
X0009825Y0006249D01*
X0009684Y0006296D01*
X0009545Y0006346D01*
X0009408Y0006401D01*
X0009272Y0006459D01*
X0009137Y0006520D01*
X0009004Y0006585D01*
X0008873Y0006654D01*
X0008744Y0006726D01*
X0008617Y0006802D01*
X0008492Y0006881D01*
X0008369Y0006964D01*
X0008248Y0007049D01*
X0008130Y0007138D01*
X0008014Y0007230D01*
X0007901Y0007326D01*
X0007790Y0007424D01*
X0007682Y0007525D01*
X0007576Y0007629D01*
X0007474Y0007735D01*
X0007374Y0007845D01*
X0007278Y0007957D01*
X0007184Y0008072D01*
X0007093Y0008189D01*
X0007006Y0008308D01*
X0006922Y0008430D01*
X0006841Y0008554D01*
X0006764Y0008680D01*
X0006690Y0008808D01*
X0006619Y0008938D01*
X0006552Y0009070D01*
X0006489Y0009204D01*
X0006429Y0009339D01*
X0006373Y0009476D01*
X0006320Y0009615D01*
X0006272Y0009755D01*
X0006227Y0009896D01*
X0006186Y0010038D01*
X0006148Y0010181D01*
X0006115Y0010325D01*
X0006085Y0010470D01*
X0006059Y0010616D01*
X0006038Y0010762D01*
X0006020Y0010909D01*
X0006006Y0011056D01*
X0005996Y0011204D01*
X0005990Y0011352D01*
X0005988Y0011500D01*
X0005988Y0186500D02*
X0005990Y0186648D01*
X0005996Y0186796D01*
X0006006Y0186944D01*
X0006020Y0187091D01*
X0006038Y0187238D01*
X0006059Y0187384D01*
X0006085Y0187530D01*
X0006115Y0187675D01*
X0006148Y0187819D01*
X0006186Y0187962D01*
X0006227Y0188104D01*
X0006272Y0188245D01*
X0006320Y0188385D01*
X0006373Y0188524D01*
X0006429Y0188661D01*
X0006489Y0188796D01*
X0006552Y0188930D01*
X0006619Y0189062D01*
X0006690Y0189192D01*
X0006764Y0189320D01*
X0006841Y0189446D01*
X0006922Y0189570D01*
X0007006Y0189692D01*
X0007093Y0189811D01*
X0007184Y0189928D01*
X0007278Y0190043D01*
X0007374Y0190155D01*
X0007474Y0190265D01*
X0007576Y0190371D01*
X0007682Y0190475D01*
X0007790Y0190576D01*
X0007901Y0190674D01*
X0008014Y0190770D01*
X0008130Y0190862D01*
X0008248Y0190951D01*
X0008369Y0191036D01*
X0008492Y0191119D01*
X0008617Y0191198D01*
X0008744Y0191274D01*
X0008873Y0191346D01*
X0009004Y0191415D01*
X0009137Y0191480D01*
X0009272Y0191541D01*
X0009408Y0191599D01*
X0009545Y0191654D01*
X0009684Y0191704D01*
X0009825Y0191751D01*
X0009966Y0191794D01*
X0010109Y0191834D01*
X0010253Y0191869D01*
X0010397Y0191901D01*
X0010543Y0191928D01*
X0010689Y0191952D01*
X0010836Y0191972D01*
X0010983Y0191988D01*
X0011130Y0192000D01*
X0011278Y0192008D01*
X0011426Y0192012D01*
X0011574Y0192012D01*
X0011722Y0192008D01*
X0011870Y0192000D01*
X0012017Y0191988D01*
X0012164Y0191972D01*
X0012311Y0191952D01*
X0012457Y0191928D01*
X0012603Y0191901D01*
X0012747Y0191869D01*
X0012891Y0191834D01*
X0013034Y0191794D01*
X0013175Y0191751D01*
X0013316Y0191704D01*
X0013455Y0191654D01*
X0013592Y0191599D01*
X0013728Y0191541D01*
X0013863Y0191480D01*
X0013996Y0191415D01*
X0014127Y0191346D01*
X0014256Y0191274D01*
X0014383Y0191198D01*
X0014508Y0191119D01*
X0014631Y0191036D01*
X0014752Y0190951D01*
X0014870Y0190862D01*
X0014986Y0190770D01*
X0015099Y0190674D01*
X0015210Y0190576D01*
X0015318Y0190475D01*
X0015424Y0190371D01*
X0015526Y0190265D01*
X0015626Y0190155D01*
X0015722Y0190043D01*
X0015816Y0189928D01*
X0015907Y0189811D01*
X0015994Y0189692D01*
X0016078Y0189570D01*
X0016159Y0189446D01*
X0016236Y0189320D01*
X0016310Y0189192D01*
X0016381Y0189062D01*
X0016448Y0188930D01*
X0016511Y0188796D01*
X0016571Y0188661D01*
X0016627Y0188524D01*
X0016680Y0188385D01*
X0016728Y0188245D01*
X0016773Y0188104D01*
X0016814Y0187962D01*
X0016852Y0187819D01*
X0016885Y0187675D01*
X0016915Y0187530D01*
X0016941Y0187384D01*
X0016962Y0187238D01*
X0016980Y0187091D01*
X0016994Y0186944D01*
X0017004Y0186796D01*
X0017010Y0186648D01*
X0017012Y0186500D01*
X0017010Y0186352D01*
X0017004Y0186204D01*
X0016994Y0186056D01*
X0016980Y0185909D01*
X0016962Y0185762D01*
X0016941Y0185616D01*
X0016915Y0185470D01*
X0016885Y0185325D01*
X0016852Y0185181D01*
X0016814Y0185038D01*
X0016773Y0184896D01*
X0016728Y0184755D01*
X0016680Y0184615D01*
X0016627Y0184476D01*
X0016571Y0184339D01*
X0016511Y0184204D01*
X0016448Y0184070D01*
X0016381Y0183938D01*
X0016310Y0183808D01*
X0016236Y0183680D01*
X0016159Y0183554D01*
X0016078Y0183430D01*
X0015994Y0183308D01*
X0015907Y0183189D01*
X0015816Y0183072D01*
X0015722Y0182957D01*
X0015626Y0182845D01*
X0015526Y0182735D01*
X0015424Y0182629D01*
X0015318Y0182525D01*
X0015210Y0182424D01*
X0015099Y0182326D01*
X0014986Y0182230D01*
X0014870Y0182138D01*
X0014752Y0182049D01*
X0014631Y0181964D01*
X0014508Y0181881D01*
X0014383Y0181802D01*
X0014256Y0181726D01*
X0014127Y0181654D01*
X0013996Y0181585D01*
X0013863Y0181520D01*
X0013728Y0181459D01*
X0013592Y0181401D01*
X0013455Y0181346D01*
X0013316Y0181296D01*
X0013175Y0181249D01*
X0013034Y0181206D01*
X0012891Y0181166D01*
X0012747Y0181131D01*
X0012603Y0181099D01*
X0012457Y0181072D01*
X0012311Y0181048D01*
X0012164Y0181028D01*
X0012017Y0181012D01*
X0011870Y0181000D01*
X0011722Y0180992D01*
X0011574Y0180988D01*
X0011426Y0180988D01*
X0011278Y0180992D01*
X0011130Y0181000D01*
X0010983Y0181012D01*
X0010836Y0181028D01*
X0010689Y0181048D01*
X0010543Y0181072D01*
X0010397Y0181099D01*
X0010253Y0181131D01*
X0010109Y0181166D01*
X0009966Y0181206D01*
X0009825Y0181249D01*
X0009684Y0181296D01*
X0009545Y0181346D01*
X0009408Y0181401D01*
X0009272Y0181459D01*
X0009137Y0181520D01*
X0009004Y0181585D01*
X0008873Y0181654D01*
X0008744Y0181726D01*
X0008617Y0181802D01*
X0008492Y0181881D01*
X0008369Y0181964D01*
X0008248Y0182049D01*
X0008130Y0182138D01*
X0008014Y0182230D01*
X0007901Y0182326D01*
X0007790Y0182424D01*
X0007682Y0182525D01*
X0007576Y0182629D01*
X0007474Y0182735D01*
X0007374Y0182845D01*
X0007278Y0182957D01*
X0007184Y0183072D01*
X0007093Y0183189D01*
X0007006Y0183308D01*
X0006922Y0183430D01*
X0006841Y0183554D01*
X0006764Y0183680D01*
X0006690Y0183808D01*
X0006619Y0183938D01*
X0006552Y0184070D01*
X0006489Y0184204D01*
X0006429Y0184339D01*
X0006373Y0184476D01*
X0006320Y0184615D01*
X0006272Y0184755D01*
X0006227Y0184896D01*
X0006186Y0185038D01*
X0006148Y0185181D01*
X0006115Y0185325D01*
X0006085Y0185470D01*
X0006059Y0185616D01*
X0006038Y0185762D01*
X0006020Y0185909D01*
X0006006Y0186056D01*
X0005996Y0186204D01*
X0005990Y0186352D01*
X0005988Y0186500D01*
X0350988Y0011500D02*
X0350990Y0011648D01*
X0350996Y0011796D01*
X0351006Y0011944D01*
X0351020Y0012091D01*
X0351038Y0012238D01*
X0351059Y0012384D01*
X0351085Y0012530D01*
X0351115Y0012675D01*
X0351148Y0012819D01*
X0351186Y0012962D01*
X0351227Y0013104D01*
X0351272Y0013245D01*
X0351320Y0013385D01*
X0351373Y0013524D01*
X0351429Y0013661D01*
X0351489Y0013796D01*
X0351552Y0013930D01*
X0351619Y0014062D01*
X0351690Y0014192D01*
X0351764Y0014320D01*
X0351841Y0014446D01*
X0351922Y0014570D01*
X0352006Y0014692D01*
X0352093Y0014811D01*
X0352184Y0014928D01*
X0352278Y0015043D01*
X0352374Y0015155D01*
X0352474Y0015265D01*
X0352576Y0015371D01*
X0352682Y0015475D01*
X0352790Y0015576D01*
X0352901Y0015674D01*
X0353014Y0015770D01*
X0353130Y0015862D01*
X0353248Y0015951D01*
X0353369Y0016036D01*
X0353492Y0016119D01*
X0353617Y0016198D01*
X0353744Y0016274D01*
X0353873Y0016346D01*
X0354004Y0016415D01*
X0354137Y0016480D01*
X0354272Y0016541D01*
X0354408Y0016599D01*
X0354545Y0016654D01*
X0354684Y0016704D01*
X0354825Y0016751D01*
X0354966Y0016794D01*
X0355109Y0016834D01*
X0355253Y0016869D01*
X0355397Y0016901D01*
X0355543Y0016928D01*
X0355689Y0016952D01*
X0355836Y0016972D01*
X0355983Y0016988D01*
X0356130Y0017000D01*
X0356278Y0017008D01*
X0356426Y0017012D01*
X0356574Y0017012D01*
X0356722Y0017008D01*
X0356870Y0017000D01*
X0357017Y0016988D01*
X0357164Y0016972D01*
X0357311Y0016952D01*
X0357457Y0016928D01*
X0357603Y0016901D01*
X0357747Y0016869D01*
X0357891Y0016834D01*
X0358034Y0016794D01*
X0358175Y0016751D01*
X0358316Y0016704D01*
X0358455Y0016654D01*
X0358592Y0016599D01*
X0358728Y0016541D01*
X0358863Y0016480D01*
X0358996Y0016415D01*
X0359127Y0016346D01*
X0359256Y0016274D01*
X0359383Y0016198D01*
X0359508Y0016119D01*
X0359631Y0016036D01*
X0359752Y0015951D01*
X0359870Y0015862D01*
X0359986Y0015770D01*
X0360099Y0015674D01*
X0360210Y0015576D01*
X0360318Y0015475D01*
X0360424Y0015371D01*
X0360526Y0015265D01*
X0360626Y0015155D01*
X0360722Y0015043D01*
X0360816Y0014928D01*
X0360907Y0014811D01*
X0360994Y0014692D01*
X0361078Y0014570D01*
X0361159Y0014446D01*
X0361236Y0014320D01*
X0361310Y0014192D01*
X0361381Y0014062D01*
X0361448Y0013930D01*
X0361511Y0013796D01*
X0361571Y0013661D01*
X0361627Y0013524D01*
X0361680Y0013385D01*
X0361728Y0013245D01*
X0361773Y0013104D01*
X0361814Y0012962D01*
X0361852Y0012819D01*
X0361885Y0012675D01*
X0361915Y0012530D01*
X0361941Y0012384D01*
X0361962Y0012238D01*
X0361980Y0012091D01*
X0361994Y0011944D01*
X0362004Y0011796D01*
X0362010Y0011648D01*
X0362012Y0011500D01*
X0362010Y0011352D01*
X0362004Y0011204D01*
X0361994Y0011056D01*
X0361980Y0010909D01*
X0361962Y0010762D01*
X0361941Y0010616D01*
X0361915Y0010470D01*
X0361885Y0010325D01*
X0361852Y0010181D01*
X0361814Y0010038D01*
X0361773Y0009896D01*
X0361728Y0009755D01*
X0361680Y0009615D01*
X0361627Y0009476D01*
X0361571Y0009339D01*
X0361511Y0009204D01*
X0361448Y0009070D01*
X0361381Y0008938D01*
X0361310Y0008808D01*
X0361236Y0008680D01*
X0361159Y0008554D01*
X0361078Y0008430D01*
X0360994Y0008308D01*
X0360907Y0008189D01*
X0360816Y0008072D01*
X0360722Y0007957D01*
X0360626Y0007845D01*
X0360526Y0007735D01*
X0360424Y0007629D01*
X0360318Y0007525D01*
X0360210Y0007424D01*
X0360099Y0007326D01*
X0359986Y0007230D01*
X0359870Y0007138D01*
X0359752Y0007049D01*
X0359631Y0006964D01*
X0359508Y0006881D01*
X0359383Y0006802D01*
X0359256Y0006726D01*
X0359127Y0006654D01*
X0358996Y0006585D01*
X0358863Y0006520D01*
X0358728Y0006459D01*
X0358592Y0006401D01*
X0358455Y0006346D01*
X0358316Y0006296D01*
X0358175Y0006249D01*
X0358034Y0006206D01*
X0357891Y0006166D01*
X0357747Y0006131D01*
X0357603Y0006099D01*
X0357457Y0006072D01*
X0357311Y0006048D01*
X0357164Y0006028D01*
X0357017Y0006012D01*
X0356870Y0006000D01*
X0356722Y0005992D01*
X0356574Y0005988D01*
X0356426Y0005988D01*
X0356278Y0005992D01*
X0356130Y0006000D01*
X0355983Y0006012D01*
X0355836Y0006028D01*
X0355689Y0006048D01*
X0355543Y0006072D01*
X0355397Y0006099D01*
X0355253Y0006131D01*
X0355109Y0006166D01*
X0354966Y0006206D01*
X0354825Y0006249D01*
X0354684Y0006296D01*
X0354545Y0006346D01*
X0354408Y0006401D01*
X0354272Y0006459D01*
X0354137Y0006520D01*
X0354004Y0006585D01*
X0353873Y0006654D01*
X0353744Y0006726D01*
X0353617Y0006802D01*
X0353492Y0006881D01*
X0353369Y0006964D01*
X0353248Y0007049D01*
X0353130Y0007138D01*
X0353014Y0007230D01*
X0352901Y0007326D01*
X0352790Y0007424D01*
X0352682Y0007525D01*
X0352576Y0007629D01*
X0352474Y0007735D01*
X0352374Y0007845D01*
X0352278Y0007957D01*
X0352184Y0008072D01*
X0352093Y0008189D01*
X0352006Y0008308D01*
X0351922Y0008430D01*
X0351841Y0008554D01*
X0351764Y0008680D01*
X0351690Y0008808D01*
X0351619Y0008938D01*
X0351552Y0009070D01*
X0351489Y0009204D01*
X0351429Y0009339D01*
X0351373Y0009476D01*
X0351320Y0009615D01*
X0351272Y0009755D01*
X0351227Y0009896D01*
X0351186Y0010038D01*
X0351148Y0010181D01*
X0351115Y0010325D01*
X0351085Y0010470D01*
X0351059Y0010616D01*
X0351038Y0010762D01*
X0351020Y0010909D01*
X0351006Y0011056D01*
X0350996Y0011204D01*
X0350990Y0011352D01*
X0350988Y0011500D01*
D11*
X0281500Y0046500D03*
X0281500Y0056500D03*
X0281500Y0066500D03*
X0281500Y0076500D03*
X0281500Y0086500D03*
X0281500Y0096500D03*
X0281500Y0106500D03*
X0281500Y0116500D03*
X0281500Y0126500D03*
X0281500Y0136500D03*
X0281500Y0146500D03*
X0281500Y0156500D03*
X0206500Y0151500D03*
X0206500Y0141500D03*
X0206500Y0131500D03*
X0206500Y0121500D03*
X0176500Y0116500D03*
X0176500Y0106500D03*
X0176500Y0096500D03*
X0176500Y0086500D03*
X0176500Y0076500D03*
X0176500Y0066500D03*
X0176500Y0056500D03*
X0176500Y0046500D03*
X0156500Y0050500D03*
X0156500Y0060500D03*
X0156500Y0070500D03*
X0156500Y0080500D03*
X0156500Y0090500D03*
X0156500Y0100500D03*
X0156500Y0110500D03*
X0156500Y0120500D03*
X0156500Y0130500D03*
X0156500Y0140500D03*
X0156500Y0150500D03*
X0156500Y0160500D03*
X0156500Y0170500D03*
X0156500Y0180500D03*
X0156500Y0190500D03*
X0206500Y0171500D03*
X0206500Y0161500D03*
X0176500Y0156500D03*
X0176500Y0146500D03*
X0176500Y0136500D03*
X0176500Y0126500D03*
X0066500Y0130500D03*
X0066500Y0120500D03*
X0066500Y0110500D03*
X0066500Y0100500D03*
X0066500Y0090500D03*
X0066500Y0080500D03*
X0066500Y0070500D03*
X0066500Y0060500D03*
X0066500Y0050500D03*
X0066500Y0040500D03*
X0066500Y0030500D03*
X0066500Y0020500D03*
X0066500Y0010500D03*
X0156500Y0010500D03*
X0156500Y0020500D03*
X0156500Y0030500D03*
X0156500Y0040500D03*
X0066500Y0140500D03*
X0066500Y0150500D03*
X0066500Y0160500D03*
X0066500Y0170500D03*
X0066500Y0180500D03*
X0066500Y0190500D03*
D12*
X0196500Y0061500D03*
X0216500Y0061500D03*
X0236500Y0061500D03*
X0256500Y0061500D03*
X0301500Y0051500D03*
X0309000Y0051500D03*
X0316500Y0046500D03*
X0316500Y0056500D03*
X0256500Y0031500D03*
X0236500Y0031500D03*
X0216500Y0031500D03*
X0196500Y0031500D03*
X0301500Y0021500D03*
D13*
X0331972Y0092406D03*
X0308350Y0100280D03*
X0355594Y0100280D03*
X0355594Y0147524D03*
X0308350Y0147524D03*
D14*
X0351500Y0181500D03*
D15*
X0331815Y0181500D03*
X0312130Y0181500D03*
D16*
X0313900Y0071500D02*
X0319100Y0071500D01*
X0343900Y0071500D02*
X0349100Y0071500D01*
D17*
X0266500Y0021500D03*
X0256500Y0021500D03*
X0246500Y0021500D03*
X0236500Y0021500D03*
X0226500Y0021500D03*
X0216500Y0021500D03*
X0206500Y0021500D03*
X0196500Y0021500D03*
D18*
X0041500Y0016500D03*
X0031500Y0016500D03*
D19*
X0011500Y0046500D03*
D20*
X0025280Y0046500D03*
X0039059Y0046500D03*
X0052839Y0046500D03*
D21*
X0096500Y0051500D03*
X0111500Y0076500D03*
X0116500Y0081500D03*
X0122500Y0085500D03*
X0123500Y0095500D03*
X0132500Y0115500D03*
X0181500Y0111500D03*
X0181500Y0151500D03*
X0226500Y0046500D03*
D22*
X0186500Y0046500D01*
X0181500Y0041500D01*
X0181500Y0016500D01*
X0175500Y0010500D01*
X0156500Y0010500D01*
X0181500Y0051500D02*
X0276500Y0051500D01*
X0281500Y0046500D01*
X0256500Y0061500D02*
X0246500Y0071500D01*
X0181500Y0071500D01*
X0176500Y0076500D02*
X0171500Y0076500D01*
X0161500Y0085500D01*
X0151500Y0085500D02*
X0122500Y0085500D01*
X0116500Y0081500D02*
X0122500Y0075500D01*
X0151500Y0075500D01*
X0161500Y0095500D02*
X0171500Y0086500D01*
X0176500Y0086500D01*
X0151500Y0095500D02*
X0123500Y0095500D01*
X0121500Y0105500D02*
X0151500Y0105500D01*
X0121500Y0105500D02*
X0096500Y0081500D01*
X0096500Y0051500D01*
X0111500Y0076500D02*
X0132500Y0055500D01*
X0151500Y0055500D01*
X0181500Y0111500D02*
X0266500Y0111500D01*
X0271500Y0116500D01*
X0271500Y0151500D01*
X0276500Y0156500D01*
X0281500Y0156500D01*
X0206500Y0161500D02*
X0196500Y0161500D01*
X0190500Y0165500D01*
X0161500Y0165500D01*
X0151500Y0165500D02*
X0141500Y0150500D01*
X0066500Y0150500D01*
X0181500Y0151500D02*
X0191500Y0141500D01*
X0206500Y0141500D01*
D23*
X0161500Y0165500D02*
X0151500Y0165500D01*
X0166500Y0115500D02*
X0132500Y0115500D01*
X0151500Y0105500D02*
X0166500Y0105500D01*
X0171500Y0101500D01*
X0181500Y0101500D01*
X0181500Y0111500D02*
X0171500Y0111500D01*
X0166500Y0115500D01*
X0161500Y0095500D02*
X0151500Y0095500D01*
X0151500Y0085500D02*
X0161500Y0085500D01*
X0161500Y0075500D02*
X0151500Y0075500D01*
X0161500Y0075500D02*
X0166500Y0071500D01*
X0181500Y0071500D01*
X0161500Y0055500D02*
X0151500Y0055500D01*
X0171500Y0051500D02*
X0181500Y0051500D01*
D24*
X0171500Y0051500D02*
X0161500Y0055500D01*
D25*
X0160144Y0057639D02*
X0160400Y0057894D01*
X0161100Y0059585D01*
X0161100Y0061415D01*
X0160400Y0063106D01*
X0159106Y0064400D01*
X0157415Y0065100D01*
X0155585Y0065100D01*
X0153894Y0064400D01*
X0152600Y0063106D01*
X0151900Y0061415D01*
X0151900Y0059585D01*
X0152239Y0058766D01*
X0152156Y0058800D01*
X0133867Y0058800D01*
X0114626Y0078040D01*
X0114448Y0078470D01*
X0113470Y0079448D01*
X0112192Y0079978D01*
X0110808Y0079978D01*
X0109530Y0079448D01*
X0108552Y0078470D01*
X0108022Y0077192D01*
X0108022Y0075808D01*
X0108552Y0074530D01*
X0109530Y0073552D01*
X0109960Y0073374D01*
X0129702Y0053631D01*
X0130631Y0052702D01*
X0131844Y0052200D01*
X0152156Y0052200D01*
X0152239Y0052234D01*
X0151900Y0051415D01*
X0151900Y0049585D01*
X0152600Y0047894D01*
X0153894Y0046600D01*
X0155585Y0045900D01*
X0157415Y0045900D01*
X0159106Y0046600D01*
X0160400Y0047894D01*
X0161100Y0049585D01*
X0161100Y0051415D01*
X0160400Y0053106D01*
X0160163Y0053342D01*
X0171033Y0048994D01*
X0172028Y0049006D01*
X0172856Y0049361D01*
X0172600Y0049106D01*
X0171900Y0047415D01*
X0171900Y0045585D01*
X0172600Y0043894D01*
X0173894Y0042600D01*
X0175585Y0041900D01*
X0177415Y0041900D01*
X0178234Y0042239D01*
X0178200Y0042156D01*
X0178200Y0017867D01*
X0174133Y0013800D01*
X0159705Y0013800D01*
X0159106Y0014400D01*
X0157415Y0015100D01*
X0155585Y0015100D01*
X0153894Y0014400D01*
X0152600Y0013106D01*
X0151900Y0011415D01*
X0151900Y0009585D01*
X0152600Y0007894D01*
X0153894Y0006600D01*
X0155344Y0006000D01*
X0151500Y0006000D01*
X0151500Y0036500D01*
X0071500Y0036500D01*
X0071500Y0006000D01*
X0068183Y0006000D01*
X0068343Y0006052D01*
X0069016Y0006395D01*
X0069627Y0006839D01*
X0070161Y0007373D01*
X0070605Y0007984D01*
X0070948Y0008657D01*
X0071182Y0009376D01*
X0071299Y0010114D01*
X0066886Y0010114D01*
X0066886Y0010886D01*
X0071299Y0010886D01*
X0071182Y0011624D01*
X0070948Y0012343D01*
X0070605Y0013016D01*
X0070161Y0013627D01*
X0069627Y0014161D01*
X0069016Y0014605D01*
X0068343Y0014948D01*
X0067624Y0015182D01*
X0066886Y0015299D01*
X0066886Y0010886D01*
X0066114Y0010886D01*
X0066114Y0015299D01*
X0065376Y0015182D01*
X0064657Y0014948D01*
X0063984Y0014605D01*
X0063373Y0014161D01*
X0062839Y0013627D01*
X0062395Y0013016D01*
X0062052Y0012343D01*
X0061818Y0011624D01*
X0061701Y0010886D01*
X0066114Y0010886D01*
X0066114Y0010114D01*
X0061701Y0010114D01*
X0061818Y0009376D01*
X0062052Y0008657D01*
X0062395Y0007984D01*
X0062839Y0007373D01*
X0063373Y0006839D01*
X0063984Y0006395D01*
X0064657Y0006052D01*
X0064816Y0006000D01*
X0020059Y0006000D01*
X0021512Y0009509D01*
X0021512Y0013491D01*
X0019988Y0017171D01*
X0017171Y0019988D01*
X0013491Y0021512D01*
X0009509Y0021512D01*
X0006000Y0020059D01*
X0006000Y0177941D01*
X0009509Y0176488D01*
X0013491Y0176488D01*
X0017171Y0178012D01*
X0019988Y0180829D01*
X0021512Y0184509D01*
X0021512Y0188491D01*
X0019988Y0192171D01*
X0018308Y0193850D01*
X0063345Y0193850D01*
X0062600Y0193106D01*
X0061900Y0191415D01*
X0061900Y0189585D01*
X0062600Y0187894D01*
X0063894Y0186600D01*
X0065585Y0185900D01*
X0067415Y0185900D01*
X0069106Y0186600D01*
X0070400Y0187894D01*
X0071100Y0189585D01*
X0071100Y0191415D01*
X0070400Y0193106D01*
X0069655Y0193850D01*
X0153345Y0193850D01*
X0152600Y0193106D01*
X0151900Y0191415D01*
X0151900Y0189585D01*
X0152600Y0187894D01*
X0153894Y0186600D01*
X0155585Y0185900D01*
X0157415Y0185900D01*
X0159106Y0186600D01*
X0160400Y0187894D01*
X0161100Y0189585D01*
X0161100Y0191415D01*
X0160400Y0193106D01*
X0159655Y0193850D01*
X0296500Y0193850D01*
X0296500Y0081500D01*
X0362000Y0081500D01*
X0362000Y0020059D01*
X0358491Y0021512D01*
X0354509Y0021512D01*
X0350829Y0019988D01*
X0348012Y0017171D01*
X0346488Y0013491D01*
X0346488Y0009509D01*
X0347941Y0006000D01*
X0157656Y0006000D01*
X0159106Y0006600D01*
X0159705Y0007200D01*
X0176156Y0007200D01*
X0177369Y0007702D01*
X0184298Y0014631D01*
X0184800Y0015844D01*
X0184800Y0040133D01*
X0187867Y0043200D01*
X0225379Y0043200D01*
X0225808Y0043022D01*
X0227192Y0043022D01*
X0228470Y0043552D01*
X0229448Y0044530D01*
X0229978Y0045808D01*
X0229978Y0047192D01*
X0229560Y0048200D01*
X0275133Y0048200D01*
X0276900Y0046433D01*
X0229978Y0046433D01*
X0229879Y0047432D02*
X0275902Y0047432D01*
X0276900Y0046433D02*
X0276900Y0045585D01*
X0277600Y0043894D01*
X0278894Y0042600D01*
X0280585Y0041900D01*
X0282415Y0041900D01*
X0284106Y0042600D01*
X0285400Y0043894D01*
X0286100Y0045585D01*
X0286100Y0047415D01*
X0285400Y0049106D01*
X0284106Y0050400D01*
X0282415Y0051100D01*
X0281567Y0051100D01*
X0280938Y0051729D01*
X0281114Y0051701D01*
X0281114Y0056114D01*
X0276701Y0056114D01*
X0276818Y0055376D01*
X0277005Y0054800D01*
X0180844Y0054800D01*
X0180761Y0054766D01*
X0181100Y0055585D01*
X0181100Y0057415D01*
X0180400Y0059106D01*
X0179106Y0060400D01*
X0177415Y0061100D01*
X0175585Y0061100D01*
X0173894Y0060400D01*
X0172600Y0059106D01*
X0171900Y0057415D01*
X0171900Y0055585D01*
X0172600Y0053894D01*
X0172837Y0053658D01*
X0161967Y0058006D01*
X0160972Y0057994D01*
X0160144Y0057639D01*
X0160615Y0058415D02*
X0172314Y0058415D01*
X0171901Y0057417D02*
X0163440Y0057417D01*
X0165936Y0056418D02*
X0171900Y0056418D01*
X0171968Y0055420D02*
X0168432Y0055420D01*
X0170929Y0054421D02*
X0172382Y0054421D01*
X0169947Y0049429D02*
X0161035Y0049429D01*
X0161100Y0050427D02*
X0167451Y0050427D01*
X0164955Y0051426D02*
X0161096Y0051426D01*
X0160682Y0052424D02*
X0162458Y0052424D01*
X0160622Y0048430D02*
X0172320Y0048430D01*
X0171907Y0047432D02*
X0159937Y0047432D01*
X0158702Y0046433D02*
X0171900Y0046433D01*
X0171962Y0045434D02*
X0058134Y0045434D01*
X0058139Y0045446D02*
X0057332Y0043498D01*
X0055841Y0042007D01*
X0053893Y0041200D01*
X0051784Y0041200D01*
X0049836Y0042007D01*
X0048345Y0043498D01*
X0047539Y0045446D01*
X0047539Y0047554D01*
X0048345Y0049502D01*
X0049836Y0050993D01*
X0051784Y0051800D01*
X0053893Y0051800D01*
X0055841Y0050993D01*
X0057332Y0049502D01*
X0058139Y0047554D01*
X0058139Y0045446D01*
X0058139Y0046433D02*
X0064298Y0046433D01*
X0063894Y0046600D02*
X0065585Y0045900D01*
X0067415Y0045900D01*
X0069106Y0046600D01*
X0070400Y0047894D01*
X0071100Y0049585D01*
X0071100Y0051415D01*
X0070400Y0053106D01*
X0069106Y0054400D01*
X0067415Y0055100D01*
X0065585Y0055100D01*
X0063894Y0054400D01*
X0062600Y0053106D01*
X0061900Y0051415D01*
X0061900Y0049585D01*
X0062600Y0047894D01*
X0063894Y0046600D01*
X0063063Y0047432D02*
X0058139Y0047432D01*
X0057776Y0048430D02*
X0062378Y0048430D01*
X0061965Y0049429D02*
X0057362Y0049429D01*
X0056407Y0050427D02*
X0061900Y0050427D01*
X0061904Y0051426D02*
X0054797Y0051426D01*
X0050880Y0051426D02*
X0041017Y0051426D01*
X0040113Y0051800D02*
X0038005Y0051800D01*
X0036057Y0050993D01*
X0034566Y0049502D01*
X0033759Y0047554D01*
X0033759Y0045446D01*
X0034566Y0043498D01*
X0036057Y0042007D01*
X0038005Y0041200D01*
X0040113Y0041200D01*
X0042061Y0042007D01*
X0043552Y0043498D01*
X0044359Y0045446D01*
X0044359Y0047554D01*
X0043552Y0049502D01*
X0042061Y0050993D01*
X0040113Y0051800D01*
X0042627Y0050427D02*
X0049270Y0050427D01*
X0048315Y0049429D02*
X0043583Y0049429D01*
X0043996Y0048430D02*
X0047901Y0048430D01*
X0047539Y0047432D02*
X0044359Y0047432D01*
X0044359Y0046433D02*
X0047539Y0046433D01*
X0047543Y0045434D02*
X0044354Y0045434D01*
X0043941Y0044436D02*
X0047957Y0044436D01*
X0048406Y0043437D02*
X0043492Y0043437D01*
X0042493Y0042439D02*
X0049404Y0042439D01*
X0051204Y0041440D02*
X0040694Y0041440D01*
X0037424Y0041440D02*
X0027464Y0041440D01*
X0027391Y0041403D02*
X0028162Y0041796D01*
X0028863Y0042305D01*
X0029475Y0042917D01*
X0029984Y0043617D01*
X0030377Y0044389D01*
X0030644Y0045212D01*
X0030769Y0046000D01*
X0025780Y0046000D01*
X0025780Y0047000D01*
X0030769Y0047000D01*
X0030644Y0047788D01*
X0030377Y0048611D01*
X0029984Y0049383D01*
X0029475Y0050083D01*
X0028863Y0050695D01*
X0028162Y0051204D01*
X0027391Y0051597D01*
X0026567Y0051865D01*
X0025780Y0051989D01*
X0025780Y0047000D01*
X0024780Y0047000D01*
X0024780Y0051989D01*
X0023992Y0051865D01*
X0023168Y0051597D01*
X0022397Y0051204D01*
X0021697Y0050695D01*
X0021084Y0050083D01*
X0020576Y0049383D01*
X0020182Y0048611D01*
X0019915Y0047788D01*
X0019790Y0047000D01*
X0024779Y0047000D01*
X0024779Y0046000D01*
X0019790Y0046000D01*
X0019915Y0045212D01*
X0020182Y0044389D01*
X0020576Y0043617D01*
X0021084Y0042917D01*
X0021697Y0042305D01*
X0022397Y0041796D01*
X0023168Y0041403D01*
X0023992Y0041135D01*
X0024780Y0041011D01*
X0024780Y0046000D01*
X0025780Y0046000D01*
X0025780Y0041011D01*
X0026567Y0041135D01*
X0027391Y0041403D01*
X0025780Y0041440D02*
X0024780Y0041440D01*
X0024780Y0042439D02*
X0025780Y0042439D01*
X0025780Y0043437D02*
X0024780Y0043437D01*
X0024780Y0044436D02*
X0025780Y0044436D01*
X0025780Y0045434D02*
X0024780Y0045434D01*
X0024779Y0046433D02*
X0016800Y0046433D01*
X0016800Y0045434D02*
X0019880Y0045434D01*
X0020167Y0044436D02*
X0016800Y0044436D01*
X0016800Y0043437D02*
X0020706Y0043437D01*
X0021562Y0042439D02*
X0016800Y0042439D01*
X0016800Y0041962D02*
X0016038Y0041200D01*
X0006962Y0041200D01*
X0006200Y0041962D01*
X0006200Y0051038D01*
X0006962Y0051800D01*
X0016038Y0051800D01*
X0016800Y0051038D01*
X0016800Y0041962D01*
X0016279Y0041440D02*
X0023095Y0041440D01*
X0028997Y0042439D02*
X0035625Y0042439D01*
X0034626Y0043437D02*
X0029853Y0043437D01*
X0030392Y0044436D02*
X0034177Y0044436D01*
X0033764Y0045434D02*
X0030679Y0045434D01*
X0030701Y0047432D02*
X0033759Y0047432D01*
X0033759Y0046433D02*
X0025780Y0046433D01*
X0025780Y0047432D02*
X0024780Y0047432D01*
X0024780Y0048430D02*
X0025780Y0048430D01*
X0025780Y0049429D02*
X0024780Y0049429D01*
X0024780Y0050427D02*
X0025780Y0050427D01*
X0025780Y0051426D02*
X0024780Y0051426D01*
X0022832Y0051426D02*
X0016413Y0051426D01*
X0016800Y0050427D02*
X0021428Y0050427D01*
X0020609Y0049429D02*
X0016800Y0049429D01*
X0016800Y0048430D02*
X0020124Y0048430D01*
X0019859Y0047432D02*
X0016800Y0047432D01*
X0006200Y0047432D02*
X0006000Y0047432D01*
X0006000Y0048430D02*
X0006200Y0048430D01*
X0006200Y0049429D02*
X0006000Y0049429D01*
X0006000Y0050427D02*
X0006200Y0050427D01*
X0006000Y0051426D02*
X0006587Y0051426D01*
X0006000Y0052424D02*
X0062318Y0052424D01*
X0062917Y0053423D02*
X0006000Y0053423D01*
X0006000Y0054421D02*
X0063946Y0054421D01*
X0064334Y0056418D02*
X0006000Y0056418D01*
X0006000Y0055420D02*
X0093200Y0055420D01*
X0093200Y0056418D02*
X0068666Y0056418D01*
X0069106Y0056600D02*
X0070400Y0057894D01*
X0071100Y0059585D01*
X0071100Y0061415D01*
X0070400Y0063106D01*
X0069106Y0064400D01*
X0067415Y0065100D01*
X0065585Y0065100D01*
X0063894Y0064400D01*
X0062600Y0063106D01*
X0061900Y0061415D01*
X0061900Y0059585D01*
X0062600Y0057894D01*
X0063894Y0056600D01*
X0065585Y0055900D01*
X0067415Y0055900D01*
X0069106Y0056600D01*
X0069922Y0057417D02*
X0093200Y0057417D01*
X0093200Y0058415D02*
X0070615Y0058415D01*
X0071029Y0059414D02*
X0093200Y0059414D01*
X0093200Y0060412D02*
X0071100Y0060412D01*
X0071100Y0061411D02*
X0093200Y0061411D01*
X0093200Y0062409D02*
X0070688Y0062409D01*
X0070098Y0063408D02*
X0093200Y0063408D01*
X0093200Y0064406D02*
X0069090Y0064406D01*
X0068343Y0066052D02*
X0069016Y0066395D01*
X0069627Y0066839D01*
X0070161Y0067373D01*
X0070605Y0067984D01*
X0070948Y0068657D01*
X0071182Y0069376D01*
X0071299Y0070114D01*
X0066886Y0070114D01*
X0066886Y0070886D01*
X0071299Y0070886D01*
X0071182Y0071624D01*
X0070948Y0072343D01*
X0070605Y0073016D01*
X0070161Y0073627D01*
X0069627Y0074161D01*
X0069016Y0074605D01*
X0068343Y0074948D01*
X0067624Y0075182D01*
X0066886Y0075299D01*
X0066886Y0070886D01*
X0066114Y0070886D01*
X0066114Y0075299D01*
X0065376Y0075182D01*
X0064657Y0074948D01*
X0063984Y0074605D01*
X0063373Y0074161D01*
X0062839Y0073627D01*
X0062395Y0073016D01*
X0062052Y0072343D01*
X0061818Y0071624D01*
X0061701Y0070886D01*
X0066114Y0070886D01*
X0066114Y0070114D01*
X0066886Y0070114D01*
X0066886Y0065701D01*
X0067624Y0065818D01*
X0068343Y0066052D01*
X0069028Y0066403D02*
X0093200Y0066403D01*
X0093200Y0065405D02*
X0006000Y0065405D01*
X0006000Y0066403D02*
X0063972Y0066403D01*
X0063984Y0066395D02*
X0064657Y0066052D01*
X0065376Y0065818D01*
X0066114Y0065701D01*
X0066114Y0070114D01*
X0061701Y0070114D01*
X0061818Y0069376D01*
X0062052Y0068657D01*
X0062395Y0067984D01*
X0062839Y0067373D01*
X0063373Y0066839D01*
X0063984Y0066395D01*
X0062818Y0067402D02*
X0006000Y0067402D01*
X0006000Y0068400D02*
X0062183Y0068400D01*
X0061815Y0069399D02*
X0006000Y0069399D01*
X0006000Y0070397D02*
X0066114Y0070397D01*
X0066886Y0070397D02*
X0093200Y0070397D01*
X0093200Y0069399D02*
X0071185Y0069399D01*
X0070817Y0068400D02*
X0093200Y0068400D01*
X0093200Y0067402D02*
X0070182Y0067402D01*
X0066886Y0067402D02*
X0066114Y0067402D01*
X0066114Y0068400D02*
X0066886Y0068400D01*
X0066886Y0069399D02*
X0066114Y0069399D01*
X0066114Y0071396D02*
X0066886Y0071396D01*
X0066886Y0072394D02*
X0066114Y0072394D01*
X0066114Y0073393D02*
X0066886Y0073393D01*
X0066886Y0074391D02*
X0066114Y0074391D01*
X0065585Y0075900D02*
X0063894Y0076600D01*
X0062600Y0077894D01*
X0061900Y0079585D01*
X0061900Y0081415D01*
X0062600Y0083106D01*
X0063894Y0084400D01*
X0065585Y0085100D01*
X0067415Y0085100D01*
X0069106Y0084400D01*
X0070400Y0083106D01*
X0071100Y0081415D01*
X0071100Y0079585D01*
X0070400Y0077894D01*
X0069106Y0076600D01*
X0067415Y0075900D01*
X0065585Y0075900D01*
X0064406Y0076388D02*
X0006000Y0076388D01*
X0006000Y0075390D02*
X0093200Y0075390D01*
X0093200Y0076388D02*
X0068594Y0076388D01*
X0069892Y0077387D02*
X0093200Y0077387D01*
X0093200Y0078385D02*
X0070603Y0078385D01*
X0071017Y0079384D02*
X0093200Y0079384D01*
X0093200Y0080382D02*
X0071100Y0080382D01*
X0071100Y0081381D02*
X0093197Y0081381D01*
X0093200Y0081534D02*
X0093187Y0080911D01*
X0093200Y0080879D01*
X0093200Y0052621D01*
X0093022Y0052192D01*
X0093022Y0050808D01*
X0093552Y0049530D01*
X0094530Y0048552D01*
X0095808Y0048022D01*
X0097192Y0048022D01*
X0098470Y0048552D01*
X0099448Y0049530D01*
X0099978Y0050808D01*
X0099978Y0052192D01*
X0099800Y0052621D01*
X0099800Y0080093D01*
X0122828Y0102200D01*
X0152156Y0102200D01*
X0152239Y0102234D01*
X0151900Y0101415D01*
X0151900Y0099585D01*
X0152239Y0098766D01*
X0152156Y0098800D01*
X0124621Y0098800D01*
X0124192Y0098978D01*
X0122808Y0098978D01*
X0121530Y0098448D01*
X0120552Y0097470D01*
X0120022Y0096192D01*
X0120022Y0094808D01*
X0120552Y0093530D01*
X0121530Y0092552D01*
X0122808Y0092022D01*
X0124192Y0092022D01*
X0124621Y0092200D01*
X0152156Y0092200D01*
X0152239Y0092234D01*
X0151900Y0091415D01*
X0151900Y0089585D01*
X0152239Y0088766D01*
X0152156Y0088800D01*
X0123621Y0088800D01*
X0123192Y0088978D01*
X0121808Y0088978D01*
X0120530Y0088448D01*
X0119552Y0087470D01*
X0119022Y0086192D01*
X0119022Y0084808D01*
X0119552Y0083530D01*
X0120530Y0082552D01*
X0121808Y0082022D01*
X0123192Y0082022D01*
X0123621Y0082200D01*
X0152156Y0082200D01*
X0152239Y0082234D01*
X0151900Y0081415D01*
X0151900Y0079585D01*
X0152239Y0078766D01*
X0152156Y0078800D01*
X0123867Y0078800D01*
X0119626Y0083040D01*
X0119448Y0083470D01*
X0118470Y0084448D01*
X0117192Y0084978D01*
X0115808Y0084978D01*
X0114530Y0084448D01*
X0113552Y0083470D01*
X0113022Y0082192D01*
X0113022Y0080808D01*
X0113552Y0079530D01*
X0114530Y0078552D01*
X0114960Y0078374D01*
X0119702Y0073631D01*
X0120631Y0072702D01*
X0121844Y0072200D01*
X0152156Y0072200D01*
X0152239Y0072234D01*
X0151900Y0071415D01*
X0151900Y0069585D01*
X0152600Y0067894D01*
X0153894Y0066600D01*
X0155585Y0065900D01*
X0157415Y0065900D01*
X0159106Y0066600D01*
X0160400Y0067894D01*
X0161100Y0069585D01*
X0161100Y0071415D01*
X0160400Y0073106D01*
X0160105Y0073400D01*
X0160763Y0073400D01*
X0165097Y0069933D01*
X0165630Y0069400D01*
X0165763Y0069400D01*
X0165867Y0069317D01*
X0166616Y0069400D01*
X0172895Y0069400D01*
X0172600Y0069106D01*
X0171900Y0067415D01*
X0171900Y0065585D01*
X0172600Y0063894D01*
X0173894Y0062600D01*
X0175585Y0061900D01*
X0177415Y0061900D01*
X0179106Y0062600D01*
X0180400Y0063894D01*
X0181100Y0065585D01*
X0181100Y0067415D01*
X0180761Y0068234D01*
X0180844Y0068200D01*
X0245133Y0068200D01*
X0252600Y0060733D01*
X0252600Y0059885D01*
X0254885Y0057600D01*
X0258115Y0057600D01*
X0260400Y0059885D01*
X0260400Y0063115D01*
X0258115Y0065400D01*
X0257267Y0065400D01*
X0248369Y0074298D01*
X0247156Y0074800D01*
X0180844Y0074800D01*
X0180761Y0074766D01*
X0181100Y0075585D01*
X0181100Y0077415D01*
X0180400Y0079106D01*
X0179106Y0080400D01*
X0177415Y0081100D01*
X0175585Y0081100D01*
X0173894Y0080400D01*
X0173295Y0079800D01*
X0172766Y0079800D01*
X0163220Y0088392D01*
X0161982Y0088830D01*
X0160761Y0088766D01*
X0161100Y0089585D01*
X0161100Y0091415D01*
X0161096Y0091423D01*
X0169228Y0084105D01*
X0169631Y0083702D01*
X0169714Y0083668D01*
X0169780Y0083608D01*
X0170317Y0083418D01*
X0170844Y0083200D01*
X0170933Y0083200D01*
X0171018Y0083170D01*
X0171587Y0083200D01*
X0173295Y0083200D01*
X0173894Y0082600D01*
X0175585Y0081900D01*
X0177415Y0081900D01*
X0179106Y0082600D01*
X0180400Y0083894D01*
X0181100Y0085585D01*
X0181100Y0087415D01*
X0180400Y0089106D01*
X0179106Y0090400D01*
X0177415Y0091100D01*
X0175585Y0091100D01*
X0173894Y0090400D01*
X0173295Y0089800D01*
X0172766Y0089800D01*
X0163220Y0098392D01*
X0161982Y0098830D01*
X0160761Y0098766D01*
X0161100Y0099585D01*
X0161100Y0101415D01*
X0160400Y0103106D01*
X0160105Y0103400D01*
X0165763Y0103400D01*
X0170097Y0099933D01*
X0170630Y0099400D01*
X0170763Y0099400D01*
X0170867Y0099317D01*
X0171616Y0099400D01*
X0172895Y0099400D01*
X0172600Y0099106D01*
X0171900Y0097415D01*
X0171900Y0095585D01*
X0172600Y0093894D01*
X0173894Y0092600D01*
X0175585Y0091900D01*
X0177415Y0091900D01*
X0179106Y0092600D01*
X0180400Y0093894D01*
X0181100Y0095585D01*
X0181100Y0097415D01*
X0180982Y0097700D01*
X0267256Y0097700D01*
X0268653Y0098279D01*
X0273074Y0102700D01*
X0278795Y0102700D01*
X0278894Y0102600D01*
X0280585Y0101900D01*
X0282415Y0101900D01*
X0284106Y0102600D01*
X0285400Y0103894D01*
X0286100Y0105585D01*
X0286100Y0107415D01*
X0285400Y0109106D01*
X0284106Y0110400D01*
X0282415Y0111100D01*
X0280585Y0111100D01*
X0278894Y0110400D01*
X0278795Y0110300D01*
X0270744Y0110300D01*
X0269417Y0109750D01*
X0273369Y0113702D01*
X0274298Y0114631D01*
X0274800Y0115844D01*
X0274800Y0150133D01*
X0277867Y0153200D01*
X0278295Y0153200D01*
X0278894Y0152600D01*
X0280585Y0151900D01*
X0282415Y0151900D01*
X0284106Y0152600D01*
X0285400Y0153894D01*
X0286100Y0155585D01*
X0286100Y0157415D01*
X0285400Y0159106D01*
X0284106Y0160400D01*
X0282415Y0161100D01*
X0280585Y0161100D01*
X0278894Y0160400D01*
X0278295Y0159800D01*
X0275844Y0159800D01*
X0274631Y0159298D01*
X0273702Y0158369D01*
X0268702Y0153369D01*
X0268200Y0152156D01*
X0268200Y0117867D01*
X0265133Y0114800D01*
X0182621Y0114800D01*
X0182192Y0114978D01*
X0180849Y0114978D01*
X0181100Y0115585D01*
X0181100Y0117415D01*
X0180400Y0119106D01*
X0179106Y0120400D01*
X0177415Y0121100D01*
X0175585Y0121100D01*
X0173894Y0120400D01*
X0172600Y0119106D01*
X0171900Y0117415D01*
X0171900Y0115585D01*
X0172600Y0113894D01*
X0172895Y0113600D01*
X0172237Y0113600D01*
X0167903Y0117067D01*
X0167370Y0117600D01*
X0167237Y0117600D01*
X0167133Y0117683D01*
X0166384Y0117600D01*
X0160105Y0117600D01*
X0160400Y0117894D01*
X0161100Y0119585D01*
X0161100Y0121415D01*
X0160400Y0123106D01*
X0159106Y0124400D01*
X0157415Y0125100D01*
X0155585Y0125100D01*
X0153894Y0124400D01*
X0152600Y0123106D01*
X0151900Y0121415D01*
X0151900Y0119585D01*
X0152600Y0117894D01*
X0152895Y0117600D01*
X0135319Y0117600D01*
X0134470Y0118448D01*
X0133192Y0118978D01*
X0131808Y0118978D01*
X0130530Y0118448D01*
X0129552Y0117470D01*
X0129022Y0116192D01*
X0129022Y0114808D01*
X0129552Y0113530D01*
X0130530Y0112552D01*
X0131808Y0112022D01*
X0133192Y0112022D01*
X0134470Y0112552D01*
X0135319Y0113400D01*
X0152895Y0113400D01*
X0152600Y0113106D01*
X0151900Y0111415D01*
X0151900Y0109585D01*
X0152239Y0108766D01*
X0152156Y0108800D01*
X0121534Y0108800D01*
X0120911Y0108813D01*
X0120878Y0108800D01*
X0120844Y0108800D01*
X0120269Y0108562D01*
X0119688Y0108335D01*
X0119663Y0108311D01*
X0119631Y0108298D01*
X0119191Y0107858D01*
X0094663Y0084311D01*
X0094631Y0084298D01*
X0094191Y0083857D01*
X0093741Y0083426D01*
X0093727Y0083394D01*
X0093702Y0083369D01*
X0093464Y0082794D01*
X0093214Y0082224D01*
X0093213Y0082189D01*
X0093200Y0082156D01*
X0093200Y0081534D01*
X0093282Y0082379D02*
X0070701Y0082379D01*
X0070127Y0083378D02*
X0093711Y0083378D01*
X0094731Y0084376D02*
X0069129Y0084376D01*
X0068558Y0086373D02*
X0096811Y0086373D01*
X0095771Y0085375D02*
X0006000Y0085375D01*
X0006000Y0086373D02*
X0064442Y0086373D01*
X0063894Y0086600D02*
X0065585Y0085900D01*
X0067415Y0085900D01*
X0069106Y0086600D01*
X0070400Y0087894D01*
X0071100Y0089585D01*
X0071100Y0091415D01*
X0070400Y0093106D01*
X0069106Y0094400D01*
X0067415Y0095100D01*
X0065585Y0095100D01*
X0063894Y0094400D01*
X0062600Y0093106D01*
X0061900Y0091415D01*
X0061900Y0089585D01*
X0062600Y0087894D01*
X0063894Y0086600D01*
X0063123Y0087372D02*
X0006000Y0087372D01*
X0006000Y0088370D02*
X0062403Y0088370D01*
X0061989Y0089369D02*
X0006000Y0089369D01*
X0006000Y0090368D02*
X0061900Y0090368D01*
X0061900Y0091366D02*
X0006000Y0091366D01*
X0006000Y0092365D02*
X0062293Y0092365D01*
X0062858Y0093363D02*
X0006000Y0093363D01*
X0006000Y0094362D02*
X0063856Y0094362D01*
X0064478Y0096359D02*
X0006000Y0096359D01*
X0006000Y0097357D02*
X0063138Y0097357D01*
X0062600Y0097894D02*
X0063894Y0096600D01*
X0065585Y0095900D01*
X0067415Y0095900D01*
X0069106Y0096600D01*
X0070400Y0097894D01*
X0071100Y0099585D01*
X0071100Y0101415D01*
X0070400Y0103106D01*
X0069106Y0104400D01*
X0067415Y0105100D01*
X0065585Y0105100D01*
X0063894Y0104400D01*
X0062600Y0103106D01*
X0061900Y0101415D01*
X0061900Y0099585D01*
X0062600Y0097894D01*
X0062409Y0098356D02*
X0006000Y0098356D01*
X0006000Y0099354D02*
X0061996Y0099354D01*
X0061900Y0100353D02*
X0006000Y0100353D01*
X0006000Y0101351D02*
X0061900Y0101351D01*
X0062287Y0102350D02*
X0006000Y0102350D01*
X0006000Y0103348D02*
X0062843Y0103348D01*
X0063841Y0104347D02*
X0006000Y0104347D01*
X0006000Y0105345D02*
X0116574Y0105345D01*
X0117614Y0106344D02*
X0068486Y0106344D01*
X0069106Y0106600D02*
X0070400Y0107894D01*
X0071100Y0109585D01*
X0071100Y0111415D01*
X0070400Y0113106D01*
X0069106Y0114400D01*
X0067415Y0115100D01*
X0065585Y0115100D01*
X0063894Y0114400D01*
X0062600Y0113106D01*
X0061900Y0111415D01*
X0061900Y0109585D01*
X0062600Y0107894D01*
X0063894Y0106600D01*
X0065585Y0105900D01*
X0067415Y0105900D01*
X0069106Y0106600D01*
X0069848Y0107342D02*
X0118654Y0107342D01*
X0119702Y0108341D02*
X0070585Y0108341D01*
X0070998Y0109339D02*
X0152002Y0109339D01*
X0151900Y0110338D02*
X0071100Y0110338D01*
X0071100Y0111336D02*
X0151900Y0111336D01*
X0152281Y0112335D02*
X0133947Y0112335D01*
X0135252Y0113333D02*
X0152828Y0113333D01*
X0152422Y0118326D02*
X0134593Y0118326D01*
X0130407Y0118326D02*
X0070578Y0118326D01*
X0070400Y0117894D02*
X0071100Y0119585D01*
X0071100Y0121415D01*
X0070400Y0123106D01*
X0069106Y0124400D01*
X0067415Y0125100D01*
X0065585Y0125100D01*
X0063894Y0124400D01*
X0062600Y0123106D01*
X0061900Y0121415D01*
X0061900Y0119585D01*
X0062600Y0117894D01*
X0063894Y0116600D01*
X0065585Y0115900D01*
X0067415Y0115900D01*
X0069106Y0116600D01*
X0070400Y0117894D01*
X0069833Y0117327D02*
X0129492Y0117327D01*
X0129079Y0116329D02*
X0068450Y0116329D01*
X0069174Y0114332D02*
X0129219Y0114332D01*
X0129022Y0115330D02*
X0006000Y0115330D01*
X0006000Y0114332D02*
X0063826Y0114332D01*
X0062828Y0113333D02*
X0006000Y0113333D01*
X0006000Y0112335D02*
X0062281Y0112335D01*
X0061900Y0111336D02*
X0006000Y0111336D01*
X0006000Y0110338D02*
X0061900Y0110338D01*
X0062002Y0109339D02*
X0006000Y0109339D01*
X0006000Y0108341D02*
X0062415Y0108341D01*
X0063152Y0107342D02*
X0006000Y0107342D01*
X0006000Y0106344D02*
X0064514Y0106344D01*
X0069159Y0104347D02*
X0115534Y0104347D01*
X0114493Y0103348D02*
X0070157Y0103348D01*
X0070713Y0102350D02*
X0113453Y0102350D01*
X0112413Y0101351D02*
X0071100Y0101351D01*
X0071100Y0100353D02*
X0111373Y0100353D01*
X0110333Y0099354D02*
X0071004Y0099354D01*
X0070591Y0098356D02*
X0109293Y0098356D01*
X0108253Y0097357D02*
X0069862Y0097357D01*
X0068522Y0096359D02*
X0107213Y0096359D01*
X0106172Y0095360D02*
X0006000Y0095360D01*
X0006000Y0084376D02*
X0063871Y0084376D01*
X0062873Y0083378D02*
X0006000Y0083378D01*
X0006000Y0082379D02*
X0062299Y0082379D01*
X0061900Y0081381D02*
X0006000Y0081381D01*
X0006000Y0080382D02*
X0061900Y0080382D01*
X0061983Y0079384D02*
X0006000Y0079384D01*
X0006000Y0078385D02*
X0062397Y0078385D01*
X0063108Y0077387D02*
X0006000Y0077387D01*
X0006000Y0074391D02*
X0063690Y0074391D01*
X0062669Y0073393D02*
X0006000Y0073393D01*
X0006000Y0072394D02*
X0062078Y0072394D01*
X0061782Y0071396D02*
X0006000Y0071396D01*
X0006000Y0064406D02*
X0063910Y0064406D01*
X0062902Y0063408D02*
X0006000Y0063408D01*
X0006000Y0062409D02*
X0062312Y0062409D01*
X0061900Y0061411D02*
X0006000Y0061411D01*
X0006000Y0060412D02*
X0061900Y0060412D01*
X0061971Y0059414D02*
X0006000Y0059414D01*
X0006000Y0058415D02*
X0062385Y0058415D01*
X0063078Y0057417D02*
X0006000Y0057417D01*
X0006000Y0046433D02*
X0006200Y0046433D01*
X0006200Y0045434D02*
X0006000Y0045434D01*
X0006000Y0044436D02*
X0006200Y0044436D01*
X0006200Y0043437D02*
X0006000Y0043437D01*
X0006000Y0042439D02*
X0006200Y0042439D01*
X0006000Y0041440D02*
X0006721Y0041440D01*
X0006000Y0040442D02*
X0061900Y0040442D01*
X0061900Y0039585D02*
X0061900Y0041415D01*
X0062600Y0043106D01*
X0063894Y0044400D01*
X0065585Y0045100D01*
X0067415Y0045100D01*
X0069106Y0044400D01*
X0070400Y0043106D01*
X0071100Y0041415D01*
X0071100Y0039585D01*
X0070400Y0037894D01*
X0069106Y0036600D01*
X0067415Y0035900D01*
X0065585Y0035900D01*
X0063894Y0036600D01*
X0062600Y0037894D01*
X0061900Y0039585D01*
X0061959Y0039443D02*
X0006000Y0039443D01*
X0006000Y0038445D02*
X0062372Y0038445D01*
X0063048Y0037446D02*
X0006000Y0037446D01*
X0006000Y0036448D02*
X0064262Y0036448D01*
X0065585Y0035100D02*
X0063894Y0034400D01*
X0062600Y0033106D01*
X0061900Y0031415D01*
X0061900Y0029585D01*
X0062600Y0027894D01*
X0063894Y0026600D01*
X0065585Y0025900D01*
X0067415Y0025900D01*
X0069106Y0026600D01*
X0070400Y0027894D01*
X0071100Y0029585D01*
X0071100Y0031415D01*
X0070400Y0033106D01*
X0069106Y0034400D01*
X0067415Y0035100D01*
X0065585Y0035100D01*
X0064018Y0034451D02*
X0006000Y0034451D01*
X0006000Y0035449D02*
X0071500Y0035449D01*
X0071500Y0034451D02*
X0068982Y0034451D01*
X0070053Y0033452D02*
X0071500Y0033452D01*
X0071500Y0032454D02*
X0070670Y0032454D01*
X0071083Y0031455D02*
X0071500Y0031455D01*
X0071500Y0030457D02*
X0071100Y0030457D01*
X0071048Y0029458D02*
X0071500Y0029458D01*
X0071500Y0028460D02*
X0070634Y0028460D01*
X0069967Y0027461D02*
X0071500Y0027461D01*
X0071500Y0026463D02*
X0068774Y0026463D01*
X0067415Y0025100D02*
X0065585Y0025100D01*
X0063894Y0024400D01*
X0062600Y0023106D01*
X0061900Y0021415D01*
X0061900Y0019585D01*
X0062600Y0017894D01*
X0063894Y0016600D01*
X0065585Y0015900D01*
X0067415Y0015900D01*
X0069106Y0016600D01*
X0070400Y0017894D01*
X0071100Y0019585D01*
X0071100Y0021415D01*
X0070400Y0023106D01*
X0069106Y0024400D01*
X0067415Y0025100D01*
X0068946Y0024466D02*
X0071500Y0024466D01*
X0071500Y0025464D02*
X0006000Y0025464D01*
X0006000Y0024466D02*
X0064054Y0024466D01*
X0062962Y0023467D02*
X0006000Y0023467D01*
X0006000Y0022469D02*
X0062336Y0022469D01*
X0061923Y0021470D02*
X0013592Y0021470D01*
X0016002Y0020472D02*
X0027633Y0020472D01*
X0027962Y0020800D02*
X0027200Y0020038D01*
X0027200Y0012962D01*
X0027962Y0012200D01*
X0035038Y0012200D01*
X0035800Y0012962D01*
X0035800Y0020038D01*
X0035038Y0020800D01*
X0027962Y0020800D01*
X0027200Y0019473D02*
X0017686Y0019473D01*
X0018684Y0018475D02*
X0027200Y0018475D01*
X0027200Y0017476D02*
X0019683Y0017476D01*
X0020275Y0016478D02*
X0027200Y0016478D01*
X0027200Y0015479D02*
X0020688Y0015479D01*
X0021102Y0014481D02*
X0027200Y0014481D01*
X0027200Y0013482D02*
X0021512Y0013482D01*
X0021512Y0012484D02*
X0027678Y0012484D01*
X0021512Y0011485D02*
X0061796Y0011485D01*
X0062124Y0012484D02*
X0045322Y0012484D01*
X0045038Y0012200D02*
X0045800Y0012962D01*
X0045800Y0020038D01*
X0045038Y0020800D01*
X0037962Y0020800D01*
X0037200Y0020038D01*
X0037200Y0012962D01*
X0037962Y0012200D01*
X0045038Y0012200D01*
X0045800Y0013482D02*
X0062734Y0013482D01*
X0063813Y0014481D02*
X0045800Y0014481D01*
X0045800Y0015479D02*
X0071500Y0015479D01*
X0071500Y0014481D02*
X0069187Y0014481D01*
X0070266Y0013482D02*
X0071500Y0013482D01*
X0071500Y0012484D02*
X0070876Y0012484D01*
X0071204Y0011485D02*
X0071500Y0011485D01*
X0071500Y0010487D02*
X0066886Y0010487D01*
X0066114Y0010487D02*
X0021512Y0010487D01*
X0021503Y0009488D02*
X0061800Y0009488D01*
X0062137Y0008490D02*
X0021090Y0008490D01*
X0020676Y0007491D02*
X0062753Y0007491D01*
X0063850Y0006493D02*
X0020263Y0006493D01*
X0035322Y0012484D02*
X0037678Y0012484D01*
X0037200Y0013482D02*
X0035800Y0013482D01*
X0035800Y0014481D02*
X0037200Y0014481D01*
X0037200Y0015479D02*
X0035800Y0015479D01*
X0035800Y0016478D02*
X0037200Y0016478D01*
X0037200Y0017476D02*
X0035800Y0017476D01*
X0035800Y0018475D02*
X0037200Y0018475D01*
X0037200Y0019473D02*
X0035800Y0019473D01*
X0035367Y0020472D02*
X0037633Y0020472D01*
X0045367Y0020472D02*
X0061900Y0020472D01*
X0061946Y0019473D02*
X0045800Y0019473D01*
X0045800Y0018475D02*
X0062360Y0018475D01*
X0063018Y0017476D02*
X0045800Y0017476D01*
X0045800Y0016478D02*
X0064190Y0016478D01*
X0066114Y0014481D02*
X0066886Y0014481D01*
X0066886Y0013482D02*
X0066114Y0013482D01*
X0066114Y0012484D02*
X0066886Y0012484D01*
X0066886Y0011485D02*
X0066114Y0011485D01*
X0071200Y0009488D02*
X0071500Y0009488D01*
X0071500Y0008490D02*
X0070863Y0008490D01*
X0070247Y0007491D02*
X0071500Y0007491D01*
X0071500Y0006493D02*
X0069150Y0006493D01*
X0068810Y0016478D02*
X0071500Y0016478D01*
X0071500Y0017476D02*
X0069982Y0017476D01*
X0070640Y0018475D02*
X0071500Y0018475D01*
X0071500Y0019473D02*
X0071054Y0019473D01*
X0071100Y0020472D02*
X0071500Y0020472D01*
X0071500Y0021470D02*
X0071077Y0021470D01*
X0070664Y0022469D02*
X0071500Y0022469D01*
X0071500Y0023467D02*
X0070038Y0023467D01*
X0064226Y0026463D02*
X0006000Y0026463D01*
X0006000Y0027461D02*
X0063033Y0027461D01*
X0062366Y0028460D02*
X0006000Y0028460D01*
X0006000Y0029458D02*
X0061952Y0029458D01*
X0061900Y0030457D02*
X0006000Y0030457D01*
X0006000Y0031455D02*
X0061917Y0031455D01*
X0062330Y0032454D02*
X0006000Y0032454D01*
X0006000Y0033452D02*
X0062947Y0033452D01*
X0068738Y0036448D02*
X0071500Y0036448D01*
X0069952Y0037446D02*
X0153048Y0037446D01*
X0152600Y0037894D02*
X0153894Y0036600D01*
X0155585Y0035900D01*
X0157415Y0035900D01*
X0159106Y0036600D01*
X0160400Y0037894D01*
X0161100Y0039585D01*
X0161100Y0041415D01*
X0160400Y0043106D01*
X0159106Y0044400D01*
X0157415Y0045100D01*
X0155585Y0045100D01*
X0153894Y0044400D01*
X0152600Y0043106D01*
X0151900Y0041415D01*
X0151900Y0039585D01*
X0152600Y0037894D01*
X0152372Y0038445D02*
X0070628Y0038445D01*
X0071041Y0039443D02*
X0151959Y0039443D01*
X0151900Y0040442D02*
X0071100Y0040442D01*
X0071089Y0041440D02*
X0151911Y0041440D01*
X0152324Y0042439D02*
X0070676Y0042439D01*
X0070068Y0043437D02*
X0152932Y0043437D01*
X0153982Y0044436D02*
X0069018Y0044436D01*
X0068702Y0046433D02*
X0154298Y0046433D01*
X0153063Y0047432D02*
X0069937Y0047432D01*
X0070622Y0048430D02*
X0094823Y0048430D01*
X0093653Y0049429D02*
X0071035Y0049429D01*
X0071100Y0050427D02*
X0093180Y0050427D01*
X0093022Y0051426D02*
X0071096Y0051426D01*
X0070682Y0052424D02*
X0093118Y0052424D01*
X0093200Y0053423D02*
X0070083Y0053423D01*
X0069054Y0054421D02*
X0093200Y0054421D01*
X0099800Y0054421D02*
X0128912Y0054421D01*
X0129911Y0053423D02*
X0099800Y0053423D01*
X0099882Y0052424D02*
X0131303Y0052424D01*
X0127913Y0055420D02*
X0099800Y0055420D01*
X0099800Y0056418D02*
X0126915Y0056418D01*
X0125916Y0057417D02*
X0099800Y0057417D01*
X0099800Y0058415D02*
X0124918Y0058415D01*
X0123919Y0059414D02*
X0099800Y0059414D01*
X0099800Y0060412D02*
X0122921Y0060412D01*
X0121922Y0061411D02*
X0099800Y0061411D01*
X0099800Y0062409D02*
X0120924Y0062409D01*
X0119925Y0063408D02*
X0099800Y0063408D01*
X0099800Y0064406D02*
X0118927Y0064406D01*
X0117928Y0065405D02*
X0099800Y0065405D01*
X0099800Y0066403D02*
X0116930Y0066403D01*
X0115931Y0067402D02*
X0099800Y0067402D01*
X0099800Y0068400D02*
X0114933Y0068400D01*
X0113934Y0069399D02*
X0099800Y0069399D01*
X0099800Y0070397D02*
X0112936Y0070397D01*
X0111937Y0071396D02*
X0099800Y0071396D01*
X0099800Y0072394D02*
X0110939Y0072394D01*
X0109913Y0073393D02*
X0099800Y0073393D01*
X0099800Y0074391D02*
X0108690Y0074391D01*
X0108195Y0075390D02*
X0099800Y0075390D01*
X0099800Y0076388D02*
X0108022Y0076388D01*
X0108103Y0077387D02*
X0099800Y0077387D01*
X0099800Y0078385D02*
X0108516Y0078385D01*
X0109465Y0079384D02*
X0099800Y0079384D01*
X0100101Y0080382D02*
X0113198Y0080382D01*
X0113022Y0081381D02*
X0101141Y0081381D01*
X0102181Y0082379D02*
X0113100Y0082379D01*
X0113513Y0083378D02*
X0103221Y0083378D01*
X0104261Y0084376D02*
X0114458Y0084376D01*
X0118542Y0084376D02*
X0119201Y0084376D01*
X0119022Y0085375D02*
X0105302Y0085375D01*
X0106342Y0086373D02*
X0119097Y0086373D01*
X0119511Y0087372D02*
X0107382Y0087372D01*
X0108422Y0088370D02*
X0120452Y0088370D01*
X0121981Y0092365D02*
X0112582Y0092365D01*
X0113622Y0093363D02*
X0120718Y0093363D01*
X0120207Y0094362D02*
X0114663Y0094362D01*
X0115703Y0095360D02*
X0120022Y0095360D01*
X0120091Y0096359D02*
X0116743Y0096359D01*
X0117783Y0097357D02*
X0120505Y0097357D01*
X0121437Y0098356D02*
X0118823Y0098356D01*
X0119863Y0099354D02*
X0151996Y0099354D01*
X0151900Y0100353D02*
X0120903Y0100353D01*
X0121943Y0101351D02*
X0151900Y0101351D01*
X0160157Y0103348D02*
X0165828Y0103348D01*
X0167076Y0102350D02*
X0160713Y0102350D01*
X0161100Y0101351D02*
X0168324Y0101351D01*
X0169573Y0100353D02*
X0161100Y0100353D01*
X0161004Y0099354D02*
X0170821Y0099354D01*
X0171203Y0099354D02*
X0172849Y0099354D01*
X0172290Y0098356D02*
X0163260Y0098356D01*
X0164370Y0097357D02*
X0171900Y0097357D01*
X0171900Y0096359D02*
X0165479Y0096359D01*
X0166588Y0095360D02*
X0171993Y0095360D01*
X0172407Y0094362D02*
X0167698Y0094362D01*
X0168807Y0093363D02*
X0173132Y0093363D01*
X0174464Y0092365D02*
X0169917Y0092365D01*
X0171026Y0091366D02*
X0296500Y0091366D01*
X0296500Y0090368D02*
X0284138Y0090368D01*
X0284106Y0090400D02*
X0282415Y0091100D01*
X0280585Y0091100D01*
X0278894Y0090400D01*
X0277600Y0089106D01*
X0276900Y0087415D01*
X0276900Y0085585D01*
X0277600Y0083894D01*
X0278894Y0082600D01*
X0280585Y0081900D01*
X0282415Y0081900D01*
X0284106Y0082600D01*
X0285400Y0083894D01*
X0286100Y0085585D01*
X0286100Y0087415D01*
X0285400Y0089106D01*
X0284106Y0090400D01*
X0285136Y0089369D02*
X0296500Y0089369D01*
X0296500Y0088370D02*
X0285704Y0088370D01*
X0286100Y0087372D02*
X0296500Y0087372D01*
X0296500Y0086373D02*
X0286100Y0086373D01*
X0286013Y0085375D02*
X0296500Y0085375D01*
X0296500Y0084376D02*
X0285599Y0084376D01*
X0284883Y0083378D02*
X0296500Y0083378D01*
X0296500Y0082379D02*
X0283572Y0082379D01*
X0282415Y0081100D02*
X0280585Y0081100D01*
X0278894Y0080400D01*
X0277600Y0079106D01*
X0276900Y0077415D01*
X0276900Y0075585D01*
X0277600Y0073894D01*
X0278894Y0072600D01*
X0280585Y0071900D01*
X0282415Y0071900D01*
X0284106Y0072600D01*
X0285400Y0073894D01*
X0286100Y0075585D01*
X0286100Y0077415D01*
X0285400Y0079106D01*
X0284106Y0080400D01*
X0282415Y0081100D01*
X0284123Y0080382D02*
X0362000Y0080382D01*
X0362000Y0079384D02*
X0285121Y0079384D01*
X0285698Y0078385D02*
X0362000Y0078385D01*
X0362000Y0077387D02*
X0286100Y0077387D01*
X0286100Y0076388D02*
X0362000Y0076388D01*
X0362000Y0075390D02*
X0350396Y0075390D01*
X0350674Y0075300D02*
X0350060Y0075499D01*
X0349423Y0075600D01*
X0346800Y0075600D01*
X0346800Y0071800D01*
X0346200Y0071800D01*
X0346200Y0075600D01*
X0343577Y0075600D01*
X0342940Y0075499D01*
X0342326Y0075300D01*
X0341751Y0075007D01*
X0341229Y0074627D01*
X0340773Y0074171D01*
X0340393Y0073649D01*
X0340100Y0073074D01*
X0339901Y0072460D01*
X0339800Y0071823D01*
X0339800Y0071800D01*
X0346200Y0071800D01*
X0346200Y0071200D01*
X0346800Y0071200D01*
X0346800Y0071800D01*
X0353200Y0071800D01*
X0353200Y0071823D01*
X0353099Y0072460D01*
X0352900Y0073074D01*
X0352607Y0073649D01*
X0352227Y0074171D01*
X0351771Y0074627D01*
X0351249Y0075007D01*
X0350674Y0075300D01*
X0352007Y0074391D02*
X0362000Y0074391D01*
X0362000Y0073393D02*
X0352737Y0073393D01*
X0353109Y0072394D02*
X0362000Y0072394D01*
X0362000Y0071396D02*
X0346800Y0071396D01*
X0346800Y0071200D02*
X0353200Y0071200D01*
X0353200Y0071177D01*
X0353099Y0070540D01*
X0352900Y0069926D01*
X0352607Y0069351D01*
X0352227Y0068829D01*
X0351771Y0068373D01*
X0351249Y0067993D01*
X0350674Y0067700D01*
X0350060Y0067501D01*
X0349423Y0067400D01*
X0346800Y0067400D01*
X0346800Y0071200D01*
X0346200Y0071200D02*
X0346200Y0067400D01*
X0343577Y0067400D01*
X0342940Y0067501D01*
X0342326Y0067700D01*
X0341751Y0067993D01*
X0341229Y0068373D01*
X0340773Y0068829D01*
X0340393Y0069351D01*
X0340100Y0069926D01*
X0339901Y0070540D01*
X0339800Y0071177D01*
X0339800Y0071200D01*
X0346200Y0071200D01*
X0346200Y0071396D02*
X0323000Y0071396D01*
X0323000Y0070724D02*
X0323000Y0072276D01*
X0322406Y0073709D01*
X0321309Y0074806D01*
X0319876Y0075400D01*
X0313124Y0075400D01*
X0311691Y0074806D01*
X0310594Y0073709D01*
X0310000Y0072276D01*
X0310000Y0070724D01*
X0310594Y0069291D01*
X0311691Y0068194D01*
X0313124Y0067600D01*
X0319876Y0067600D01*
X0321309Y0068194D01*
X0322406Y0069291D01*
X0323000Y0070724D01*
X0322865Y0070397D02*
X0339947Y0070397D01*
X0340369Y0069399D02*
X0322451Y0069399D01*
X0321516Y0068400D02*
X0341201Y0068400D01*
X0343566Y0067402D02*
X0286100Y0067402D01*
X0286100Y0067415D02*
X0285400Y0069106D01*
X0284106Y0070400D01*
X0282415Y0071100D01*
X0280585Y0071100D01*
X0278894Y0070400D01*
X0277600Y0069106D01*
X0276900Y0067415D01*
X0276900Y0065585D01*
X0277600Y0063894D01*
X0278894Y0062600D01*
X0280585Y0061900D01*
X0282415Y0061900D01*
X0284106Y0062600D01*
X0285400Y0063894D01*
X0286100Y0065585D01*
X0286100Y0067415D01*
X0286100Y0066403D02*
X0362000Y0066403D01*
X0362000Y0065405D02*
X0286025Y0065405D01*
X0285612Y0064406D02*
X0362000Y0064406D01*
X0362000Y0063408D02*
X0284913Y0063408D01*
X0283644Y0062409D02*
X0362000Y0062409D01*
X0362000Y0061411D02*
X0260400Y0061411D01*
X0260400Y0062409D02*
X0279356Y0062409D01*
X0279657Y0060948D02*
X0278984Y0060605D01*
X0278373Y0060161D01*
X0277839Y0059627D01*
X0277395Y0059016D01*
X0277052Y0058343D01*
X0276818Y0057624D01*
X0276701Y0056886D01*
X0281114Y0056886D01*
X0281114Y0061299D01*
X0280376Y0061182D01*
X0279657Y0060948D01*
X0278718Y0060412D02*
X0260400Y0060412D01*
X0259929Y0059414D02*
X0277684Y0059414D01*
X0277089Y0058415D02*
X0258931Y0058415D01*
X0254069Y0058415D02*
X0238931Y0058415D01*
X0238115Y0057600D02*
X0240400Y0059885D01*
X0240400Y0063115D01*
X0238115Y0065400D01*
X0234885Y0065400D01*
X0232600Y0063115D01*
X0232600Y0059885D01*
X0234885Y0057600D01*
X0238115Y0057600D01*
X0239929Y0059414D02*
X0253071Y0059414D01*
X0252600Y0060412D02*
X0240400Y0060412D01*
X0240400Y0061411D02*
X0251922Y0061411D01*
X0250924Y0062409D02*
X0240400Y0062409D01*
X0240108Y0063408D02*
X0249925Y0063408D01*
X0248927Y0064406D02*
X0239109Y0064406D01*
X0233891Y0064406D02*
X0219109Y0064406D01*
X0218115Y0065400D02*
X0220400Y0063115D01*
X0220400Y0059885D01*
X0218115Y0057600D01*
X0214885Y0057600D01*
X0212600Y0059885D01*
X0212600Y0063115D01*
X0214885Y0065400D01*
X0218115Y0065400D01*
X0220108Y0063408D02*
X0232892Y0063408D01*
X0232600Y0062409D02*
X0220400Y0062409D01*
X0220400Y0061411D02*
X0232600Y0061411D01*
X0232600Y0060412D02*
X0220400Y0060412D01*
X0219929Y0059414D02*
X0233071Y0059414D01*
X0234069Y0058415D02*
X0218931Y0058415D01*
X0214069Y0058415D02*
X0198931Y0058415D01*
X0198115Y0057600D02*
X0200400Y0059885D01*
X0200400Y0063115D01*
X0198115Y0065400D01*
X0194885Y0065400D01*
X0192600Y0063115D01*
X0192600Y0059885D01*
X0194885Y0057600D01*
X0198115Y0057600D01*
X0199929Y0059414D02*
X0213071Y0059414D01*
X0212600Y0060412D02*
X0200400Y0060412D01*
X0200400Y0061411D02*
X0212600Y0061411D01*
X0212600Y0062409D02*
X0200400Y0062409D01*
X0200108Y0063408D02*
X0212892Y0063408D01*
X0213891Y0064406D02*
X0199109Y0064406D01*
X0193891Y0064406D02*
X0180612Y0064406D01*
X0181025Y0065405D02*
X0247928Y0065405D01*
X0246930Y0066403D02*
X0181100Y0066403D01*
X0181100Y0067402D02*
X0245931Y0067402D01*
X0250273Y0072394D02*
X0279392Y0072394D01*
X0278102Y0073393D02*
X0249274Y0073393D01*
X0248143Y0074391D02*
X0277394Y0074391D01*
X0276981Y0075390D02*
X0181019Y0075390D01*
X0181100Y0076388D02*
X0276900Y0076388D01*
X0276900Y0077387D02*
X0181100Y0077387D01*
X0180698Y0078385D02*
X0277302Y0078385D01*
X0277879Y0079384D02*
X0180121Y0079384D01*
X0179123Y0080382D02*
X0278877Y0080382D01*
X0279428Y0082379D02*
X0178572Y0082379D01*
X0179883Y0083378D02*
X0278117Y0083378D01*
X0277401Y0084376D02*
X0180599Y0084376D01*
X0181013Y0085375D02*
X0276987Y0085375D01*
X0276900Y0086373D02*
X0181100Y0086373D01*
X0181100Y0087372D02*
X0276900Y0087372D01*
X0277296Y0088370D02*
X0180704Y0088370D01*
X0180136Y0089369D02*
X0277864Y0089369D01*
X0278862Y0090368D02*
X0179138Y0090368D01*
X0178536Y0092365D02*
X0279464Y0092365D01*
X0278894Y0092600D02*
X0280585Y0091900D01*
X0282415Y0091900D01*
X0284106Y0092600D01*
X0285400Y0093894D01*
X0286100Y0095585D01*
X0286100Y0097415D01*
X0285400Y0099106D01*
X0284106Y0100400D01*
X0282415Y0101100D01*
X0280585Y0101100D01*
X0278894Y0100400D01*
X0277600Y0099106D01*
X0276900Y0097415D01*
X0276900Y0095585D01*
X0277600Y0093894D01*
X0278894Y0092600D01*
X0278132Y0093363D02*
X0179868Y0093363D01*
X0180593Y0094362D02*
X0277407Y0094362D01*
X0276993Y0095360D02*
X0181007Y0095360D01*
X0181100Y0096359D02*
X0276900Y0096359D01*
X0276900Y0097357D02*
X0181100Y0097357D01*
X0173862Y0090368D02*
X0172136Y0090368D01*
X0167817Y0085375D02*
X0166572Y0085375D01*
X0166708Y0086373D02*
X0165462Y0086373D01*
X0165598Y0087372D02*
X0164353Y0087372D01*
X0164489Y0088370D02*
X0163244Y0088370D01*
X0163379Y0089369D02*
X0161011Y0089369D01*
X0161100Y0090368D02*
X0162270Y0090368D01*
X0161160Y0091366D02*
X0161100Y0091366D01*
X0151900Y0091366D02*
X0111542Y0091366D01*
X0110502Y0090368D02*
X0151900Y0090368D01*
X0151989Y0089369D02*
X0109462Y0089369D01*
X0103052Y0092365D02*
X0070707Y0092365D01*
X0071100Y0091366D02*
X0102012Y0091366D01*
X0100972Y0090368D02*
X0071100Y0090368D01*
X0071011Y0089369D02*
X0099932Y0089369D01*
X0098892Y0088370D02*
X0070597Y0088370D01*
X0069877Y0087372D02*
X0097852Y0087372D01*
X0104092Y0093363D02*
X0070142Y0093363D01*
X0069144Y0094362D02*
X0105132Y0094362D01*
X0119487Y0083378D02*
X0119704Y0083378D01*
X0120287Y0082379D02*
X0120945Y0082379D01*
X0121286Y0081381D02*
X0151900Y0081381D01*
X0151900Y0080382D02*
X0122284Y0080382D01*
X0123283Y0079384D02*
X0151983Y0079384D01*
X0160113Y0073393D02*
X0160772Y0073393D01*
X0160694Y0072394D02*
X0162020Y0072394D01*
X0161100Y0071396D02*
X0163269Y0071396D01*
X0164517Y0070397D02*
X0161100Y0070397D01*
X0161023Y0069399D02*
X0165765Y0069399D01*
X0166605Y0069399D02*
X0172893Y0069399D01*
X0172308Y0068400D02*
X0160609Y0068400D01*
X0159907Y0067402D02*
X0171900Y0067402D01*
X0171900Y0066403D02*
X0158630Y0066403D01*
X0159090Y0064406D02*
X0172388Y0064406D01*
X0171975Y0065405D02*
X0127262Y0065405D01*
X0126264Y0066403D02*
X0154370Y0066403D01*
X0153093Y0067402D02*
X0125265Y0067402D01*
X0124267Y0068400D02*
X0152391Y0068400D01*
X0151977Y0069399D02*
X0123268Y0069399D01*
X0122270Y0070397D02*
X0151900Y0070397D01*
X0151900Y0071396D02*
X0121271Y0071396D01*
X0121374Y0072394D02*
X0120273Y0072394D01*
X0119940Y0073393D02*
X0119274Y0073393D01*
X0118942Y0074391D02*
X0118276Y0074391D01*
X0117943Y0075390D02*
X0117277Y0075390D01*
X0116945Y0076388D02*
X0116279Y0076388D01*
X0115946Y0077387D02*
X0115280Y0077387D01*
X0114931Y0078385D02*
X0114484Y0078385D01*
X0113698Y0079384D02*
X0113535Y0079384D01*
X0093200Y0074391D02*
X0069310Y0074391D01*
X0070331Y0073393D02*
X0093200Y0073393D01*
X0093200Y0072394D02*
X0070922Y0072394D01*
X0071218Y0071396D02*
X0093200Y0071396D01*
X0066886Y0066403D02*
X0066114Y0066403D01*
X0037101Y0051426D02*
X0027727Y0051426D01*
X0029131Y0050427D02*
X0035491Y0050427D01*
X0034535Y0049429D02*
X0029950Y0049429D01*
X0030435Y0048430D02*
X0034122Y0048430D01*
X0054473Y0041440D02*
X0061911Y0041440D01*
X0062324Y0042439D02*
X0056273Y0042439D01*
X0057271Y0043437D02*
X0062932Y0043437D01*
X0063982Y0044436D02*
X0057720Y0044436D01*
X0098177Y0048430D02*
X0152378Y0048430D01*
X0151965Y0049429D02*
X0099347Y0049429D01*
X0099820Y0050427D02*
X0151900Y0050427D01*
X0151904Y0051426D02*
X0099978Y0051426D01*
X0128261Y0064406D02*
X0153910Y0064406D01*
X0152902Y0063408D02*
X0129259Y0063408D01*
X0130258Y0062409D02*
X0152312Y0062409D01*
X0151900Y0061411D02*
X0131256Y0061411D01*
X0132255Y0060412D02*
X0151900Y0060412D01*
X0151971Y0059414D02*
X0133253Y0059414D01*
X0160098Y0063408D02*
X0173087Y0063408D01*
X0174356Y0062409D02*
X0160688Y0062409D01*
X0161100Y0061411D02*
X0192600Y0061411D01*
X0192600Y0062409D02*
X0178644Y0062409D01*
X0179913Y0063408D02*
X0192892Y0063408D01*
X0192600Y0060412D02*
X0179076Y0060412D01*
X0180092Y0059414D02*
X0193071Y0059414D01*
X0194069Y0058415D02*
X0180686Y0058415D01*
X0181099Y0057417D02*
X0276785Y0057417D01*
X0276811Y0055420D02*
X0181031Y0055420D01*
X0181100Y0056418D02*
X0281114Y0056418D01*
X0281114Y0056114D02*
X0281114Y0056886D01*
X0281886Y0056886D01*
X0281886Y0061299D01*
X0282624Y0061182D01*
X0283343Y0060948D01*
X0284016Y0060605D01*
X0284627Y0060161D01*
X0285161Y0059627D01*
X0285605Y0059016D01*
X0285948Y0058343D01*
X0286182Y0057624D01*
X0286299Y0056886D01*
X0281886Y0056886D01*
X0281886Y0056114D01*
X0286299Y0056114D01*
X0286182Y0055376D01*
X0285948Y0054657D01*
X0285605Y0053984D01*
X0285161Y0053373D01*
X0284627Y0052839D01*
X0284016Y0052395D01*
X0283343Y0052052D01*
X0282624Y0051818D01*
X0281886Y0051701D01*
X0281886Y0056114D01*
X0281114Y0056114D01*
X0281114Y0055420D02*
X0281886Y0055420D01*
X0281886Y0056418D02*
X0312600Y0056418D01*
X0312600Y0055420D02*
X0286189Y0055420D01*
X0285828Y0054421D02*
X0298906Y0054421D01*
X0299885Y0055400D02*
X0297600Y0053115D01*
X0297600Y0049885D01*
X0299885Y0047600D01*
X0303115Y0047600D01*
X0305250Y0049735D01*
X0307385Y0047600D01*
X0310615Y0047600D01*
X0312900Y0049885D01*
X0312900Y0053115D01*
X0310615Y0055400D01*
X0307385Y0055400D01*
X0305250Y0053265D01*
X0303115Y0055400D01*
X0299885Y0055400D01*
X0297907Y0053423D02*
X0285197Y0053423D01*
X0284056Y0052424D02*
X0297600Y0052424D01*
X0297600Y0051426D02*
X0281241Y0051426D01*
X0281114Y0052424D02*
X0281886Y0052424D01*
X0281886Y0053423D02*
X0281114Y0053423D01*
X0281114Y0054421D02*
X0281886Y0054421D01*
X0281886Y0057417D02*
X0281114Y0057417D01*
X0281114Y0058415D02*
X0281886Y0058415D01*
X0281886Y0059414D02*
X0281114Y0059414D01*
X0281114Y0060412D02*
X0281886Y0060412D01*
X0284282Y0060412D02*
X0362000Y0060412D01*
X0362000Y0059414D02*
X0319102Y0059414D01*
X0318115Y0060400D02*
X0314885Y0060400D01*
X0312600Y0058115D01*
X0312600Y0054885D01*
X0314885Y0052600D01*
X0318115Y0052600D01*
X0320400Y0054885D01*
X0320400Y0058115D01*
X0318115Y0060400D01*
X0320100Y0058415D02*
X0362000Y0058415D01*
X0362000Y0057417D02*
X0320400Y0057417D01*
X0320400Y0056418D02*
X0362000Y0056418D01*
X0362000Y0055420D02*
X0320400Y0055420D01*
X0319937Y0054421D02*
X0362000Y0054421D01*
X0362000Y0053423D02*
X0318938Y0053423D01*
X0314062Y0053423D02*
X0312593Y0053423D01*
X0312900Y0052424D02*
X0362000Y0052424D01*
X0362000Y0051426D02*
X0312900Y0051426D01*
X0312900Y0050427D02*
X0362000Y0050427D01*
X0362000Y0049429D02*
X0319087Y0049429D01*
X0318115Y0050400D02*
X0314885Y0050400D01*
X0312600Y0048115D01*
X0312600Y0044885D01*
X0314885Y0042600D01*
X0318115Y0042600D01*
X0320400Y0044885D01*
X0320400Y0048115D01*
X0318115Y0050400D01*
X0320085Y0048430D02*
X0362000Y0048430D01*
X0362000Y0047432D02*
X0320400Y0047432D01*
X0320400Y0046433D02*
X0362000Y0046433D01*
X0362000Y0045434D02*
X0320400Y0045434D01*
X0319951Y0044436D02*
X0362000Y0044436D01*
X0362000Y0043437D02*
X0318953Y0043437D01*
X0314047Y0043437D02*
X0284943Y0043437D01*
X0285624Y0044436D02*
X0313049Y0044436D01*
X0312600Y0045434D02*
X0286038Y0045434D01*
X0286100Y0046433D02*
X0312600Y0046433D01*
X0312600Y0047432D02*
X0286093Y0047432D01*
X0285680Y0048430D02*
X0299055Y0048430D01*
X0298056Y0049429D02*
X0285077Y0049429D01*
X0284040Y0050427D02*
X0297600Y0050427D01*
X0303945Y0048430D02*
X0306555Y0048430D01*
X0305556Y0049429D02*
X0304944Y0049429D01*
X0311445Y0048430D02*
X0312915Y0048430D01*
X0312444Y0049429D02*
X0313913Y0049429D01*
X0313063Y0054421D02*
X0311594Y0054421D01*
X0306406Y0054421D02*
X0304094Y0054421D01*
X0305093Y0053423D02*
X0305407Y0053423D01*
X0312600Y0057417D02*
X0286215Y0057417D01*
X0285911Y0058415D02*
X0312900Y0058415D01*
X0313898Y0059414D02*
X0285316Y0059414D01*
X0278087Y0063408D02*
X0260108Y0063408D01*
X0259109Y0064406D02*
X0277388Y0064406D01*
X0276975Y0065405D02*
X0257262Y0065405D01*
X0256264Y0066403D02*
X0276900Y0066403D01*
X0276900Y0067402D02*
X0255265Y0067402D01*
X0254267Y0068400D02*
X0277308Y0068400D01*
X0277893Y0069399D02*
X0253268Y0069399D01*
X0252270Y0070397D02*
X0278892Y0070397D01*
X0283608Y0072394D02*
X0310049Y0072394D01*
X0310000Y0071396D02*
X0251271Y0071396D01*
X0284108Y0070397D02*
X0310135Y0070397D01*
X0310549Y0069399D02*
X0285107Y0069399D01*
X0285692Y0068400D02*
X0311484Y0068400D01*
X0310463Y0073393D02*
X0284898Y0073393D01*
X0285606Y0074391D02*
X0311276Y0074391D01*
X0313100Y0075390D02*
X0286019Y0075390D01*
X0283536Y0092365D02*
X0296500Y0092365D01*
X0296500Y0093363D02*
X0284868Y0093363D01*
X0285593Y0094362D02*
X0296500Y0094362D01*
X0296500Y0095360D02*
X0286007Y0095360D01*
X0286100Y0096359D02*
X0296500Y0096359D01*
X0296500Y0097357D02*
X0286100Y0097357D01*
X0285710Y0098356D02*
X0296500Y0098356D01*
X0296500Y0099354D02*
X0285151Y0099354D01*
X0284153Y0100353D02*
X0296500Y0100353D01*
X0296500Y0101351D02*
X0271725Y0101351D01*
X0270727Y0100353D02*
X0278847Y0100353D01*
X0277849Y0099354D02*
X0269728Y0099354D01*
X0268730Y0098356D02*
X0277290Y0098356D01*
X0279499Y0102350D02*
X0272724Y0102350D01*
X0283501Y0102350D02*
X0296500Y0102350D01*
X0296500Y0103348D02*
X0284854Y0103348D01*
X0285587Y0104347D02*
X0296500Y0104347D01*
X0296500Y0105345D02*
X0286001Y0105345D01*
X0286100Y0106344D02*
X0296500Y0106344D01*
X0296500Y0107342D02*
X0286100Y0107342D01*
X0285717Y0108341D02*
X0296500Y0108341D01*
X0296500Y0109339D02*
X0285166Y0109339D01*
X0284168Y0110338D02*
X0296500Y0110338D01*
X0296500Y0111336D02*
X0271003Y0111336D01*
X0270005Y0110338D02*
X0278832Y0110338D01*
X0279535Y0112335D02*
X0272002Y0112335D01*
X0273000Y0113333D02*
X0278161Y0113333D01*
X0277600Y0113894D02*
X0276900Y0115585D01*
X0276900Y0117415D01*
X0277600Y0119106D01*
X0278894Y0120400D01*
X0280585Y0121100D01*
X0282415Y0121100D01*
X0284106Y0120400D01*
X0285400Y0119106D01*
X0286100Y0117415D01*
X0286100Y0115585D01*
X0285400Y0113894D01*
X0284106Y0112600D01*
X0282415Y0111900D01*
X0280585Y0111900D01*
X0278894Y0112600D01*
X0277600Y0113894D01*
X0277419Y0114332D02*
X0273999Y0114332D01*
X0274587Y0115330D02*
X0277005Y0115330D01*
X0276900Y0116329D02*
X0274800Y0116329D01*
X0274800Y0117327D02*
X0276900Y0117327D01*
X0277277Y0118326D02*
X0274800Y0118326D01*
X0274800Y0119324D02*
X0277819Y0119324D01*
X0278817Y0120323D02*
X0274800Y0120323D01*
X0274800Y0121321D02*
X0296500Y0121321D01*
X0296500Y0120323D02*
X0284183Y0120323D01*
X0285181Y0119324D02*
X0296500Y0119324D01*
X0296500Y0118326D02*
X0285723Y0118326D01*
X0286100Y0117327D02*
X0296500Y0117327D01*
X0296500Y0116329D02*
X0286100Y0116329D01*
X0285994Y0115330D02*
X0296500Y0115330D01*
X0296500Y0114332D02*
X0285581Y0114332D01*
X0284839Y0113333D02*
X0296500Y0113333D01*
X0296500Y0112335D02*
X0283465Y0112335D01*
X0268200Y0118326D02*
X0209831Y0118326D01*
X0210400Y0118894D02*
X0211100Y0120585D01*
X0211100Y0122415D01*
X0210400Y0124106D01*
X0209106Y0125400D01*
X0207415Y0126100D01*
X0205585Y0126100D01*
X0203894Y0125400D01*
X0202600Y0124106D01*
X0201900Y0122415D01*
X0201900Y0120585D01*
X0202600Y0118894D01*
X0203894Y0117600D01*
X0205585Y0116900D01*
X0207415Y0116900D01*
X0209106Y0117600D01*
X0210400Y0118894D01*
X0210578Y0119324D02*
X0268200Y0119324D01*
X0268200Y0120323D02*
X0210991Y0120323D01*
X0211100Y0121321D02*
X0268200Y0121321D01*
X0268200Y0122320D02*
X0211100Y0122320D01*
X0210726Y0123318D02*
X0268200Y0123318D01*
X0268200Y0124317D02*
X0210188Y0124317D01*
X0209190Y0125315D02*
X0268200Y0125315D01*
X0268200Y0126314D02*
X0181100Y0126314D01*
X0181100Y0125585D02*
X0180400Y0123894D01*
X0179106Y0122600D01*
X0177415Y0121900D01*
X0175585Y0121900D01*
X0173894Y0122600D01*
X0172600Y0123894D01*
X0171900Y0125585D01*
X0171900Y0127415D01*
X0172600Y0129106D01*
X0173894Y0130400D01*
X0175585Y0131100D01*
X0177415Y0131100D01*
X0179106Y0130400D01*
X0180400Y0129106D01*
X0181100Y0127415D01*
X0181100Y0125585D01*
X0180988Y0125315D02*
X0203810Y0125315D01*
X0202812Y0124317D02*
X0180575Y0124317D01*
X0179824Y0123318D02*
X0202274Y0123318D01*
X0201900Y0122320D02*
X0178429Y0122320D01*
X0179183Y0120323D02*
X0202009Y0120323D01*
X0201900Y0121321D02*
X0161100Y0121321D01*
X0161100Y0120323D02*
X0173817Y0120323D01*
X0172819Y0119324D02*
X0160992Y0119324D01*
X0160578Y0118326D02*
X0172277Y0118326D01*
X0171900Y0117327D02*
X0167643Y0117327D01*
X0168826Y0116329D02*
X0171900Y0116329D01*
X0172005Y0115330D02*
X0170074Y0115330D01*
X0171322Y0114332D02*
X0172419Y0114332D01*
X0180994Y0115330D02*
X0265663Y0115330D01*
X0266662Y0116329D02*
X0181100Y0116329D01*
X0181100Y0117327D02*
X0204553Y0117327D01*
X0203169Y0118326D02*
X0180723Y0118326D01*
X0180181Y0119324D02*
X0202422Y0119324D01*
X0208447Y0117327D02*
X0267660Y0117327D01*
X0274800Y0122320D02*
X0279571Y0122320D01*
X0278894Y0122600D02*
X0280585Y0121900D01*
X0282415Y0121900D01*
X0284106Y0122600D01*
X0285400Y0123894D01*
X0286100Y0125585D01*
X0286100Y0127415D01*
X0285400Y0129106D01*
X0284106Y0130400D01*
X0282415Y0131100D01*
X0280585Y0131100D01*
X0278894Y0130400D01*
X0277600Y0129106D01*
X0276900Y0127415D01*
X0276900Y0125585D01*
X0277600Y0123894D01*
X0278894Y0122600D01*
X0278176Y0123318D02*
X0274800Y0123318D01*
X0274800Y0124317D02*
X0277425Y0124317D01*
X0277012Y0125315D02*
X0274800Y0125315D01*
X0274800Y0126314D02*
X0276900Y0126314D01*
X0276900Y0127312D02*
X0274800Y0127312D01*
X0274800Y0128311D02*
X0277271Y0128311D01*
X0277804Y0129309D02*
X0274800Y0129309D01*
X0274800Y0130308D02*
X0278803Y0130308D01*
X0279607Y0132305D02*
X0274800Y0132305D01*
X0274800Y0133303D02*
X0278191Y0133303D01*
X0277600Y0133894D02*
X0276900Y0135585D01*
X0276900Y0137415D01*
X0277600Y0139106D01*
X0278894Y0140400D01*
X0280585Y0141100D01*
X0282415Y0141100D01*
X0284106Y0140400D01*
X0285400Y0139106D01*
X0286100Y0137415D01*
X0286100Y0135585D01*
X0285400Y0133894D01*
X0284106Y0132600D01*
X0282415Y0131900D01*
X0280585Y0131900D01*
X0278894Y0132600D01*
X0277600Y0133894D01*
X0277431Y0134302D02*
X0274800Y0134302D01*
X0274800Y0135301D02*
X0277018Y0135301D01*
X0276900Y0136299D02*
X0274800Y0136299D01*
X0274800Y0137298D02*
X0276900Y0137298D01*
X0277265Y0138296D02*
X0274800Y0138296D01*
X0274800Y0139295D02*
X0277789Y0139295D01*
X0278788Y0140293D02*
X0274800Y0140293D01*
X0274800Y0141292D02*
X0296500Y0141292D01*
X0296500Y0142290D02*
X0283357Y0142290D01*
X0284106Y0142600D02*
X0285400Y0143894D01*
X0286100Y0145585D01*
X0286100Y0147415D01*
X0285400Y0149106D01*
X0284106Y0150400D01*
X0282415Y0151100D01*
X0280585Y0151100D01*
X0278894Y0150400D01*
X0277600Y0149106D01*
X0276900Y0147415D01*
X0276900Y0145585D01*
X0277600Y0143894D01*
X0278894Y0142600D01*
X0280585Y0141900D01*
X0282415Y0141900D01*
X0284106Y0142600D01*
X0284794Y0143289D02*
X0296500Y0143289D01*
X0296500Y0144287D02*
X0285562Y0144287D01*
X0285976Y0145286D02*
X0296500Y0145286D01*
X0296500Y0146284D02*
X0286100Y0146284D01*
X0286100Y0147283D02*
X0296500Y0147283D01*
X0296500Y0148281D02*
X0285741Y0148281D01*
X0285226Y0149280D02*
X0296500Y0149280D01*
X0296500Y0150278D02*
X0284227Y0150278D01*
X0283321Y0152275D02*
X0296500Y0152275D01*
X0296500Y0151277D02*
X0275944Y0151277D01*
X0276942Y0152275D02*
X0279679Y0152275D01*
X0278773Y0150278D02*
X0274945Y0150278D01*
X0274800Y0149280D02*
X0277774Y0149280D01*
X0277259Y0148281D02*
X0274800Y0148281D01*
X0274800Y0147283D02*
X0276900Y0147283D01*
X0276900Y0146284D02*
X0274800Y0146284D01*
X0274800Y0145286D02*
X0277024Y0145286D01*
X0277438Y0144287D02*
X0274800Y0144287D01*
X0274800Y0143289D02*
X0278206Y0143289D01*
X0279643Y0142290D02*
X0274800Y0142290D01*
X0268200Y0142290D02*
X0211100Y0142290D01*
X0211100Y0142415D02*
X0210400Y0144106D01*
X0209106Y0145400D01*
X0207415Y0146100D01*
X0205585Y0146100D01*
X0203894Y0145400D01*
X0203295Y0144800D01*
X0192867Y0144800D01*
X0184626Y0153040D01*
X0184448Y0153470D01*
X0183470Y0154448D01*
X0182192Y0154978D01*
X0180849Y0154978D01*
X0181100Y0155585D01*
X0181100Y0157415D01*
X0180400Y0159106D01*
X0179106Y0160400D01*
X0177415Y0161100D01*
X0175585Y0161100D01*
X0173894Y0160400D01*
X0172600Y0159106D01*
X0171900Y0157415D01*
X0171900Y0155585D01*
X0172600Y0153894D01*
X0173894Y0152600D01*
X0175585Y0151900D01*
X0177415Y0151900D01*
X0178022Y0152151D01*
X0178022Y0151052D01*
X0177624Y0151182D01*
X0176886Y0151299D01*
X0176886Y0146886D01*
X0181299Y0146886D01*
X0181271Y0147062D01*
X0188702Y0139631D01*
X0189631Y0138702D01*
X0190844Y0138200D01*
X0203295Y0138200D01*
X0203894Y0137600D01*
X0205585Y0136900D01*
X0207415Y0136900D01*
X0209106Y0137600D01*
X0210400Y0138894D01*
X0211100Y0140585D01*
X0211100Y0142415D01*
X0210738Y0143289D02*
X0268200Y0143289D01*
X0268200Y0144287D02*
X0210218Y0144287D01*
X0209220Y0145286D02*
X0268200Y0145286D01*
X0268200Y0146284D02*
X0191383Y0146284D01*
X0192381Y0145286D02*
X0203780Y0145286D01*
X0204661Y0147283D02*
X0190384Y0147283D01*
X0189386Y0148281D02*
X0203213Y0148281D01*
X0202600Y0148894D02*
X0203894Y0147600D01*
X0205585Y0146900D01*
X0207415Y0146900D01*
X0209106Y0147600D01*
X0210400Y0148894D01*
X0211100Y0150585D01*
X0211100Y0152415D01*
X0210400Y0154106D01*
X0209106Y0155400D01*
X0207415Y0156100D01*
X0205585Y0156100D01*
X0203894Y0155400D01*
X0202600Y0154106D01*
X0201900Y0152415D01*
X0201900Y0150585D01*
X0202600Y0148894D01*
X0202441Y0149280D02*
X0188387Y0149280D01*
X0187389Y0150278D02*
X0202027Y0150278D01*
X0201900Y0151277D02*
X0186390Y0151277D01*
X0185392Y0152275D02*
X0201900Y0152275D01*
X0202256Y0153274D02*
X0184530Y0153274D01*
X0183646Y0154272D02*
X0202767Y0154272D01*
X0203765Y0155271D02*
X0180970Y0155271D01*
X0181100Y0156269D02*
X0271602Y0156269D01*
X0270604Y0155271D02*
X0209235Y0155271D01*
X0210233Y0154272D02*
X0269605Y0154272D01*
X0268663Y0153274D02*
X0210744Y0153274D01*
X0211100Y0152275D02*
X0268249Y0152275D01*
X0268200Y0151277D02*
X0211100Y0151277D01*
X0210973Y0150278D02*
X0268200Y0150278D01*
X0268200Y0149280D02*
X0210559Y0149280D01*
X0209787Y0148281D02*
X0268200Y0148281D01*
X0268200Y0147283D02*
X0208339Y0147283D01*
X0211100Y0141292D02*
X0268200Y0141292D01*
X0268200Y0140293D02*
X0210979Y0140293D01*
X0210565Y0139295D02*
X0268200Y0139295D01*
X0268200Y0138296D02*
X0209801Y0138296D01*
X0208375Y0137298D02*
X0268200Y0137298D01*
X0268200Y0136299D02*
X0181100Y0136299D01*
X0181100Y0135585D02*
X0180400Y0133894D01*
X0179106Y0132600D01*
X0177415Y0131900D01*
X0175585Y0131900D01*
X0173894Y0132600D01*
X0172600Y0133894D01*
X0171900Y0135585D01*
X0171900Y0137415D01*
X0172600Y0139106D01*
X0173894Y0140400D01*
X0175585Y0141100D01*
X0177415Y0141100D01*
X0179106Y0140400D01*
X0180400Y0139106D01*
X0181100Y0137415D01*
X0181100Y0135585D01*
X0180982Y0135301D02*
X0203565Y0135301D01*
X0203373Y0135161D02*
X0203984Y0135605D01*
X0204657Y0135948D01*
X0205376Y0136182D01*
X0206114Y0136299D01*
X0206114Y0131886D01*
X0206886Y0131886D01*
X0206886Y0136299D01*
X0207624Y0136182D01*
X0208343Y0135948D01*
X0209016Y0135605D01*
X0209627Y0135161D01*
X0210161Y0134627D01*
X0210605Y0134016D01*
X0210948Y0133343D01*
X0211182Y0132624D01*
X0211299Y0131886D01*
X0206886Y0131886D01*
X0206886Y0131114D01*
X0211299Y0131114D01*
X0211182Y0130376D01*
X0210948Y0129657D01*
X0210605Y0128984D01*
X0210161Y0128373D01*
X0209627Y0127839D01*
X0209016Y0127395D01*
X0208343Y0127052D01*
X0207624Y0126818D01*
X0206886Y0126701D01*
X0206886Y0131114D01*
X0206114Y0131114D01*
X0201701Y0131114D01*
X0201818Y0130376D01*
X0202052Y0129657D01*
X0202395Y0128984D01*
X0202839Y0128373D01*
X0203373Y0127839D01*
X0203984Y0127395D01*
X0204657Y0127052D01*
X0205376Y0126818D01*
X0206114Y0126701D01*
X0206114Y0131114D01*
X0206114Y0131886D01*
X0201701Y0131886D01*
X0201818Y0132624D01*
X0202052Y0133343D01*
X0202395Y0134016D01*
X0202839Y0134627D01*
X0203373Y0135161D01*
X0202603Y0134302D02*
X0180569Y0134302D01*
X0179809Y0133303D02*
X0202039Y0133303D01*
X0201768Y0132305D02*
X0178393Y0132305D01*
X0179197Y0130308D02*
X0201840Y0130308D01*
X0202229Y0129309D02*
X0180196Y0129309D01*
X0180729Y0128311D02*
X0202901Y0128311D01*
X0204146Y0127312D02*
X0181100Y0127312D01*
X0173803Y0130308D02*
X0161100Y0130308D01*
X0161100Y0129585D02*
X0160400Y0127894D01*
X0159106Y0126600D01*
X0157415Y0125900D01*
X0155585Y0125900D01*
X0153894Y0126600D01*
X0152600Y0127894D01*
X0151900Y0129585D01*
X0151900Y0131415D01*
X0152600Y0133106D01*
X0153894Y0134400D01*
X0155585Y0135100D01*
X0157415Y0135100D01*
X0159106Y0134400D01*
X0160400Y0133106D01*
X0161100Y0131415D01*
X0161100Y0129585D01*
X0160986Y0129309D02*
X0172804Y0129309D01*
X0172271Y0128311D02*
X0160572Y0128311D01*
X0159818Y0127312D02*
X0171900Y0127312D01*
X0171900Y0126314D02*
X0158414Y0126314D01*
X0159188Y0124317D02*
X0172425Y0124317D01*
X0172012Y0125315D02*
X0006000Y0125315D01*
X0006000Y0124317D02*
X0063812Y0124317D01*
X0062813Y0123318D02*
X0006000Y0123318D01*
X0006000Y0122320D02*
X0062275Y0122320D01*
X0061900Y0121321D02*
X0006000Y0121321D01*
X0006000Y0120323D02*
X0061900Y0120323D01*
X0062008Y0119324D02*
X0006000Y0119324D01*
X0006000Y0118326D02*
X0062422Y0118326D01*
X0063167Y0117327D02*
X0006000Y0117327D01*
X0006000Y0116329D02*
X0064550Y0116329D01*
X0070172Y0113333D02*
X0129748Y0113333D01*
X0131053Y0112335D02*
X0070719Y0112335D01*
X0070992Y0119324D02*
X0152008Y0119324D01*
X0151900Y0120323D02*
X0071100Y0120323D01*
X0071100Y0121321D02*
X0151900Y0121321D01*
X0152275Y0122320D02*
X0070725Y0122320D01*
X0070187Y0123318D02*
X0152813Y0123318D01*
X0153812Y0124317D02*
X0069188Y0124317D01*
X0068414Y0126314D02*
X0154586Y0126314D01*
X0153182Y0127312D02*
X0069818Y0127312D01*
X0070400Y0127894D02*
X0071100Y0129585D01*
X0071100Y0131415D01*
X0070400Y0133106D01*
X0069106Y0134400D01*
X0067415Y0135100D01*
X0065585Y0135100D01*
X0063894Y0134400D01*
X0062600Y0133106D01*
X0061900Y0131415D01*
X0061900Y0129585D01*
X0062600Y0127894D01*
X0063894Y0126600D01*
X0065585Y0125900D01*
X0067415Y0125900D01*
X0069106Y0126600D01*
X0070400Y0127894D01*
X0070572Y0128311D02*
X0152428Y0128311D01*
X0152014Y0129309D02*
X0070986Y0129309D01*
X0071100Y0130308D02*
X0151900Y0130308D01*
X0151900Y0131306D02*
X0071100Y0131306D01*
X0070731Y0132305D02*
X0152269Y0132305D01*
X0152798Y0133303D02*
X0070202Y0133303D01*
X0069203Y0134302D02*
X0153797Y0134302D01*
X0154657Y0136052D02*
X0155376Y0135818D01*
X0156114Y0135701D01*
X0156114Y0140114D01*
X0156886Y0140114D01*
X0156886Y0140886D01*
X0161299Y0140886D01*
X0161182Y0141624D01*
X0160948Y0142343D01*
X0160605Y0143016D01*
X0160161Y0143627D01*
X0159627Y0144161D01*
X0159016Y0144605D01*
X0158343Y0144948D01*
X0157624Y0145182D01*
X0156886Y0145299D01*
X0156886Y0140886D01*
X0156114Y0140886D01*
X0156114Y0145299D01*
X0155376Y0145182D01*
X0154657Y0144948D01*
X0153984Y0144605D01*
X0153373Y0144161D01*
X0152839Y0143627D01*
X0152395Y0143016D01*
X0152052Y0142343D01*
X0151818Y0141624D01*
X0151701Y0140886D01*
X0156114Y0140886D01*
X0156114Y0140114D01*
X0151701Y0140114D01*
X0151818Y0139376D01*
X0152052Y0138657D01*
X0152395Y0137984D01*
X0152839Y0137373D01*
X0153373Y0136839D01*
X0153984Y0136395D01*
X0154657Y0136052D01*
X0154172Y0136299D02*
X0068378Y0136299D01*
X0069106Y0136600D02*
X0067415Y0135900D01*
X0065585Y0135900D01*
X0063894Y0136600D01*
X0062600Y0137894D01*
X0061900Y0139585D01*
X0061900Y0141415D01*
X0062600Y0143106D01*
X0063894Y0144400D01*
X0065585Y0145100D01*
X0067415Y0145100D01*
X0069106Y0144400D01*
X0070400Y0143106D01*
X0071100Y0141415D01*
X0071100Y0139585D01*
X0070400Y0137894D01*
X0069106Y0136600D01*
X0069803Y0137298D02*
X0152914Y0137298D01*
X0152236Y0138296D02*
X0070566Y0138296D01*
X0070980Y0139295D02*
X0151845Y0139295D01*
X0151766Y0141292D02*
X0071100Y0141292D01*
X0071100Y0140293D02*
X0156114Y0140293D01*
X0156886Y0140293D02*
X0173788Y0140293D01*
X0172789Y0139295D02*
X0161155Y0139295D01*
X0161182Y0139376D02*
X0161299Y0140114D01*
X0156886Y0140114D01*
X0156886Y0135701D01*
X0157624Y0135818D01*
X0158343Y0136052D01*
X0159016Y0136395D01*
X0159627Y0136839D01*
X0160161Y0137373D01*
X0160605Y0137984D01*
X0160948Y0138657D01*
X0161182Y0139376D01*
X0160764Y0138296D02*
X0172265Y0138296D01*
X0171900Y0137298D02*
X0160086Y0137298D01*
X0158828Y0136299D02*
X0171900Y0136299D01*
X0172018Y0135301D02*
X0006000Y0135301D01*
X0006000Y0136299D02*
X0064622Y0136299D01*
X0063197Y0137298D02*
X0006000Y0137298D01*
X0006000Y0138296D02*
X0062434Y0138296D01*
X0062020Y0139295D02*
X0006000Y0139295D01*
X0006000Y0140293D02*
X0061900Y0140293D01*
X0061900Y0141292D02*
X0006000Y0141292D01*
X0006000Y0142290D02*
X0062262Y0142290D01*
X0062783Y0143289D02*
X0006000Y0143289D01*
X0006000Y0144287D02*
X0063782Y0144287D01*
X0064658Y0146284D02*
X0006000Y0146284D01*
X0006000Y0145286D02*
X0156032Y0145286D01*
X0156114Y0145286D02*
X0156886Y0145286D01*
X0156968Y0145286D02*
X0171848Y0145286D01*
X0171818Y0145376D02*
X0172052Y0144657D01*
X0172395Y0143984D01*
X0172839Y0143373D01*
X0173373Y0142839D01*
X0173984Y0142395D01*
X0174657Y0142052D01*
X0175376Y0141818D01*
X0176114Y0141701D01*
X0176114Y0146114D01*
X0176886Y0146114D01*
X0176886Y0146886D01*
X0176114Y0146886D01*
X0176114Y0151299D01*
X0175376Y0151182D01*
X0174657Y0150948D01*
X0173984Y0150605D01*
X0173373Y0150161D01*
X0172839Y0149627D01*
X0172395Y0149016D01*
X0172052Y0148343D01*
X0171818Y0147624D01*
X0171701Y0146886D01*
X0176114Y0146886D01*
X0176114Y0146114D01*
X0171701Y0146114D01*
X0171818Y0145376D01*
X0172240Y0144287D02*
X0159454Y0144287D01*
X0160407Y0143289D02*
X0172923Y0143289D01*
X0174189Y0142290D02*
X0160965Y0142290D01*
X0161234Y0141292D02*
X0187042Y0141292D01*
X0188040Y0140293D02*
X0179212Y0140293D01*
X0180211Y0139295D02*
X0189039Y0139295D01*
X0190612Y0138296D02*
X0180735Y0138296D01*
X0181100Y0137298D02*
X0204625Y0137298D01*
X0206114Y0135301D02*
X0206886Y0135301D01*
X0206886Y0134302D02*
X0206114Y0134302D01*
X0206114Y0133303D02*
X0206886Y0133303D01*
X0206886Y0132305D02*
X0206114Y0132305D01*
X0206114Y0131306D02*
X0161100Y0131306D01*
X0160731Y0132305D02*
X0174607Y0132305D01*
X0173191Y0133303D02*
X0160202Y0133303D01*
X0159203Y0134302D02*
X0172431Y0134302D01*
X0176886Y0141701D02*
X0177624Y0141818D01*
X0178343Y0142052D01*
X0179016Y0142395D01*
X0179627Y0142839D01*
X0180161Y0143373D01*
X0180605Y0143984D01*
X0180948Y0144657D01*
X0181182Y0145376D01*
X0181299Y0146114D01*
X0176886Y0146114D01*
X0176886Y0141701D01*
X0176886Y0142290D02*
X0176114Y0142290D01*
X0176114Y0143289D02*
X0176886Y0143289D01*
X0176886Y0144287D02*
X0176114Y0144287D01*
X0176114Y0145286D02*
X0176886Y0145286D01*
X0176886Y0146284D02*
X0182049Y0146284D01*
X0181152Y0145286D02*
X0183047Y0145286D01*
X0184046Y0144287D02*
X0180760Y0144287D01*
X0180077Y0143289D02*
X0185044Y0143289D01*
X0186043Y0142290D02*
X0178810Y0142290D01*
X0176114Y0146284D02*
X0158342Y0146284D01*
X0159106Y0146600D02*
X0160400Y0147894D01*
X0161100Y0149585D01*
X0161100Y0151415D01*
X0160400Y0153106D01*
X0159106Y0154400D01*
X0157415Y0155100D01*
X0155585Y0155100D01*
X0153894Y0154400D01*
X0152600Y0153106D01*
X0151900Y0151415D01*
X0151900Y0149585D01*
X0152600Y0147894D01*
X0153894Y0146600D01*
X0155585Y0145900D01*
X0157415Y0145900D01*
X0159106Y0146600D01*
X0159788Y0147283D02*
X0171764Y0147283D01*
X0172032Y0148281D02*
X0160560Y0148281D01*
X0160974Y0149280D02*
X0172586Y0149280D01*
X0173534Y0150278D02*
X0161100Y0150278D01*
X0161100Y0151277D02*
X0175975Y0151277D01*
X0176114Y0151277D02*
X0176886Y0151277D01*
X0177025Y0151277D02*
X0178022Y0151277D01*
X0176886Y0150278D02*
X0176114Y0150278D01*
X0176114Y0149280D02*
X0176886Y0149280D01*
X0176886Y0148281D02*
X0176114Y0148281D01*
X0176114Y0147283D02*
X0176886Y0147283D01*
X0174679Y0152275D02*
X0160744Y0152275D01*
X0160232Y0153274D02*
X0173221Y0153274D01*
X0172444Y0154272D02*
X0159233Y0154272D01*
X0158306Y0156269D02*
X0171900Y0156269D01*
X0171900Y0157268D02*
X0159773Y0157268D01*
X0160400Y0157894D02*
X0159106Y0156600D01*
X0157415Y0155900D01*
X0155585Y0155900D01*
X0153894Y0156600D01*
X0152600Y0157894D01*
X0151900Y0159585D01*
X0151900Y0160151D01*
X0144425Y0148938D01*
X0144298Y0148631D01*
X0144065Y0148398D01*
X0143882Y0148123D01*
X0143605Y0147938D01*
X0143369Y0147702D01*
X0143065Y0147576D01*
X0142791Y0147393D01*
X0142464Y0147327D01*
X0142156Y0147200D01*
X0141827Y0147200D01*
X0141504Y0147135D01*
X0141177Y0147200D01*
X0069705Y0147200D01*
X0069106Y0146600D01*
X0067415Y0145900D01*
X0065585Y0145900D01*
X0063894Y0146600D01*
X0062600Y0147894D01*
X0061900Y0149585D01*
X0061900Y0151415D01*
X0062600Y0153106D01*
X0063894Y0154400D01*
X0065585Y0155100D01*
X0067415Y0155100D01*
X0069106Y0154400D01*
X0069705Y0153800D01*
X0139734Y0153800D01*
X0149118Y0167877D01*
X0150209Y0168607D01*
X0151496Y0168865D01*
X0152261Y0168713D01*
X0151900Y0169585D01*
X0151900Y0171415D01*
X0152600Y0173106D01*
X0153894Y0174400D01*
X0155585Y0175100D01*
X0157415Y0175100D01*
X0159106Y0174400D01*
X0160400Y0173106D01*
X0161100Y0171415D01*
X0161100Y0169585D01*
X0160761Y0168766D01*
X0160844Y0168800D01*
X0190173Y0168800D01*
X0190496Y0168865D01*
X0190823Y0168800D01*
X0191156Y0168800D01*
X0191461Y0168674D01*
X0191784Y0168610D01*
X0192062Y0168425D01*
X0192369Y0168298D01*
X0192602Y0168065D01*
X0197499Y0164800D01*
X0203295Y0164800D01*
X0203894Y0165400D01*
X0205585Y0166100D01*
X0207415Y0166100D01*
X0209106Y0165400D01*
X0210400Y0164106D01*
X0211100Y0162415D01*
X0211100Y0160585D01*
X0210400Y0158894D01*
X0209106Y0157600D01*
X0207415Y0156900D01*
X0205585Y0156900D01*
X0203894Y0157600D01*
X0203295Y0158200D01*
X0196827Y0158200D01*
X0196504Y0158135D01*
X0196177Y0158200D01*
X0195844Y0158200D01*
X0195539Y0158326D01*
X0195216Y0158390D01*
X0194938Y0158575D01*
X0194631Y0158702D01*
X0194398Y0158935D01*
X0189501Y0162200D01*
X0160844Y0162200D01*
X0160761Y0162234D01*
X0161100Y0161415D01*
X0161100Y0159585D01*
X0160400Y0157894D01*
X0160554Y0158266D02*
X0172253Y0158266D01*
X0172759Y0159265D02*
X0160967Y0159265D01*
X0161100Y0160263D02*
X0173758Y0160263D01*
X0179242Y0160263D02*
X0192406Y0160263D01*
X0193904Y0159265D02*
X0180241Y0159265D01*
X0180747Y0158266D02*
X0195684Y0158266D01*
X0190908Y0161262D02*
X0161100Y0161262D01*
X0154694Y0156269D02*
X0149312Y0156269D01*
X0148647Y0155271D02*
X0172030Y0155271D01*
X0181100Y0157268D02*
X0204697Y0157268D01*
X0208303Y0157268D02*
X0272601Y0157268D01*
X0273599Y0158266D02*
X0209772Y0158266D01*
X0210553Y0159265D02*
X0274598Y0159265D01*
X0278758Y0160263D02*
X0210967Y0160263D01*
X0211100Y0161262D02*
X0296500Y0161262D01*
X0296500Y0162260D02*
X0211100Y0162260D01*
X0210750Y0163259D02*
X0296500Y0163259D01*
X0296500Y0164257D02*
X0210248Y0164257D01*
X0209250Y0165256D02*
X0296500Y0165256D01*
X0296500Y0166254D02*
X0195318Y0166254D01*
X0196815Y0165256D02*
X0203750Y0165256D01*
X0204657Y0167052D02*
X0205376Y0166818D01*
X0206114Y0166701D01*
X0206114Y0171114D01*
X0201701Y0171114D01*
X0201818Y0170376D01*
X0202052Y0169657D01*
X0202395Y0168984D01*
X0202839Y0168373D01*
X0203373Y0167839D01*
X0203984Y0167395D01*
X0204657Y0167052D01*
X0204263Y0167253D02*
X0193820Y0167253D01*
X0192415Y0168251D02*
X0202960Y0168251D01*
X0202259Y0169250D02*
X0160961Y0169250D01*
X0161100Y0170248D02*
X0201860Y0170248D01*
X0201701Y0171886D02*
X0206114Y0171886D01*
X0206114Y0176299D01*
X0205376Y0176182D01*
X0204657Y0175948D01*
X0203984Y0175605D01*
X0203373Y0175161D01*
X0202839Y0174627D01*
X0202395Y0174016D01*
X0202052Y0173343D01*
X0201818Y0172624D01*
X0201701Y0171886D01*
X0201758Y0172245D02*
X0160756Y0172245D01*
X0161100Y0171247D02*
X0206114Y0171247D01*
X0206114Y0171114D02*
X0206114Y0171886D01*
X0206886Y0171886D01*
X0206886Y0176299D01*
X0207624Y0176182D01*
X0208343Y0175948D01*
X0209016Y0175605D01*
X0209627Y0175161D01*
X0210161Y0174627D01*
X0210605Y0174016D01*
X0210948Y0173343D01*
X0211182Y0172624D01*
X0211299Y0171886D01*
X0206886Y0171886D01*
X0206886Y0171114D01*
X0211299Y0171114D01*
X0211182Y0170376D01*
X0210948Y0169657D01*
X0210605Y0168984D01*
X0210161Y0168373D01*
X0209627Y0167839D01*
X0209016Y0167395D01*
X0208343Y0167052D01*
X0207624Y0166818D01*
X0206886Y0166701D01*
X0206886Y0171114D01*
X0206114Y0171114D01*
X0206886Y0171247D02*
X0296500Y0171247D01*
X0296500Y0172245D02*
X0211242Y0172245D01*
X0210980Y0173244D02*
X0296500Y0173244D01*
X0296500Y0174242D02*
X0210441Y0174242D01*
X0209517Y0175241D02*
X0296500Y0175241D01*
X0296500Y0176239D02*
X0207260Y0176239D01*
X0206886Y0176239D02*
X0206114Y0176239D01*
X0205740Y0176239D02*
X0158235Y0176239D01*
X0157415Y0175900D02*
X0159106Y0176600D01*
X0160400Y0177894D01*
X0161100Y0179585D01*
X0161100Y0181415D01*
X0160400Y0183106D01*
X0159106Y0184400D01*
X0157415Y0185100D01*
X0155585Y0185100D01*
X0153894Y0184400D01*
X0152600Y0183106D01*
X0151900Y0181415D01*
X0151900Y0179585D01*
X0152600Y0177894D01*
X0153894Y0176600D01*
X0155585Y0175900D01*
X0157415Y0175900D01*
X0159263Y0174242D02*
X0202559Y0174242D01*
X0202020Y0173244D02*
X0160261Y0173244D01*
X0159743Y0177238D02*
X0296500Y0177238D01*
X0296500Y0178237D02*
X0160541Y0178237D01*
X0160955Y0179235D02*
X0296500Y0179235D01*
X0296500Y0180234D02*
X0161100Y0180234D01*
X0161100Y0181232D02*
X0296500Y0181232D01*
X0296500Y0182231D02*
X0160762Y0182231D01*
X0160276Y0183229D02*
X0296500Y0183229D01*
X0296500Y0184228D02*
X0159278Y0184228D01*
X0158199Y0186225D02*
X0296500Y0186225D01*
X0296500Y0187223D02*
X0159728Y0187223D01*
X0160535Y0188222D02*
X0296500Y0188222D01*
X0296500Y0189220D02*
X0160949Y0189220D01*
X0161100Y0190219D02*
X0296500Y0190219D01*
X0296500Y0191217D02*
X0161100Y0191217D01*
X0160768Y0192216D02*
X0296500Y0192216D01*
X0296500Y0193214D02*
X0160291Y0193214D01*
X0152709Y0193214D02*
X0070291Y0193214D01*
X0070768Y0192216D02*
X0152232Y0192216D01*
X0151900Y0191217D02*
X0071100Y0191217D01*
X0071100Y0190219D02*
X0151900Y0190219D01*
X0152051Y0189220D02*
X0070949Y0189220D01*
X0070535Y0188222D02*
X0152465Y0188222D01*
X0153272Y0187223D02*
X0069728Y0187223D01*
X0068199Y0186225D02*
X0154801Y0186225D01*
X0153722Y0184228D02*
X0069278Y0184228D01*
X0069106Y0184400D02*
X0067415Y0185100D01*
X0065585Y0185100D01*
X0063894Y0184400D01*
X0062600Y0183106D01*
X0061900Y0181415D01*
X0061900Y0179585D01*
X0062600Y0177894D01*
X0063894Y0176600D01*
X0065585Y0175900D01*
X0067415Y0175900D01*
X0069106Y0176600D01*
X0070400Y0177894D01*
X0071100Y0179585D01*
X0071100Y0181415D01*
X0070400Y0183106D01*
X0069106Y0184400D01*
X0070276Y0183229D02*
X0152724Y0183229D01*
X0152238Y0182231D02*
X0070762Y0182231D01*
X0071100Y0181232D02*
X0151900Y0181232D01*
X0151900Y0180234D02*
X0071100Y0180234D01*
X0070955Y0179235D02*
X0152045Y0179235D01*
X0152459Y0178237D02*
X0070541Y0178237D01*
X0069743Y0177238D02*
X0153257Y0177238D01*
X0154765Y0176239D02*
X0068235Y0176239D01*
X0067415Y0175100D02*
X0065585Y0175100D01*
X0063894Y0174400D01*
X0062600Y0173106D01*
X0061900Y0171415D01*
X0061900Y0169585D01*
X0062600Y0167894D01*
X0063894Y0166600D01*
X0065585Y0165900D01*
X0067415Y0165900D01*
X0069106Y0166600D01*
X0070400Y0167894D01*
X0071100Y0169585D01*
X0071100Y0171415D01*
X0070400Y0173106D01*
X0069106Y0174400D01*
X0067415Y0175100D01*
X0069263Y0174242D02*
X0153737Y0174242D01*
X0152739Y0173244D02*
X0070261Y0173244D01*
X0070756Y0172245D02*
X0152244Y0172245D01*
X0151900Y0171247D02*
X0071100Y0171247D01*
X0071100Y0170248D02*
X0151900Y0170248D01*
X0152039Y0169250D02*
X0070961Y0169250D01*
X0070548Y0168251D02*
X0149678Y0168251D01*
X0148702Y0167253D02*
X0069758Y0167253D01*
X0068271Y0166254D02*
X0148037Y0166254D01*
X0147371Y0165256D02*
X0006000Y0165256D01*
X0006000Y0166254D02*
X0064729Y0166254D01*
X0065585Y0165100D02*
X0063894Y0164400D01*
X0062600Y0163106D01*
X0061900Y0161415D01*
X0061900Y0159585D01*
X0062600Y0157894D01*
X0063894Y0156600D01*
X0065585Y0155900D01*
X0067415Y0155900D01*
X0069106Y0156600D01*
X0070400Y0157894D01*
X0071100Y0159585D01*
X0071100Y0161415D01*
X0070400Y0163106D01*
X0069106Y0164400D01*
X0067415Y0165100D01*
X0065585Y0165100D01*
X0063752Y0164257D02*
X0006000Y0164257D01*
X0006000Y0163259D02*
X0062753Y0163259D01*
X0062250Y0162260D02*
X0006000Y0162260D01*
X0006000Y0161262D02*
X0061900Y0161262D01*
X0061900Y0160263D02*
X0006000Y0160263D01*
X0006000Y0159265D02*
X0062033Y0159265D01*
X0062446Y0158266D02*
X0006000Y0158266D01*
X0006000Y0157268D02*
X0063227Y0157268D01*
X0064694Y0156269D02*
X0006000Y0156269D01*
X0006000Y0155271D02*
X0140714Y0155271D01*
X0140049Y0154272D02*
X0069233Y0154272D01*
X0068306Y0156269D02*
X0141380Y0156269D01*
X0142046Y0157268D02*
X0069773Y0157268D01*
X0070554Y0158266D02*
X0142711Y0158266D01*
X0143377Y0159265D02*
X0070967Y0159265D01*
X0071100Y0160263D02*
X0144043Y0160263D01*
X0144708Y0161262D02*
X0071100Y0161262D01*
X0070750Y0162260D02*
X0145374Y0162260D01*
X0146040Y0163259D02*
X0070247Y0163259D01*
X0069248Y0164257D02*
X0146705Y0164257D01*
X0151309Y0159265D02*
X0152033Y0159265D01*
X0152446Y0158266D02*
X0150644Y0158266D01*
X0149978Y0157268D02*
X0153227Y0157268D01*
X0153767Y0154272D02*
X0147981Y0154272D01*
X0147315Y0153274D02*
X0152768Y0153274D01*
X0152256Y0152275D02*
X0146650Y0152275D01*
X0145984Y0151277D02*
X0151900Y0151277D01*
X0151900Y0150278D02*
X0145318Y0150278D01*
X0144653Y0149280D02*
X0152026Y0149280D01*
X0152440Y0148281D02*
X0143987Y0148281D01*
X0142356Y0147283D02*
X0153212Y0147283D01*
X0154658Y0146284D02*
X0068342Y0146284D01*
X0069218Y0144287D02*
X0153546Y0144287D01*
X0152593Y0143289D02*
X0070217Y0143289D01*
X0070738Y0142290D02*
X0152035Y0142290D01*
X0156114Y0142290D02*
X0156886Y0142290D01*
X0156886Y0141292D02*
X0156114Y0141292D01*
X0156114Y0143289D02*
X0156886Y0143289D01*
X0156886Y0144287D02*
X0156114Y0144287D01*
X0156114Y0139295D02*
X0156886Y0139295D01*
X0156886Y0138296D02*
X0156114Y0138296D01*
X0156114Y0137298D02*
X0156886Y0137298D01*
X0156886Y0136299D02*
X0156114Y0136299D01*
X0160187Y0123318D02*
X0173176Y0123318D01*
X0174571Y0122320D02*
X0160725Y0122320D01*
X0206114Y0127312D02*
X0206886Y0127312D01*
X0206886Y0128311D02*
X0206114Y0128311D01*
X0206114Y0129309D02*
X0206886Y0129309D01*
X0206886Y0130308D02*
X0206114Y0130308D01*
X0206886Y0131306D02*
X0268200Y0131306D01*
X0268200Y0130308D02*
X0211160Y0130308D01*
X0210771Y0129309D02*
X0268200Y0129309D01*
X0268200Y0128311D02*
X0210099Y0128311D01*
X0208854Y0127312D02*
X0268200Y0127312D01*
X0268200Y0132305D02*
X0211232Y0132305D01*
X0210961Y0133303D02*
X0268200Y0133303D01*
X0268200Y0134302D02*
X0210397Y0134302D01*
X0209435Y0135301D02*
X0268200Y0135301D01*
X0274800Y0131306D02*
X0296500Y0131306D01*
X0296500Y0130308D02*
X0284197Y0130308D01*
X0285196Y0129309D02*
X0296500Y0129309D01*
X0296500Y0128311D02*
X0285729Y0128311D01*
X0286100Y0127312D02*
X0296500Y0127312D01*
X0296500Y0126314D02*
X0286100Y0126314D01*
X0285988Y0125315D02*
X0296500Y0125315D01*
X0296500Y0124317D02*
X0285575Y0124317D01*
X0284824Y0123318D02*
X0296500Y0123318D01*
X0296500Y0122320D02*
X0283429Y0122320D01*
X0283393Y0132305D02*
X0296500Y0132305D01*
X0296500Y0133303D02*
X0284809Y0133303D01*
X0285569Y0134302D02*
X0296500Y0134302D01*
X0296500Y0135301D02*
X0285982Y0135301D01*
X0286100Y0136299D02*
X0296500Y0136299D01*
X0296500Y0137298D02*
X0286100Y0137298D01*
X0285735Y0138296D02*
X0296500Y0138296D01*
X0296500Y0139295D02*
X0285211Y0139295D01*
X0284212Y0140293D02*
X0296500Y0140293D01*
X0296500Y0153274D02*
X0284779Y0153274D01*
X0285556Y0154272D02*
X0296500Y0154272D01*
X0296500Y0155271D02*
X0285970Y0155271D01*
X0286100Y0156269D02*
X0296500Y0156269D01*
X0296500Y0157268D02*
X0286100Y0157268D01*
X0285747Y0158266D02*
X0296500Y0158266D01*
X0296500Y0159265D02*
X0285241Y0159265D01*
X0284242Y0160263D02*
X0296500Y0160263D01*
X0296500Y0167253D02*
X0208737Y0167253D01*
X0210040Y0168251D02*
X0296500Y0168251D01*
X0296500Y0169250D02*
X0210741Y0169250D01*
X0211140Y0170248D02*
X0296500Y0170248D01*
X0296500Y0185226D02*
X0021512Y0185226D01*
X0021512Y0186225D02*
X0064801Y0186225D01*
X0063272Y0187223D02*
X0021512Y0187223D01*
X0021512Y0188222D02*
X0062465Y0188222D01*
X0062051Y0189220D02*
X0021210Y0189220D01*
X0020796Y0190219D02*
X0061900Y0190219D01*
X0061900Y0191217D02*
X0020383Y0191217D01*
X0019943Y0192216D02*
X0062232Y0192216D01*
X0062709Y0193214D02*
X0018945Y0193214D01*
X0021395Y0184228D02*
X0063722Y0184228D01*
X0062724Y0183229D02*
X0020982Y0183229D01*
X0020568Y0182231D02*
X0062238Y0182231D01*
X0061900Y0181232D02*
X0020155Y0181232D01*
X0019392Y0180234D02*
X0061900Y0180234D01*
X0062045Y0179235D02*
X0018394Y0179235D01*
X0017395Y0178237D02*
X0062459Y0178237D01*
X0063257Y0177238D02*
X0015302Y0177238D01*
X0007698Y0177238D02*
X0006000Y0177238D01*
X0006000Y0176239D02*
X0064765Y0176239D01*
X0063737Y0174242D02*
X0006000Y0174242D01*
X0006000Y0173244D02*
X0062739Y0173244D01*
X0062244Y0172245D02*
X0006000Y0172245D01*
X0006000Y0171247D02*
X0061900Y0171247D01*
X0061900Y0170248D02*
X0006000Y0170248D01*
X0006000Y0169250D02*
X0062039Y0169250D01*
X0062452Y0168251D02*
X0006000Y0168251D01*
X0006000Y0167253D02*
X0063242Y0167253D01*
X0063767Y0154272D02*
X0006000Y0154272D01*
X0006000Y0153274D02*
X0062768Y0153274D01*
X0062256Y0152275D02*
X0006000Y0152275D01*
X0006000Y0151277D02*
X0061900Y0151277D01*
X0061900Y0150278D02*
X0006000Y0150278D01*
X0006000Y0149280D02*
X0062026Y0149280D01*
X0062440Y0148281D02*
X0006000Y0148281D01*
X0006000Y0147283D02*
X0063212Y0147283D01*
X0063797Y0134302D02*
X0006000Y0134302D01*
X0006000Y0133303D02*
X0062798Y0133303D01*
X0062269Y0132305D02*
X0006000Y0132305D01*
X0006000Y0131306D02*
X0061900Y0131306D01*
X0061900Y0130308D02*
X0006000Y0130308D01*
X0006000Y0129309D02*
X0062014Y0129309D01*
X0062428Y0128311D02*
X0006000Y0128311D01*
X0006000Y0127312D02*
X0063182Y0127312D01*
X0064586Y0126314D02*
X0006000Y0126314D01*
X0006000Y0175241D02*
X0203483Y0175241D01*
X0206114Y0175241D02*
X0206886Y0175241D01*
X0206886Y0174242D02*
X0206114Y0174242D01*
X0206114Y0173244D02*
X0206886Y0173244D01*
X0206886Y0172245D02*
X0206114Y0172245D01*
X0206114Y0170248D02*
X0206886Y0170248D01*
X0206886Y0169250D02*
X0206114Y0169250D01*
X0206114Y0168251D02*
X0206886Y0168251D01*
X0206886Y0167253D02*
X0206114Y0167253D01*
X0168927Y0084376D02*
X0167681Y0084376D01*
X0168791Y0083378D02*
X0170414Y0083378D01*
X0169900Y0082379D02*
X0174428Y0082379D01*
X0173877Y0080382D02*
X0172119Y0080382D01*
X0171010Y0081381D02*
X0362000Y0081381D01*
X0346800Y0075390D02*
X0346200Y0075390D01*
X0346200Y0074391D02*
X0346800Y0074391D01*
X0346800Y0073393D02*
X0346200Y0073393D01*
X0346200Y0072394D02*
X0346800Y0072394D01*
X0346800Y0070397D02*
X0346200Y0070397D01*
X0346200Y0069399D02*
X0346800Y0069399D01*
X0346800Y0068400D02*
X0346200Y0068400D01*
X0346200Y0067402D02*
X0346800Y0067402D01*
X0349434Y0067402D02*
X0362000Y0067402D01*
X0362000Y0068400D02*
X0351799Y0068400D01*
X0352631Y0069399D02*
X0362000Y0069399D01*
X0362000Y0070397D02*
X0353053Y0070397D01*
X0342604Y0075390D02*
X0319900Y0075390D01*
X0321724Y0074391D02*
X0340993Y0074391D01*
X0340263Y0073393D02*
X0322537Y0073393D01*
X0322951Y0072394D02*
X0339891Y0072394D01*
X0362000Y0042439D02*
X0283716Y0042439D01*
X0279284Y0042439D02*
X0187106Y0042439D01*
X0186107Y0041440D02*
X0362000Y0041440D01*
X0362000Y0040442D02*
X0185109Y0040442D01*
X0184800Y0039443D02*
X0362000Y0039443D01*
X0362000Y0038445D02*
X0184800Y0038445D01*
X0184800Y0037446D02*
X0362000Y0037446D01*
X0362000Y0036448D02*
X0184800Y0036448D01*
X0184800Y0035449D02*
X0362000Y0035449D01*
X0362000Y0034451D02*
X0259065Y0034451D01*
X0258115Y0035400D02*
X0260400Y0033115D01*
X0260400Y0029885D01*
X0258115Y0027600D01*
X0254885Y0027600D01*
X0252600Y0029885D01*
X0252600Y0033115D01*
X0254885Y0035400D01*
X0258115Y0035400D01*
X0260063Y0033452D02*
X0362000Y0033452D01*
X0362000Y0032454D02*
X0260400Y0032454D01*
X0260400Y0031455D02*
X0362000Y0031455D01*
X0362000Y0030457D02*
X0260400Y0030457D01*
X0259974Y0029458D02*
X0362000Y0029458D01*
X0362000Y0028460D02*
X0258975Y0028460D01*
X0257584Y0026463D02*
X0264946Y0026463D01*
X0265282Y0026572D02*
X0264504Y0026319D01*
X0263775Y0025947D01*
X0263112Y0025466D01*
X0262534Y0024888D01*
X0262053Y0024225D01*
X0261681Y0023496D01*
X0261428Y0022718D01*
X0261422Y0022682D01*
X0260739Y0024332D01*
X0259332Y0025739D01*
X0257495Y0026500D01*
X0255505Y0026500D01*
X0253668Y0025739D01*
X0252261Y0024332D01*
X0251578Y0022682D01*
X0251572Y0022718D01*
X0251319Y0023496D01*
X0250947Y0024225D01*
X0250466Y0024888D01*
X0249888Y0025466D01*
X0249225Y0025947D01*
X0248496Y0026319D01*
X0247718Y0026572D01*
X0246909Y0026700D01*
X0246800Y0026700D01*
X0246800Y0021800D01*
X0246200Y0021800D01*
X0246200Y0026700D01*
X0246091Y0026700D01*
X0245282Y0026572D01*
X0244504Y0026319D01*
X0243775Y0025947D01*
X0243112Y0025466D01*
X0242534Y0024888D01*
X0242053Y0024225D01*
X0241681Y0023496D01*
X0241428Y0022718D01*
X0241422Y0022682D01*
X0240739Y0024332D01*
X0239332Y0025739D01*
X0237495Y0026500D01*
X0235505Y0026500D01*
X0233668Y0025739D01*
X0232261Y0024332D01*
X0231578Y0022682D01*
X0231572Y0022718D01*
X0231319Y0023496D01*
X0230947Y0024225D01*
X0230466Y0024888D01*
X0229888Y0025466D01*
X0229225Y0025947D01*
X0228496Y0026319D01*
X0227718Y0026572D01*
X0226909Y0026700D01*
X0226800Y0026700D01*
X0226800Y0021800D01*
X0226200Y0021800D01*
X0226200Y0026700D01*
X0226091Y0026700D01*
X0225282Y0026572D01*
X0224504Y0026319D01*
X0223775Y0025947D01*
X0223112Y0025466D01*
X0222534Y0024888D01*
X0222053Y0024225D01*
X0221681Y0023496D01*
X0221428Y0022718D01*
X0221422Y0022682D01*
X0220739Y0024332D01*
X0219332Y0025739D01*
X0217495Y0026500D01*
X0215505Y0026500D01*
X0213668Y0025739D01*
X0212261Y0024332D01*
X0211578Y0022682D01*
X0211572Y0022718D01*
X0211319Y0023496D01*
X0210947Y0024225D01*
X0210466Y0024888D01*
X0209888Y0025466D01*
X0209225Y0025947D01*
X0208496Y0026319D01*
X0207718Y0026572D01*
X0206909Y0026700D01*
X0206800Y0026700D01*
X0206800Y0021800D01*
X0206200Y0021800D01*
X0206200Y0026700D01*
X0206091Y0026700D01*
X0205282Y0026572D01*
X0204504Y0026319D01*
X0203775Y0025947D01*
X0203112Y0025466D01*
X0202534Y0024888D01*
X0202053Y0024225D01*
X0201681Y0023496D01*
X0201428Y0022718D01*
X0201422Y0022682D01*
X0200739Y0024332D01*
X0199332Y0025739D01*
X0197495Y0026500D01*
X0195505Y0026500D01*
X0193668Y0025739D01*
X0192261Y0024332D01*
X0191500Y0022495D01*
X0191500Y0020505D01*
X0192261Y0018668D01*
X0193668Y0017261D01*
X0195505Y0016500D01*
X0197495Y0016500D01*
X0199332Y0017261D01*
X0200739Y0018668D01*
X0201422Y0020318D01*
X0201428Y0020282D01*
X0201681Y0019504D01*
X0202053Y0018775D01*
X0202534Y0018112D01*
X0203112Y0017534D01*
X0203775Y0017053D01*
X0204504Y0016681D01*
X0205282Y0016428D01*
X0206091Y0016300D01*
X0206200Y0016300D01*
X0206200Y0021200D01*
X0206800Y0021200D01*
X0206800Y0016300D01*
X0206909Y0016300D01*
X0207718Y0016428D01*
X0208496Y0016681D01*
X0209225Y0017053D01*
X0209888Y0017534D01*
X0210466Y0018112D01*
X0210947Y0018775D01*
X0211319Y0019504D01*
X0211572Y0020282D01*
X0211578Y0020318D01*
X0212261Y0018668D01*
X0213668Y0017261D01*
X0215505Y0016500D01*
X0217495Y0016500D01*
X0219332Y0017261D01*
X0220739Y0018668D01*
X0221422Y0020318D01*
X0221428Y0020282D01*
X0221681Y0019504D01*
X0222053Y0018775D01*
X0222534Y0018112D01*
X0223112Y0017534D01*
X0223775Y0017053D01*
X0224504Y0016681D01*
X0225282Y0016428D01*
X0226091Y0016300D01*
X0226200Y0016300D01*
X0226200Y0021200D01*
X0226800Y0021200D01*
X0226800Y0016300D01*
X0226909Y0016300D01*
X0227718Y0016428D01*
X0228496Y0016681D01*
X0229225Y0017053D01*
X0229888Y0017534D01*
X0230466Y0018112D01*
X0230947Y0018775D01*
X0231319Y0019504D01*
X0231572Y0020282D01*
X0231578Y0020318D01*
X0232261Y0018668D01*
X0233668Y0017261D01*
X0235505Y0016500D01*
X0237495Y0016500D01*
X0239332Y0017261D01*
X0240739Y0018668D01*
X0241422Y0020318D01*
X0241428Y0020282D01*
X0241681Y0019504D01*
X0242053Y0018775D01*
X0242534Y0018112D01*
X0243112Y0017534D01*
X0243775Y0017053D01*
X0244504Y0016681D01*
X0245282Y0016428D01*
X0246091Y0016300D01*
X0246200Y0016300D01*
X0246200Y0021200D01*
X0246800Y0021200D01*
X0246800Y0016300D01*
X0246909Y0016300D01*
X0247718Y0016428D01*
X0248496Y0016681D01*
X0249225Y0017053D01*
X0249888Y0017534D01*
X0250466Y0018112D01*
X0250947Y0018775D01*
X0251319Y0019504D01*
X0251572Y0020282D01*
X0251578Y0020318D01*
X0252261Y0018668D01*
X0253668Y0017261D01*
X0255505Y0016500D01*
X0257495Y0016500D01*
X0259332Y0017261D01*
X0260739Y0018668D01*
X0261422Y0020318D01*
X0261428Y0020282D01*
X0261681Y0019504D01*
X0262053Y0018775D01*
X0262534Y0018112D01*
X0263112Y0017534D01*
X0263775Y0017053D01*
X0264504Y0016681D01*
X0265282Y0016428D01*
X0266091Y0016300D01*
X0266200Y0016300D01*
X0266200Y0021200D01*
X0266800Y0021200D01*
X0266800Y0021800D01*
X0266200Y0021800D01*
X0266200Y0026700D01*
X0266091Y0026700D01*
X0265282Y0026572D01*
X0266200Y0026463D02*
X0266800Y0026463D01*
X0266800Y0026700D02*
X0266800Y0021800D01*
X0271700Y0021800D01*
X0271700Y0021909D01*
X0271572Y0022718D01*
X0271319Y0023496D01*
X0270947Y0024225D01*
X0270466Y0024888D01*
X0269888Y0025466D01*
X0269225Y0025947D01*
X0268496Y0026319D01*
X0267718Y0026572D01*
X0266909Y0026700D01*
X0266800Y0026700D01*
X0266800Y0025464D02*
X0266200Y0025464D01*
X0266200Y0024466D02*
X0266800Y0024466D01*
X0266800Y0023467D02*
X0266200Y0023467D01*
X0266200Y0022469D02*
X0266800Y0022469D01*
X0266800Y0021470D02*
X0297600Y0021470D01*
X0297600Y0020472D02*
X0271602Y0020472D01*
X0271572Y0020282D02*
X0271700Y0021091D01*
X0271700Y0021200D01*
X0266800Y0021200D01*
X0266800Y0016300D01*
X0266909Y0016300D01*
X0267718Y0016428D01*
X0268496Y0016681D01*
X0269225Y0017053D01*
X0269888Y0017534D01*
X0270466Y0018112D01*
X0270947Y0018775D01*
X0271319Y0019504D01*
X0271572Y0020282D01*
X0271303Y0019473D02*
X0298011Y0019473D01*
X0297600Y0019885D02*
X0299885Y0017600D01*
X0303115Y0017600D01*
X0305400Y0019885D01*
X0305400Y0023115D01*
X0303115Y0025400D01*
X0299885Y0025400D01*
X0297600Y0023115D01*
X0297600Y0019885D01*
X0299010Y0018475D02*
X0270730Y0018475D01*
X0269808Y0017476D02*
X0348317Y0017476D01*
X0347725Y0016478D02*
X0267870Y0016478D01*
X0266800Y0016478D02*
X0266200Y0016478D01*
X0266200Y0017476D02*
X0266800Y0017476D01*
X0266800Y0018475D02*
X0266200Y0018475D01*
X0266200Y0019473D02*
X0266800Y0019473D01*
X0266800Y0020472D02*
X0266200Y0020472D01*
X0262270Y0018475D02*
X0260546Y0018475D01*
X0261072Y0019473D02*
X0261697Y0019473D01*
X0263192Y0017476D02*
X0259547Y0017476D01*
X0265130Y0016478D02*
X0247870Y0016478D01*
X0246800Y0016478D02*
X0246200Y0016478D01*
X0246200Y0017476D02*
X0246800Y0017476D01*
X0246800Y0018475D02*
X0246200Y0018475D01*
X0246200Y0019473D02*
X0246800Y0019473D01*
X0246800Y0020472D02*
X0246200Y0020472D01*
X0246200Y0022469D02*
X0246800Y0022469D01*
X0246800Y0023467D02*
X0246200Y0023467D01*
X0246200Y0024466D02*
X0246800Y0024466D01*
X0246800Y0025464D02*
X0246200Y0025464D01*
X0246200Y0026463D02*
X0246800Y0026463D01*
X0248054Y0026463D02*
X0255416Y0026463D01*
X0253393Y0025464D02*
X0249890Y0025464D01*
X0250773Y0024466D02*
X0252395Y0024466D01*
X0251903Y0023467D02*
X0251328Y0023467D01*
X0251303Y0019473D02*
X0251928Y0019473D01*
X0252454Y0018475D02*
X0250730Y0018475D01*
X0249808Y0017476D02*
X0253453Y0017476D01*
X0245130Y0016478D02*
X0227870Y0016478D01*
X0226800Y0016478D02*
X0226200Y0016478D01*
X0226200Y0017476D02*
X0226800Y0017476D01*
X0226800Y0018475D02*
X0226200Y0018475D01*
X0226200Y0019473D02*
X0226800Y0019473D01*
X0226800Y0020472D02*
X0226200Y0020472D01*
X0226200Y0022469D02*
X0226800Y0022469D01*
X0226800Y0023467D02*
X0226200Y0023467D01*
X0226200Y0024466D02*
X0226800Y0024466D01*
X0226800Y0025464D02*
X0226200Y0025464D01*
X0226200Y0026463D02*
X0226800Y0026463D01*
X0228054Y0026463D02*
X0235416Y0026463D01*
X0234885Y0027600D02*
X0238115Y0027600D01*
X0240400Y0029885D01*
X0240400Y0033115D01*
X0238115Y0035400D01*
X0234885Y0035400D01*
X0232600Y0033115D01*
X0232600Y0029885D01*
X0234885Y0027600D01*
X0234025Y0028460D02*
X0218975Y0028460D01*
X0218115Y0027600D02*
X0220400Y0029885D01*
X0220400Y0033115D01*
X0218115Y0035400D01*
X0214885Y0035400D01*
X0212600Y0033115D01*
X0212600Y0029885D01*
X0214885Y0027600D01*
X0218115Y0027600D01*
X0217584Y0026463D02*
X0224946Y0026463D01*
X0223110Y0025464D02*
X0219607Y0025464D01*
X0220605Y0024466D02*
X0222227Y0024466D01*
X0221672Y0023467D02*
X0221097Y0023467D01*
X0221072Y0019473D02*
X0221697Y0019473D01*
X0222270Y0018475D02*
X0220546Y0018475D01*
X0219547Y0017476D02*
X0223192Y0017476D01*
X0225130Y0016478D02*
X0207870Y0016478D01*
X0206800Y0016478D02*
X0206200Y0016478D01*
X0206200Y0017476D02*
X0206800Y0017476D01*
X0206800Y0018475D02*
X0206200Y0018475D01*
X0206200Y0019473D02*
X0206800Y0019473D01*
X0206800Y0020472D02*
X0206200Y0020472D01*
X0206200Y0022469D02*
X0206800Y0022469D01*
X0206800Y0023467D02*
X0206200Y0023467D01*
X0206200Y0024466D02*
X0206800Y0024466D01*
X0206800Y0025464D02*
X0206200Y0025464D01*
X0206200Y0026463D02*
X0206800Y0026463D01*
X0208054Y0026463D02*
X0215416Y0026463D01*
X0213393Y0025464D02*
X0209890Y0025464D01*
X0210773Y0024466D02*
X0212395Y0024466D01*
X0211903Y0023467D02*
X0211328Y0023467D01*
X0211303Y0019473D02*
X0211928Y0019473D01*
X0212454Y0018475D02*
X0210730Y0018475D01*
X0209808Y0017476D02*
X0213453Y0017476D01*
X0205130Y0016478D02*
X0184800Y0016478D01*
X0184800Y0017476D02*
X0193453Y0017476D01*
X0192454Y0018475D02*
X0184800Y0018475D01*
X0184800Y0019473D02*
X0191928Y0019473D01*
X0191514Y0020472D02*
X0184800Y0020472D01*
X0184800Y0021470D02*
X0191500Y0021470D01*
X0191500Y0022469D02*
X0184800Y0022469D01*
X0184800Y0023467D02*
X0191903Y0023467D01*
X0192395Y0024466D02*
X0184800Y0024466D01*
X0184800Y0025464D02*
X0193393Y0025464D01*
X0195416Y0026463D02*
X0184800Y0026463D01*
X0184800Y0027461D02*
X0362000Y0027461D01*
X0362000Y0026463D02*
X0268054Y0026463D01*
X0269890Y0025464D02*
X0362000Y0025464D01*
X0362000Y0024466D02*
X0304050Y0024466D01*
X0305048Y0023467D02*
X0362000Y0023467D01*
X0362000Y0022469D02*
X0305400Y0022469D01*
X0305400Y0021470D02*
X0354408Y0021470D01*
X0351998Y0020472D02*
X0305400Y0020472D01*
X0304989Y0019473D02*
X0350314Y0019473D01*
X0349316Y0018475D02*
X0303990Y0018475D01*
X0297600Y0022469D02*
X0271611Y0022469D01*
X0271328Y0023467D02*
X0297952Y0023467D01*
X0298950Y0024466D02*
X0270773Y0024466D01*
X0263110Y0025464D02*
X0259607Y0025464D01*
X0260605Y0024466D02*
X0262227Y0024466D01*
X0261672Y0023467D02*
X0261097Y0023467D01*
X0254025Y0028460D02*
X0238975Y0028460D01*
X0239974Y0029458D02*
X0253026Y0029458D01*
X0252600Y0030457D02*
X0240400Y0030457D01*
X0240400Y0031455D02*
X0252600Y0031455D01*
X0252600Y0032454D02*
X0240400Y0032454D01*
X0240063Y0033452D02*
X0252937Y0033452D01*
X0253935Y0034451D02*
X0239065Y0034451D01*
X0233935Y0034451D02*
X0219065Y0034451D01*
X0220063Y0033452D02*
X0232937Y0033452D01*
X0232600Y0032454D02*
X0220400Y0032454D01*
X0220400Y0031455D02*
X0232600Y0031455D01*
X0232600Y0030457D02*
X0220400Y0030457D01*
X0219974Y0029458D02*
X0233026Y0029458D01*
X0237584Y0026463D02*
X0244946Y0026463D01*
X0243110Y0025464D02*
X0239607Y0025464D01*
X0240605Y0024466D02*
X0242227Y0024466D01*
X0241672Y0023467D02*
X0241097Y0023467D01*
X0241072Y0019473D02*
X0241697Y0019473D01*
X0242270Y0018475D02*
X0240546Y0018475D01*
X0239547Y0017476D02*
X0243192Y0017476D01*
X0233453Y0017476D02*
X0229808Y0017476D01*
X0230730Y0018475D02*
X0232454Y0018475D01*
X0231928Y0019473D02*
X0231303Y0019473D01*
X0231328Y0023467D02*
X0231903Y0023467D01*
X0232395Y0024466D02*
X0230773Y0024466D01*
X0229890Y0025464D02*
X0233393Y0025464D01*
X0214025Y0028460D02*
X0198975Y0028460D01*
X0198115Y0027600D02*
X0200400Y0029885D01*
X0200400Y0033115D01*
X0198115Y0035400D01*
X0194885Y0035400D01*
X0192600Y0033115D01*
X0192600Y0029885D01*
X0194885Y0027600D01*
X0198115Y0027600D01*
X0197584Y0026463D02*
X0204946Y0026463D01*
X0203110Y0025464D02*
X0199607Y0025464D01*
X0200605Y0024466D02*
X0202227Y0024466D01*
X0201672Y0023467D02*
X0201097Y0023467D01*
X0201072Y0019473D02*
X0201697Y0019473D01*
X0202270Y0018475D02*
X0200546Y0018475D01*
X0199547Y0017476D02*
X0203192Y0017476D01*
X0184649Y0015479D02*
X0347312Y0015479D01*
X0346898Y0014481D02*
X0184148Y0014481D01*
X0183149Y0013482D02*
X0346488Y0013482D01*
X0346488Y0012484D02*
X0182151Y0012484D01*
X0181152Y0011485D02*
X0346488Y0011485D01*
X0346488Y0010487D02*
X0180153Y0010487D01*
X0179155Y0009488D02*
X0346497Y0009488D01*
X0346910Y0008490D02*
X0178156Y0008490D01*
X0176859Y0007491D02*
X0347324Y0007491D01*
X0347737Y0006493D02*
X0158846Y0006493D01*
X0154154Y0006493D02*
X0151500Y0006493D01*
X0151500Y0007491D02*
X0153004Y0007491D01*
X0152354Y0008490D02*
X0151500Y0008490D01*
X0151500Y0009488D02*
X0151940Y0009488D01*
X0151900Y0010487D02*
X0151500Y0010487D01*
X0151500Y0011485D02*
X0151929Y0011485D01*
X0152343Y0012484D02*
X0151500Y0012484D01*
X0151500Y0013482D02*
X0152977Y0013482D01*
X0154090Y0014481D02*
X0151500Y0014481D01*
X0151500Y0015479D02*
X0175812Y0015479D01*
X0174814Y0014481D02*
X0158910Y0014481D01*
X0158810Y0016478D02*
X0176811Y0016478D01*
X0177809Y0017476D02*
X0159982Y0017476D01*
X0160400Y0017894D02*
X0161100Y0019585D01*
X0161100Y0021415D01*
X0160400Y0023106D01*
X0159106Y0024400D01*
X0157415Y0025100D01*
X0155585Y0025100D01*
X0153894Y0024400D01*
X0152600Y0023106D01*
X0151900Y0021415D01*
X0151900Y0019585D01*
X0152600Y0017894D01*
X0153894Y0016600D01*
X0155585Y0015900D01*
X0157415Y0015900D01*
X0159106Y0016600D01*
X0160400Y0017894D01*
X0160640Y0018475D02*
X0178200Y0018475D01*
X0178200Y0019473D02*
X0161054Y0019473D01*
X0161100Y0020472D02*
X0178200Y0020472D01*
X0178200Y0021470D02*
X0161077Y0021470D01*
X0160664Y0022469D02*
X0178200Y0022469D01*
X0178200Y0023467D02*
X0160038Y0023467D01*
X0158946Y0024466D02*
X0178200Y0024466D01*
X0178200Y0025464D02*
X0151500Y0025464D01*
X0151500Y0024466D02*
X0154054Y0024466D01*
X0152962Y0023467D02*
X0151500Y0023467D01*
X0151500Y0022469D02*
X0152336Y0022469D01*
X0151923Y0021470D02*
X0151500Y0021470D01*
X0151500Y0020472D02*
X0151900Y0020472D01*
X0151946Y0019473D02*
X0151500Y0019473D01*
X0151500Y0018475D02*
X0152360Y0018475D01*
X0153018Y0017476D02*
X0151500Y0017476D01*
X0151500Y0016478D02*
X0154190Y0016478D01*
X0155585Y0025900D02*
X0157415Y0025900D01*
X0159106Y0026600D01*
X0160400Y0027894D01*
X0161100Y0029585D01*
X0161100Y0031415D01*
X0160400Y0033106D01*
X0159106Y0034400D01*
X0157415Y0035100D01*
X0155585Y0035100D01*
X0153894Y0034400D01*
X0152600Y0033106D01*
X0151900Y0031415D01*
X0151900Y0029585D01*
X0152600Y0027894D01*
X0153894Y0026600D01*
X0155585Y0025900D01*
X0154226Y0026463D02*
X0151500Y0026463D01*
X0151500Y0027461D02*
X0153033Y0027461D01*
X0152366Y0028460D02*
X0151500Y0028460D01*
X0151500Y0029458D02*
X0151952Y0029458D01*
X0151900Y0030457D02*
X0151500Y0030457D01*
X0151500Y0031455D02*
X0151917Y0031455D01*
X0152330Y0032454D02*
X0151500Y0032454D01*
X0151500Y0033452D02*
X0152947Y0033452D01*
X0154018Y0034451D02*
X0151500Y0034451D01*
X0151500Y0035449D02*
X0178200Y0035449D01*
X0178200Y0034451D02*
X0158982Y0034451D01*
X0160053Y0033452D02*
X0178200Y0033452D01*
X0178200Y0032454D02*
X0160670Y0032454D01*
X0161083Y0031455D02*
X0178200Y0031455D01*
X0178200Y0030457D02*
X0161100Y0030457D01*
X0161048Y0029458D02*
X0178200Y0029458D01*
X0178200Y0028460D02*
X0160634Y0028460D01*
X0159967Y0027461D02*
X0178200Y0027461D01*
X0178200Y0026463D02*
X0158774Y0026463D01*
X0158738Y0036448D02*
X0178200Y0036448D01*
X0178200Y0037446D02*
X0159952Y0037446D01*
X0160628Y0038445D02*
X0178200Y0038445D01*
X0178200Y0039443D02*
X0161041Y0039443D01*
X0161100Y0040442D02*
X0178200Y0040442D01*
X0178200Y0041440D02*
X0161089Y0041440D01*
X0160676Y0042439D02*
X0174284Y0042439D01*
X0173057Y0043437D02*
X0160068Y0043437D01*
X0159018Y0044436D02*
X0172376Y0044436D01*
X0184800Y0034451D02*
X0193935Y0034451D01*
X0192937Y0033452D02*
X0184800Y0033452D01*
X0184800Y0032454D02*
X0192600Y0032454D01*
X0192600Y0031455D02*
X0184800Y0031455D01*
X0184800Y0030457D02*
X0192600Y0030457D01*
X0193026Y0029458D02*
X0184800Y0029458D01*
X0184800Y0028460D02*
X0194025Y0028460D01*
X0199974Y0029458D02*
X0213026Y0029458D01*
X0212600Y0030457D02*
X0200400Y0030457D01*
X0200400Y0031455D02*
X0212600Y0031455D01*
X0212600Y0032454D02*
X0200400Y0032454D01*
X0200063Y0033452D02*
X0212937Y0033452D01*
X0213935Y0034451D02*
X0199065Y0034451D01*
X0228195Y0043437D02*
X0278057Y0043437D01*
X0277376Y0044436D02*
X0229355Y0044436D01*
X0229823Y0045434D02*
X0276962Y0045434D01*
X0358592Y0021470D02*
X0362000Y0021470D01*
X0362000Y0020472D02*
X0361002Y0020472D01*
X0173924Y0060412D02*
X0161100Y0060412D01*
X0161029Y0059414D02*
X0172908Y0059414D01*
X0154262Y0036448D02*
X0151500Y0036448D01*
X0009408Y0021470D02*
X0006000Y0021470D01*
X0006000Y0020472D02*
X0006998Y0020472D01*
D26*
X0308350Y0147524D02*
X0312130Y0152524D01*
X0312130Y0181500D01*
X0331815Y0181500D02*
X0331972Y0176500D01*
X0331972Y0092406D01*
X0355594Y0147524D02*
X0351500Y0152524D01*
X0351500Y0181500D01*
D27*
X0281500Y0106500D02*
X0271500Y0106500D01*
X0266500Y0101500D01*
X0181500Y0101500D01*
M02*
