G75*
%MOIN*%
%OFA0B0*%
%FSLAX25Y25*%
%IPPOS*%
%LPD*%
%AMOC8*
5,1,8,0,0,1.08239X$1,22.5*
%
%ADD10C,0.00000*%
%ADD11C,0.00500*%
D10*
X0001500Y0001500D02*
X0076500Y0001500D01*
X0076500Y0031500D01*
X0146500Y0031500D01*
X0146500Y0001500D01*
X0366500Y0001500D01*
X0366500Y0198350D01*
X0001500Y0198350D01*
X0001500Y0001500D01*
X0005988Y0011500D02*
X0005990Y0011648D01*
X0005996Y0011796D01*
X0006006Y0011944D01*
X0006020Y0012091D01*
X0006038Y0012238D01*
X0006059Y0012384D01*
X0006085Y0012530D01*
X0006115Y0012675D01*
X0006148Y0012819D01*
X0006186Y0012962D01*
X0006227Y0013104D01*
X0006272Y0013245D01*
X0006320Y0013385D01*
X0006373Y0013524D01*
X0006429Y0013661D01*
X0006489Y0013796D01*
X0006552Y0013930D01*
X0006619Y0014062D01*
X0006690Y0014192D01*
X0006764Y0014320D01*
X0006841Y0014446D01*
X0006922Y0014570D01*
X0007006Y0014692D01*
X0007093Y0014811D01*
X0007184Y0014928D01*
X0007278Y0015043D01*
X0007374Y0015155D01*
X0007474Y0015265D01*
X0007576Y0015371D01*
X0007682Y0015475D01*
X0007790Y0015576D01*
X0007901Y0015674D01*
X0008014Y0015770D01*
X0008130Y0015862D01*
X0008248Y0015951D01*
X0008369Y0016036D01*
X0008492Y0016119D01*
X0008617Y0016198D01*
X0008744Y0016274D01*
X0008873Y0016346D01*
X0009004Y0016415D01*
X0009137Y0016480D01*
X0009272Y0016541D01*
X0009408Y0016599D01*
X0009545Y0016654D01*
X0009684Y0016704D01*
X0009825Y0016751D01*
X0009966Y0016794D01*
X0010109Y0016834D01*
X0010253Y0016869D01*
X0010397Y0016901D01*
X0010543Y0016928D01*
X0010689Y0016952D01*
X0010836Y0016972D01*
X0010983Y0016988D01*
X0011130Y0017000D01*
X0011278Y0017008D01*
X0011426Y0017012D01*
X0011574Y0017012D01*
X0011722Y0017008D01*
X0011870Y0017000D01*
X0012017Y0016988D01*
X0012164Y0016972D01*
X0012311Y0016952D01*
X0012457Y0016928D01*
X0012603Y0016901D01*
X0012747Y0016869D01*
X0012891Y0016834D01*
X0013034Y0016794D01*
X0013175Y0016751D01*
X0013316Y0016704D01*
X0013455Y0016654D01*
X0013592Y0016599D01*
X0013728Y0016541D01*
X0013863Y0016480D01*
X0013996Y0016415D01*
X0014127Y0016346D01*
X0014256Y0016274D01*
X0014383Y0016198D01*
X0014508Y0016119D01*
X0014631Y0016036D01*
X0014752Y0015951D01*
X0014870Y0015862D01*
X0014986Y0015770D01*
X0015099Y0015674D01*
X0015210Y0015576D01*
X0015318Y0015475D01*
X0015424Y0015371D01*
X0015526Y0015265D01*
X0015626Y0015155D01*
X0015722Y0015043D01*
X0015816Y0014928D01*
X0015907Y0014811D01*
X0015994Y0014692D01*
X0016078Y0014570D01*
X0016159Y0014446D01*
X0016236Y0014320D01*
X0016310Y0014192D01*
X0016381Y0014062D01*
X0016448Y0013930D01*
X0016511Y0013796D01*
X0016571Y0013661D01*
X0016627Y0013524D01*
X0016680Y0013385D01*
X0016728Y0013245D01*
X0016773Y0013104D01*
X0016814Y0012962D01*
X0016852Y0012819D01*
X0016885Y0012675D01*
X0016915Y0012530D01*
X0016941Y0012384D01*
X0016962Y0012238D01*
X0016980Y0012091D01*
X0016994Y0011944D01*
X0017004Y0011796D01*
X0017010Y0011648D01*
X0017012Y0011500D01*
X0017010Y0011352D01*
X0017004Y0011204D01*
X0016994Y0011056D01*
X0016980Y0010909D01*
X0016962Y0010762D01*
X0016941Y0010616D01*
X0016915Y0010470D01*
X0016885Y0010325D01*
X0016852Y0010181D01*
X0016814Y0010038D01*
X0016773Y0009896D01*
X0016728Y0009755D01*
X0016680Y0009615D01*
X0016627Y0009476D01*
X0016571Y0009339D01*
X0016511Y0009204D01*
X0016448Y0009070D01*
X0016381Y0008938D01*
X0016310Y0008808D01*
X0016236Y0008680D01*
X0016159Y0008554D01*
X0016078Y0008430D01*
X0015994Y0008308D01*
X0015907Y0008189D01*
X0015816Y0008072D01*
X0015722Y0007957D01*
X0015626Y0007845D01*
X0015526Y0007735D01*
X0015424Y0007629D01*
X0015318Y0007525D01*
X0015210Y0007424D01*
X0015099Y0007326D01*
X0014986Y0007230D01*
X0014870Y0007138D01*
X0014752Y0007049D01*
X0014631Y0006964D01*
X0014508Y0006881D01*
X0014383Y0006802D01*
X0014256Y0006726D01*
X0014127Y0006654D01*
X0013996Y0006585D01*
X0013863Y0006520D01*
X0013728Y0006459D01*
X0013592Y0006401D01*
X0013455Y0006346D01*
X0013316Y0006296D01*
X0013175Y0006249D01*
X0013034Y0006206D01*
X0012891Y0006166D01*
X0012747Y0006131D01*
X0012603Y0006099D01*
X0012457Y0006072D01*
X0012311Y0006048D01*
X0012164Y0006028D01*
X0012017Y0006012D01*
X0011870Y0006000D01*
X0011722Y0005992D01*
X0011574Y0005988D01*
X0011426Y0005988D01*
X0011278Y0005992D01*
X0011130Y0006000D01*
X0010983Y0006012D01*
X0010836Y0006028D01*
X0010689Y0006048D01*
X0010543Y0006072D01*
X0010397Y0006099D01*
X0010253Y0006131D01*
X0010109Y0006166D01*
X0009966Y0006206D01*
X0009825Y0006249D01*
X0009684Y0006296D01*
X0009545Y0006346D01*
X0009408Y0006401D01*
X0009272Y0006459D01*
X0009137Y0006520D01*
X0009004Y0006585D01*
X0008873Y0006654D01*
X0008744Y0006726D01*
X0008617Y0006802D01*
X0008492Y0006881D01*
X0008369Y0006964D01*
X0008248Y0007049D01*
X0008130Y0007138D01*
X0008014Y0007230D01*
X0007901Y0007326D01*
X0007790Y0007424D01*
X0007682Y0007525D01*
X0007576Y0007629D01*
X0007474Y0007735D01*
X0007374Y0007845D01*
X0007278Y0007957D01*
X0007184Y0008072D01*
X0007093Y0008189D01*
X0007006Y0008308D01*
X0006922Y0008430D01*
X0006841Y0008554D01*
X0006764Y0008680D01*
X0006690Y0008808D01*
X0006619Y0008938D01*
X0006552Y0009070D01*
X0006489Y0009204D01*
X0006429Y0009339D01*
X0006373Y0009476D01*
X0006320Y0009615D01*
X0006272Y0009755D01*
X0006227Y0009896D01*
X0006186Y0010038D01*
X0006148Y0010181D01*
X0006115Y0010325D01*
X0006085Y0010470D01*
X0006059Y0010616D01*
X0006038Y0010762D01*
X0006020Y0010909D01*
X0006006Y0011056D01*
X0005996Y0011204D01*
X0005990Y0011352D01*
X0005988Y0011500D01*
X0005988Y0186500D02*
X0005990Y0186648D01*
X0005996Y0186796D01*
X0006006Y0186944D01*
X0006020Y0187091D01*
X0006038Y0187238D01*
X0006059Y0187384D01*
X0006085Y0187530D01*
X0006115Y0187675D01*
X0006148Y0187819D01*
X0006186Y0187962D01*
X0006227Y0188104D01*
X0006272Y0188245D01*
X0006320Y0188385D01*
X0006373Y0188524D01*
X0006429Y0188661D01*
X0006489Y0188796D01*
X0006552Y0188930D01*
X0006619Y0189062D01*
X0006690Y0189192D01*
X0006764Y0189320D01*
X0006841Y0189446D01*
X0006922Y0189570D01*
X0007006Y0189692D01*
X0007093Y0189811D01*
X0007184Y0189928D01*
X0007278Y0190043D01*
X0007374Y0190155D01*
X0007474Y0190265D01*
X0007576Y0190371D01*
X0007682Y0190475D01*
X0007790Y0190576D01*
X0007901Y0190674D01*
X0008014Y0190770D01*
X0008130Y0190862D01*
X0008248Y0190951D01*
X0008369Y0191036D01*
X0008492Y0191119D01*
X0008617Y0191198D01*
X0008744Y0191274D01*
X0008873Y0191346D01*
X0009004Y0191415D01*
X0009137Y0191480D01*
X0009272Y0191541D01*
X0009408Y0191599D01*
X0009545Y0191654D01*
X0009684Y0191704D01*
X0009825Y0191751D01*
X0009966Y0191794D01*
X0010109Y0191834D01*
X0010253Y0191869D01*
X0010397Y0191901D01*
X0010543Y0191928D01*
X0010689Y0191952D01*
X0010836Y0191972D01*
X0010983Y0191988D01*
X0011130Y0192000D01*
X0011278Y0192008D01*
X0011426Y0192012D01*
X0011574Y0192012D01*
X0011722Y0192008D01*
X0011870Y0192000D01*
X0012017Y0191988D01*
X0012164Y0191972D01*
X0012311Y0191952D01*
X0012457Y0191928D01*
X0012603Y0191901D01*
X0012747Y0191869D01*
X0012891Y0191834D01*
X0013034Y0191794D01*
X0013175Y0191751D01*
X0013316Y0191704D01*
X0013455Y0191654D01*
X0013592Y0191599D01*
X0013728Y0191541D01*
X0013863Y0191480D01*
X0013996Y0191415D01*
X0014127Y0191346D01*
X0014256Y0191274D01*
X0014383Y0191198D01*
X0014508Y0191119D01*
X0014631Y0191036D01*
X0014752Y0190951D01*
X0014870Y0190862D01*
X0014986Y0190770D01*
X0015099Y0190674D01*
X0015210Y0190576D01*
X0015318Y0190475D01*
X0015424Y0190371D01*
X0015526Y0190265D01*
X0015626Y0190155D01*
X0015722Y0190043D01*
X0015816Y0189928D01*
X0015907Y0189811D01*
X0015994Y0189692D01*
X0016078Y0189570D01*
X0016159Y0189446D01*
X0016236Y0189320D01*
X0016310Y0189192D01*
X0016381Y0189062D01*
X0016448Y0188930D01*
X0016511Y0188796D01*
X0016571Y0188661D01*
X0016627Y0188524D01*
X0016680Y0188385D01*
X0016728Y0188245D01*
X0016773Y0188104D01*
X0016814Y0187962D01*
X0016852Y0187819D01*
X0016885Y0187675D01*
X0016915Y0187530D01*
X0016941Y0187384D01*
X0016962Y0187238D01*
X0016980Y0187091D01*
X0016994Y0186944D01*
X0017004Y0186796D01*
X0017010Y0186648D01*
X0017012Y0186500D01*
X0017010Y0186352D01*
X0017004Y0186204D01*
X0016994Y0186056D01*
X0016980Y0185909D01*
X0016962Y0185762D01*
X0016941Y0185616D01*
X0016915Y0185470D01*
X0016885Y0185325D01*
X0016852Y0185181D01*
X0016814Y0185038D01*
X0016773Y0184896D01*
X0016728Y0184755D01*
X0016680Y0184615D01*
X0016627Y0184476D01*
X0016571Y0184339D01*
X0016511Y0184204D01*
X0016448Y0184070D01*
X0016381Y0183938D01*
X0016310Y0183808D01*
X0016236Y0183680D01*
X0016159Y0183554D01*
X0016078Y0183430D01*
X0015994Y0183308D01*
X0015907Y0183189D01*
X0015816Y0183072D01*
X0015722Y0182957D01*
X0015626Y0182845D01*
X0015526Y0182735D01*
X0015424Y0182629D01*
X0015318Y0182525D01*
X0015210Y0182424D01*
X0015099Y0182326D01*
X0014986Y0182230D01*
X0014870Y0182138D01*
X0014752Y0182049D01*
X0014631Y0181964D01*
X0014508Y0181881D01*
X0014383Y0181802D01*
X0014256Y0181726D01*
X0014127Y0181654D01*
X0013996Y0181585D01*
X0013863Y0181520D01*
X0013728Y0181459D01*
X0013592Y0181401D01*
X0013455Y0181346D01*
X0013316Y0181296D01*
X0013175Y0181249D01*
X0013034Y0181206D01*
X0012891Y0181166D01*
X0012747Y0181131D01*
X0012603Y0181099D01*
X0012457Y0181072D01*
X0012311Y0181048D01*
X0012164Y0181028D01*
X0012017Y0181012D01*
X0011870Y0181000D01*
X0011722Y0180992D01*
X0011574Y0180988D01*
X0011426Y0180988D01*
X0011278Y0180992D01*
X0011130Y0181000D01*
X0010983Y0181012D01*
X0010836Y0181028D01*
X0010689Y0181048D01*
X0010543Y0181072D01*
X0010397Y0181099D01*
X0010253Y0181131D01*
X0010109Y0181166D01*
X0009966Y0181206D01*
X0009825Y0181249D01*
X0009684Y0181296D01*
X0009545Y0181346D01*
X0009408Y0181401D01*
X0009272Y0181459D01*
X0009137Y0181520D01*
X0009004Y0181585D01*
X0008873Y0181654D01*
X0008744Y0181726D01*
X0008617Y0181802D01*
X0008492Y0181881D01*
X0008369Y0181964D01*
X0008248Y0182049D01*
X0008130Y0182138D01*
X0008014Y0182230D01*
X0007901Y0182326D01*
X0007790Y0182424D01*
X0007682Y0182525D01*
X0007576Y0182629D01*
X0007474Y0182735D01*
X0007374Y0182845D01*
X0007278Y0182957D01*
X0007184Y0183072D01*
X0007093Y0183189D01*
X0007006Y0183308D01*
X0006922Y0183430D01*
X0006841Y0183554D01*
X0006764Y0183680D01*
X0006690Y0183808D01*
X0006619Y0183938D01*
X0006552Y0184070D01*
X0006489Y0184204D01*
X0006429Y0184339D01*
X0006373Y0184476D01*
X0006320Y0184615D01*
X0006272Y0184755D01*
X0006227Y0184896D01*
X0006186Y0185038D01*
X0006148Y0185181D01*
X0006115Y0185325D01*
X0006085Y0185470D01*
X0006059Y0185616D01*
X0006038Y0185762D01*
X0006020Y0185909D01*
X0006006Y0186056D01*
X0005996Y0186204D01*
X0005990Y0186352D01*
X0005988Y0186500D01*
X0350988Y0011500D02*
X0350990Y0011648D01*
X0350996Y0011796D01*
X0351006Y0011944D01*
X0351020Y0012091D01*
X0351038Y0012238D01*
X0351059Y0012384D01*
X0351085Y0012530D01*
X0351115Y0012675D01*
X0351148Y0012819D01*
X0351186Y0012962D01*
X0351227Y0013104D01*
X0351272Y0013245D01*
X0351320Y0013385D01*
X0351373Y0013524D01*
X0351429Y0013661D01*
X0351489Y0013796D01*
X0351552Y0013930D01*
X0351619Y0014062D01*
X0351690Y0014192D01*
X0351764Y0014320D01*
X0351841Y0014446D01*
X0351922Y0014570D01*
X0352006Y0014692D01*
X0352093Y0014811D01*
X0352184Y0014928D01*
X0352278Y0015043D01*
X0352374Y0015155D01*
X0352474Y0015265D01*
X0352576Y0015371D01*
X0352682Y0015475D01*
X0352790Y0015576D01*
X0352901Y0015674D01*
X0353014Y0015770D01*
X0353130Y0015862D01*
X0353248Y0015951D01*
X0353369Y0016036D01*
X0353492Y0016119D01*
X0353617Y0016198D01*
X0353744Y0016274D01*
X0353873Y0016346D01*
X0354004Y0016415D01*
X0354137Y0016480D01*
X0354272Y0016541D01*
X0354408Y0016599D01*
X0354545Y0016654D01*
X0354684Y0016704D01*
X0354825Y0016751D01*
X0354966Y0016794D01*
X0355109Y0016834D01*
X0355253Y0016869D01*
X0355397Y0016901D01*
X0355543Y0016928D01*
X0355689Y0016952D01*
X0355836Y0016972D01*
X0355983Y0016988D01*
X0356130Y0017000D01*
X0356278Y0017008D01*
X0356426Y0017012D01*
X0356574Y0017012D01*
X0356722Y0017008D01*
X0356870Y0017000D01*
X0357017Y0016988D01*
X0357164Y0016972D01*
X0357311Y0016952D01*
X0357457Y0016928D01*
X0357603Y0016901D01*
X0357747Y0016869D01*
X0357891Y0016834D01*
X0358034Y0016794D01*
X0358175Y0016751D01*
X0358316Y0016704D01*
X0358455Y0016654D01*
X0358592Y0016599D01*
X0358728Y0016541D01*
X0358863Y0016480D01*
X0358996Y0016415D01*
X0359127Y0016346D01*
X0359256Y0016274D01*
X0359383Y0016198D01*
X0359508Y0016119D01*
X0359631Y0016036D01*
X0359752Y0015951D01*
X0359870Y0015862D01*
X0359986Y0015770D01*
X0360099Y0015674D01*
X0360210Y0015576D01*
X0360318Y0015475D01*
X0360424Y0015371D01*
X0360526Y0015265D01*
X0360626Y0015155D01*
X0360722Y0015043D01*
X0360816Y0014928D01*
X0360907Y0014811D01*
X0360994Y0014692D01*
X0361078Y0014570D01*
X0361159Y0014446D01*
X0361236Y0014320D01*
X0361310Y0014192D01*
X0361381Y0014062D01*
X0361448Y0013930D01*
X0361511Y0013796D01*
X0361571Y0013661D01*
X0361627Y0013524D01*
X0361680Y0013385D01*
X0361728Y0013245D01*
X0361773Y0013104D01*
X0361814Y0012962D01*
X0361852Y0012819D01*
X0361885Y0012675D01*
X0361915Y0012530D01*
X0361941Y0012384D01*
X0361962Y0012238D01*
X0361980Y0012091D01*
X0361994Y0011944D01*
X0362004Y0011796D01*
X0362010Y0011648D01*
X0362012Y0011500D01*
X0362010Y0011352D01*
X0362004Y0011204D01*
X0361994Y0011056D01*
X0361980Y0010909D01*
X0361962Y0010762D01*
X0361941Y0010616D01*
X0361915Y0010470D01*
X0361885Y0010325D01*
X0361852Y0010181D01*
X0361814Y0010038D01*
X0361773Y0009896D01*
X0361728Y0009755D01*
X0361680Y0009615D01*
X0361627Y0009476D01*
X0361571Y0009339D01*
X0361511Y0009204D01*
X0361448Y0009070D01*
X0361381Y0008938D01*
X0361310Y0008808D01*
X0361236Y0008680D01*
X0361159Y0008554D01*
X0361078Y0008430D01*
X0360994Y0008308D01*
X0360907Y0008189D01*
X0360816Y0008072D01*
X0360722Y0007957D01*
X0360626Y0007845D01*
X0360526Y0007735D01*
X0360424Y0007629D01*
X0360318Y0007525D01*
X0360210Y0007424D01*
X0360099Y0007326D01*
X0359986Y0007230D01*
X0359870Y0007138D01*
X0359752Y0007049D01*
X0359631Y0006964D01*
X0359508Y0006881D01*
X0359383Y0006802D01*
X0359256Y0006726D01*
X0359127Y0006654D01*
X0358996Y0006585D01*
X0358863Y0006520D01*
X0358728Y0006459D01*
X0358592Y0006401D01*
X0358455Y0006346D01*
X0358316Y0006296D01*
X0358175Y0006249D01*
X0358034Y0006206D01*
X0357891Y0006166D01*
X0357747Y0006131D01*
X0357603Y0006099D01*
X0357457Y0006072D01*
X0357311Y0006048D01*
X0357164Y0006028D01*
X0357017Y0006012D01*
X0356870Y0006000D01*
X0356722Y0005992D01*
X0356574Y0005988D01*
X0356426Y0005988D01*
X0356278Y0005992D01*
X0356130Y0006000D01*
X0355983Y0006012D01*
X0355836Y0006028D01*
X0355689Y0006048D01*
X0355543Y0006072D01*
X0355397Y0006099D01*
X0355253Y0006131D01*
X0355109Y0006166D01*
X0354966Y0006206D01*
X0354825Y0006249D01*
X0354684Y0006296D01*
X0354545Y0006346D01*
X0354408Y0006401D01*
X0354272Y0006459D01*
X0354137Y0006520D01*
X0354004Y0006585D01*
X0353873Y0006654D01*
X0353744Y0006726D01*
X0353617Y0006802D01*
X0353492Y0006881D01*
X0353369Y0006964D01*
X0353248Y0007049D01*
X0353130Y0007138D01*
X0353014Y0007230D01*
X0352901Y0007326D01*
X0352790Y0007424D01*
X0352682Y0007525D01*
X0352576Y0007629D01*
X0352474Y0007735D01*
X0352374Y0007845D01*
X0352278Y0007957D01*
X0352184Y0008072D01*
X0352093Y0008189D01*
X0352006Y0008308D01*
X0351922Y0008430D01*
X0351841Y0008554D01*
X0351764Y0008680D01*
X0351690Y0008808D01*
X0351619Y0008938D01*
X0351552Y0009070D01*
X0351489Y0009204D01*
X0351429Y0009339D01*
X0351373Y0009476D01*
X0351320Y0009615D01*
X0351272Y0009755D01*
X0351227Y0009896D01*
X0351186Y0010038D01*
X0351148Y0010181D01*
X0351115Y0010325D01*
X0351085Y0010470D01*
X0351059Y0010616D01*
X0351038Y0010762D01*
X0351020Y0010909D01*
X0351006Y0011056D01*
X0350996Y0011204D01*
X0350990Y0011352D01*
X0350988Y0011500D01*
D11*
X0211500Y0111500D02*
X0136500Y0111500D01*
X0136500Y0121500D01*
X0126500Y0121500D01*
X0126500Y0131500D01*
X0131500Y0136500D01*
X0131500Y0156500D01*
X0126500Y0161500D01*
X0126500Y0171500D01*
X0136500Y0171500D01*
X0136500Y0121500D01*
X0191500Y0116500D02*
X0191502Y0116641D01*
X0191508Y0116782D01*
X0191518Y0116922D01*
X0191532Y0117062D01*
X0191550Y0117202D01*
X0191571Y0117341D01*
X0191597Y0117480D01*
X0191626Y0117618D01*
X0191660Y0117754D01*
X0191697Y0117890D01*
X0191738Y0118025D01*
X0191783Y0118159D01*
X0191832Y0118291D01*
X0191884Y0118422D01*
X0191940Y0118551D01*
X0192000Y0118678D01*
X0192063Y0118804D01*
X0192129Y0118928D01*
X0192200Y0119051D01*
X0192273Y0119171D01*
X0192350Y0119289D01*
X0192430Y0119405D01*
X0192514Y0119518D01*
X0192600Y0119629D01*
X0192690Y0119738D01*
X0192783Y0119844D01*
X0192878Y0119947D01*
X0192977Y0120048D01*
X0193078Y0120146D01*
X0193182Y0120241D01*
X0193289Y0120333D01*
X0193398Y0120422D01*
X0193510Y0120507D01*
X0193624Y0120590D01*
X0193740Y0120670D01*
X0193859Y0120746D01*
X0193980Y0120818D01*
X0194102Y0120888D01*
X0194227Y0120953D01*
X0194353Y0121016D01*
X0194481Y0121074D01*
X0194611Y0121129D01*
X0194742Y0121181D01*
X0194875Y0121228D01*
X0195009Y0121272D01*
X0195144Y0121313D01*
X0195280Y0121349D01*
X0195417Y0121381D01*
X0195555Y0121410D01*
X0195693Y0121435D01*
X0195833Y0121455D01*
X0195973Y0121472D01*
X0196113Y0121485D01*
X0196254Y0121494D01*
X0196394Y0121499D01*
X0196535Y0121500D01*
X0196676Y0121497D01*
X0196817Y0121490D01*
X0196957Y0121479D01*
X0197097Y0121464D01*
X0197237Y0121445D01*
X0197376Y0121423D01*
X0197514Y0121396D01*
X0197652Y0121366D01*
X0197788Y0121331D01*
X0197924Y0121293D01*
X0198058Y0121251D01*
X0198192Y0121205D01*
X0198324Y0121156D01*
X0198454Y0121102D01*
X0198583Y0121045D01*
X0198710Y0120985D01*
X0198836Y0120921D01*
X0198959Y0120853D01*
X0199081Y0120782D01*
X0199201Y0120708D01*
X0199318Y0120630D01*
X0199433Y0120549D01*
X0199546Y0120465D01*
X0199657Y0120378D01*
X0199765Y0120287D01*
X0199870Y0120194D01*
X0199973Y0120097D01*
X0200073Y0119998D01*
X0200170Y0119896D01*
X0200264Y0119791D01*
X0200355Y0119684D01*
X0200443Y0119574D01*
X0200528Y0119462D01*
X0200610Y0119347D01*
X0200689Y0119230D01*
X0200764Y0119111D01*
X0200836Y0118990D01*
X0200904Y0118867D01*
X0200969Y0118742D01*
X0201031Y0118615D01*
X0201088Y0118486D01*
X0201143Y0118356D01*
X0201193Y0118225D01*
X0201240Y0118092D01*
X0201283Y0117958D01*
X0201322Y0117822D01*
X0201357Y0117686D01*
X0201389Y0117549D01*
X0201416Y0117411D01*
X0201440Y0117272D01*
X0201460Y0117132D01*
X0201476Y0116992D01*
X0201488Y0116852D01*
X0201496Y0116711D01*
X0201500Y0116570D01*
X0201500Y0116430D01*
X0201496Y0116289D01*
X0201488Y0116148D01*
X0201476Y0116008D01*
X0201460Y0115868D01*
X0201440Y0115728D01*
X0201416Y0115589D01*
X0201389Y0115451D01*
X0201357Y0115314D01*
X0201322Y0115178D01*
X0201283Y0115042D01*
X0201240Y0114908D01*
X0201193Y0114775D01*
X0201143Y0114644D01*
X0201088Y0114514D01*
X0201031Y0114385D01*
X0200969Y0114258D01*
X0200904Y0114133D01*
X0200836Y0114010D01*
X0200764Y0113889D01*
X0200689Y0113770D01*
X0200610Y0113653D01*
X0200528Y0113538D01*
X0200443Y0113426D01*
X0200355Y0113316D01*
X0200264Y0113209D01*
X0200170Y0113104D01*
X0200073Y0113002D01*
X0199973Y0112903D01*
X0199870Y0112806D01*
X0199765Y0112713D01*
X0199657Y0112622D01*
X0199546Y0112535D01*
X0199433Y0112451D01*
X0199318Y0112370D01*
X0199201Y0112292D01*
X0199081Y0112218D01*
X0198959Y0112147D01*
X0198836Y0112079D01*
X0198710Y0112015D01*
X0198583Y0111955D01*
X0198454Y0111898D01*
X0198324Y0111844D01*
X0198192Y0111795D01*
X0198058Y0111749D01*
X0197924Y0111707D01*
X0197788Y0111669D01*
X0197652Y0111634D01*
X0197514Y0111604D01*
X0197376Y0111577D01*
X0197237Y0111555D01*
X0197097Y0111536D01*
X0196957Y0111521D01*
X0196817Y0111510D01*
X0196676Y0111503D01*
X0196535Y0111500D01*
X0196394Y0111501D01*
X0196254Y0111506D01*
X0196113Y0111515D01*
X0195973Y0111528D01*
X0195833Y0111545D01*
X0195693Y0111565D01*
X0195555Y0111590D01*
X0195417Y0111619D01*
X0195280Y0111651D01*
X0195144Y0111687D01*
X0195009Y0111728D01*
X0194875Y0111772D01*
X0194742Y0111819D01*
X0194611Y0111871D01*
X0194481Y0111926D01*
X0194353Y0111984D01*
X0194227Y0112047D01*
X0194102Y0112112D01*
X0193980Y0112182D01*
X0193859Y0112254D01*
X0193740Y0112330D01*
X0193624Y0112410D01*
X0193510Y0112493D01*
X0193398Y0112578D01*
X0193289Y0112667D01*
X0193182Y0112759D01*
X0193078Y0112854D01*
X0192977Y0112952D01*
X0192878Y0113053D01*
X0192783Y0113156D01*
X0192690Y0113262D01*
X0192600Y0113371D01*
X0192514Y0113482D01*
X0192430Y0113595D01*
X0192350Y0113711D01*
X0192273Y0113829D01*
X0192200Y0113949D01*
X0192129Y0114072D01*
X0192063Y0114196D01*
X0192000Y0114322D01*
X0191940Y0114449D01*
X0191884Y0114578D01*
X0191832Y0114709D01*
X0191783Y0114841D01*
X0191738Y0114975D01*
X0191697Y0115110D01*
X0191660Y0115246D01*
X0191626Y0115382D01*
X0191597Y0115520D01*
X0191571Y0115659D01*
X0191550Y0115798D01*
X0191532Y0115938D01*
X0191518Y0116078D01*
X0191508Y0116218D01*
X0191502Y0116359D01*
X0191500Y0116500D01*
X0211500Y0111500D02*
X0211500Y0181500D01*
X0136500Y0181500D01*
X0136500Y0171500D01*
X0191500Y0176500D02*
X0191502Y0176641D01*
X0191508Y0176782D01*
X0191518Y0176922D01*
X0191532Y0177062D01*
X0191550Y0177202D01*
X0191571Y0177341D01*
X0191597Y0177480D01*
X0191626Y0177618D01*
X0191660Y0177754D01*
X0191697Y0177890D01*
X0191738Y0178025D01*
X0191783Y0178159D01*
X0191832Y0178291D01*
X0191884Y0178422D01*
X0191940Y0178551D01*
X0192000Y0178678D01*
X0192063Y0178804D01*
X0192129Y0178928D01*
X0192200Y0179051D01*
X0192273Y0179171D01*
X0192350Y0179289D01*
X0192430Y0179405D01*
X0192514Y0179518D01*
X0192600Y0179629D01*
X0192690Y0179738D01*
X0192783Y0179844D01*
X0192878Y0179947D01*
X0192977Y0180048D01*
X0193078Y0180146D01*
X0193182Y0180241D01*
X0193289Y0180333D01*
X0193398Y0180422D01*
X0193510Y0180507D01*
X0193624Y0180590D01*
X0193740Y0180670D01*
X0193859Y0180746D01*
X0193980Y0180818D01*
X0194102Y0180888D01*
X0194227Y0180953D01*
X0194353Y0181016D01*
X0194481Y0181074D01*
X0194611Y0181129D01*
X0194742Y0181181D01*
X0194875Y0181228D01*
X0195009Y0181272D01*
X0195144Y0181313D01*
X0195280Y0181349D01*
X0195417Y0181381D01*
X0195555Y0181410D01*
X0195693Y0181435D01*
X0195833Y0181455D01*
X0195973Y0181472D01*
X0196113Y0181485D01*
X0196254Y0181494D01*
X0196394Y0181499D01*
X0196535Y0181500D01*
X0196676Y0181497D01*
X0196817Y0181490D01*
X0196957Y0181479D01*
X0197097Y0181464D01*
X0197237Y0181445D01*
X0197376Y0181423D01*
X0197514Y0181396D01*
X0197652Y0181366D01*
X0197788Y0181331D01*
X0197924Y0181293D01*
X0198058Y0181251D01*
X0198192Y0181205D01*
X0198324Y0181156D01*
X0198454Y0181102D01*
X0198583Y0181045D01*
X0198710Y0180985D01*
X0198836Y0180921D01*
X0198959Y0180853D01*
X0199081Y0180782D01*
X0199201Y0180708D01*
X0199318Y0180630D01*
X0199433Y0180549D01*
X0199546Y0180465D01*
X0199657Y0180378D01*
X0199765Y0180287D01*
X0199870Y0180194D01*
X0199973Y0180097D01*
X0200073Y0179998D01*
X0200170Y0179896D01*
X0200264Y0179791D01*
X0200355Y0179684D01*
X0200443Y0179574D01*
X0200528Y0179462D01*
X0200610Y0179347D01*
X0200689Y0179230D01*
X0200764Y0179111D01*
X0200836Y0178990D01*
X0200904Y0178867D01*
X0200969Y0178742D01*
X0201031Y0178615D01*
X0201088Y0178486D01*
X0201143Y0178356D01*
X0201193Y0178225D01*
X0201240Y0178092D01*
X0201283Y0177958D01*
X0201322Y0177822D01*
X0201357Y0177686D01*
X0201389Y0177549D01*
X0201416Y0177411D01*
X0201440Y0177272D01*
X0201460Y0177132D01*
X0201476Y0176992D01*
X0201488Y0176852D01*
X0201496Y0176711D01*
X0201500Y0176570D01*
X0201500Y0176430D01*
X0201496Y0176289D01*
X0201488Y0176148D01*
X0201476Y0176008D01*
X0201460Y0175868D01*
X0201440Y0175728D01*
X0201416Y0175589D01*
X0201389Y0175451D01*
X0201357Y0175314D01*
X0201322Y0175178D01*
X0201283Y0175042D01*
X0201240Y0174908D01*
X0201193Y0174775D01*
X0201143Y0174644D01*
X0201088Y0174514D01*
X0201031Y0174385D01*
X0200969Y0174258D01*
X0200904Y0174133D01*
X0200836Y0174010D01*
X0200764Y0173889D01*
X0200689Y0173770D01*
X0200610Y0173653D01*
X0200528Y0173538D01*
X0200443Y0173426D01*
X0200355Y0173316D01*
X0200264Y0173209D01*
X0200170Y0173104D01*
X0200073Y0173002D01*
X0199973Y0172903D01*
X0199870Y0172806D01*
X0199765Y0172713D01*
X0199657Y0172622D01*
X0199546Y0172535D01*
X0199433Y0172451D01*
X0199318Y0172370D01*
X0199201Y0172292D01*
X0199081Y0172218D01*
X0198959Y0172147D01*
X0198836Y0172079D01*
X0198710Y0172015D01*
X0198583Y0171955D01*
X0198454Y0171898D01*
X0198324Y0171844D01*
X0198192Y0171795D01*
X0198058Y0171749D01*
X0197924Y0171707D01*
X0197788Y0171669D01*
X0197652Y0171634D01*
X0197514Y0171604D01*
X0197376Y0171577D01*
X0197237Y0171555D01*
X0197097Y0171536D01*
X0196957Y0171521D01*
X0196817Y0171510D01*
X0196676Y0171503D01*
X0196535Y0171500D01*
X0196394Y0171501D01*
X0196254Y0171506D01*
X0196113Y0171515D01*
X0195973Y0171528D01*
X0195833Y0171545D01*
X0195693Y0171565D01*
X0195555Y0171590D01*
X0195417Y0171619D01*
X0195280Y0171651D01*
X0195144Y0171687D01*
X0195009Y0171728D01*
X0194875Y0171772D01*
X0194742Y0171819D01*
X0194611Y0171871D01*
X0194481Y0171926D01*
X0194353Y0171984D01*
X0194227Y0172047D01*
X0194102Y0172112D01*
X0193980Y0172182D01*
X0193859Y0172254D01*
X0193740Y0172330D01*
X0193624Y0172410D01*
X0193510Y0172493D01*
X0193398Y0172578D01*
X0193289Y0172667D01*
X0193182Y0172759D01*
X0193078Y0172854D01*
X0192977Y0172952D01*
X0192878Y0173053D01*
X0192783Y0173156D01*
X0192690Y0173262D01*
X0192600Y0173371D01*
X0192514Y0173482D01*
X0192430Y0173595D01*
X0192350Y0173711D01*
X0192273Y0173829D01*
X0192200Y0173949D01*
X0192129Y0174072D01*
X0192063Y0174196D01*
X0192000Y0174322D01*
X0191940Y0174449D01*
X0191884Y0174578D01*
X0191832Y0174709D01*
X0191783Y0174841D01*
X0191738Y0174975D01*
X0191697Y0175110D01*
X0191660Y0175246D01*
X0191626Y0175382D01*
X0191597Y0175520D01*
X0191571Y0175659D01*
X0191550Y0175798D01*
X0191532Y0175938D01*
X0191518Y0176078D01*
X0191508Y0176218D01*
X0191502Y0176359D01*
X0191500Y0176500D01*
M02*
