%
M48
M72
T01C0.02756
T02C0.03200
T03C0.03543
T04C0.04000
T05C0.04724
T06C0.05118
T07C0.11024
%
T01
X96500Y51500
X111500Y76500
X116500Y81500
X122500Y85500
X123500Y95500
X132500Y115500
X181500Y111500
X181500Y151500
X226500Y46500
T02
X216500Y61500
X196500Y61500
X236500Y61500
X256500Y61500
X301500Y51500
X309000Y51500
X316500Y46500
X316500Y56500
X316500Y71500
X346500Y71500
X256500Y31500
X256500Y21500
X246500Y21500
X236500Y21500
X226500Y21500
X216500Y21500
X206500Y21500
X196500Y21500
X196500Y31500
X216500Y31500
X236500Y31500
X266500Y21500
X301500Y21500
T03
X281500Y46500
X281500Y56500
X281500Y66500
X281500Y76500
X281500Y86500
X281500Y96500
X281500Y106500
X281500Y116500
X281500Y126500
X281500Y136500
X281500Y146500
X281500Y156500
X308350Y147524
X355594Y147524
X355594Y100280
X331972Y92406
X308350Y100280
X206500Y121500
X206500Y131500
X206500Y141500
X206500Y151500
X206500Y161500
X206500Y171500
X176500Y156500
X176500Y146500
X176500Y136500
X176500Y126500
X176500Y116500
X176500Y106500
X176500Y96500
X176500Y86500
X176500Y76500
X176500Y66500
X176500Y56500
X176500Y46500
X156500Y50500
X156500Y60500
X156500Y70500
X156500Y80500
X156500Y90500
X156500Y100500
X156500Y110500
X156500Y120500
X156500Y130500
X156500Y140500
X156500Y150500
X156500Y160500
X156500Y170500
X156500Y180500
X156500Y190500
X66500Y190500
X66500Y180500
X66500Y170500
X66500Y160500
X66500Y150500
X66500Y140500
X66500Y130500
X66500Y120500
X66500Y110500
X66500Y100500
X66500Y90500
X66500Y80500
X66500Y70500
X66500Y60500
X66500Y50500
X66500Y40500
X66500Y30500
X66500Y20500
X66500Y10500
X156500Y10500
X156500Y20500
X156500Y30500
X156500Y40500
T04
X41500Y16500
X31500Y16500
T05
X25280Y46500
X11500Y46500
X39059Y46500
X52839Y46500
T06
X312130Y181500
X331815Y181500
X351500Y181500
T07
X11500Y11500
X11500Y186500
X356500Y11500
M30
